<svg width="24" height="16" viewBox="0 0 24 16" fill="none" xmlns="http://www.w3.org/2000/svg">
<path d="M23.6639 7.29289C24.0544 7.68342 24.0544 8.31658 23.6639 8.70711L17.2999 15.0711C16.9094 15.4616 16.2762 15.4616 15.8857 15.0711C15.4952 14.6805 15.4952 14.0474 15.8857 13.6569L21.5426 8L15.8857 2.34315C15.4952 1.95262 15.4952 1.31946 15.8857 0.928932C16.2762 0.538408 16.9094 0.538408 17.2999 0.928932L23.6639 7.29289ZM1.04315 9C0.490868 9 0.0431519 8.55228 0.0431519 8C0.0431519 7.44772 0.490868 7 1.04315 7V9ZM22.9568 9H1.04315V7H22.9568V9Z" fill="white"/>
</svg>
