<svg width="24" height="16" viewBox="0 0 24 16" fill="none" xmlns="http://www.w3.org/2000/svg">
<path d="M0.336106 7.29289C-0.0544182 7.68342 -0.0544182 8.31658 0.336106 8.70711L6.70007 15.0711C7.09059 15.4616 7.72376 15.4616 8.11428 15.0711C8.50481 14.6805 8.50481 14.0474 8.11428 13.6569L2.45743 8L8.11428 2.34315C8.50481 1.95262 8.50481 1.31946 8.11428 0.928932C7.72376 0.538408 7.09059 0.538408 6.70007 0.928932L0.336106 7.29289ZM22.9568 9C23.5091 9 23.9568 8.55228 23.9568 8C23.9568 7.44772 23.5091 7 22.9568 7V9ZM1.04321 9H22.9568V7H1.04321V9Z" fill="white"/>
</svg>
