<svg width="20" height="20" viewBox="0 0 20 20" fill="none" xmlns="http://www.w3.org/2000/svg">
<path fill-rule="evenodd" clip-rule="evenodd" d="M3.58221 19.6585C7.85015 20.1138 12.1544 20.1138 16.4223 19.6585C17.251 19.5698 18.0242 19.1998 18.6131 18.6101C19.202 18.0203 19.571 17.2466 19.6585 16.4178C20.1138 12.1499 20.1138 7.8456 19.6585 3.57767C19.5698 2.749 19.1998 1.97576 18.6101 1.38687C18.0203 0.797984 17.2466 0.429023 16.4178 0.341501C12.1499 -0.113834 7.8456 -0.113834 3.57767 0.341501C2.749 0.430186 1.97576 0.800233 1.38687 1.38995C0.797984 1.97967 0.429023 2.75342 0.341501 3.58221C-0.113834 7.85015 -0.113834 12.1544 0.341501 16.4223C0.430186 17.251 0.800233 18.0242 1.38995 18.6131C1.97967 19.202 2.75342 19.571 3.58221 19.6585ZM14.1017 13.5751C14.4702 13.5834 15.5183 13.607 15.7633 13.5725C16.2269 13.5066 16.3803 13.1384 16.1314 12.7532C15.9333 12.4428 15.7082 12.1504 15.4588 11.8794C15.2536 11.6543 15.0351 11.4412 14.8166 11.2282C14.6734 11.0885 14.5301 10.9487 14.3906 10.8056C14.1702 10.5772 14.1588 10.4238 14.3111 10.15C14.3532 10.0716 14.3998 9.99567 14.4509 9.92273C14.5877 9.73615 14.726 9.55023 14.8644 9.36417C15.1339 9.00177 15.4039 8.63882 15.6644 8.26942C15.9076 7.92058 16.1371 7.5581 16.2326 7.13313C16.2458 7.09483 16.251 7.05421 16.2478 7.01382C16.2446 6.97344 16.233 6.93414 16.2139 6.89841C16.1949 6.86268 16.1686 6.83127 16.1368 6.80616C16.105 6.78104 16.0684 6.76277 16.0292 6.75247C15.9185 6.72032 15.8036 6.70499 15.6883 6.70702H13.7498C13.4089 6.70702 13.3089 6.77747 13.1816 7.09677C12.9473 7.71864 12.6423 8.31151 12.2726 8.8637C12.0635 9.16669 11.8314 9.45312 11.5783 9.72047C11.3829 9.92728 11.1863 9.85569 11.1238 9.56934C11.0801 9.36056 11.0606 9.14741 11.0658 8.93415C11.0691 8.62152 11.0793 8.30927 11.0895 7.99696C11.0969 7.77122 11.1043 7.54545 11.109 7.31948C11.1126 7.19309 11.1031 7.06667 11.0806 6.94223C11.0706 6.83 11.0246 6.72401 10.9494 6.64006C10.8743 6.55611 10.774 6.49868 10.6636 6.47635C10.4768 6.43713 10.2863 6.4177 10.0954 6.4184H10C9.92202 6.41698 9.84405 6.41528 9.76607 6.41358C9.40544 6.40571 9.0448 6.39784 8.68417 6.4184C8.38987 6.43317 8.12739 6.4718 7.93535 6.71724C7.84331 6.83542 7.85581 6.95359 7.99898 6.97859C8.46486 7.06722 8.57622 7.34448 8.5944 7.66037C8.62167 8.15238 8.6319 8.47736 8.62167 8.97052C8.60987 9.21916 8.56712 9.46536 8.49441 9.70343C8.43305 9.87501 8.29215 9.91023 8.14329 9.8091C8.03877 9.73804 7.94502 9.65232 7.8649 9.55457C7.29247 8.82356 6.83003 8.01275 6.49226 7.1479C6.45004 7.01879 6.36782 6.90646 6.2575 6.8272C6.14718 6.74793 6.0145 6.70584 5.87866 6.70702C5.87541 6.70702 5.85198 6.7066 5.81258 6.70589C5.48015 6.69991 4.01046 6.67349 3.9231 6.70702C3.7697 6.76838 3.7197 6.94678 3.7697 7.13313C3.78333 7.18881 4.33784 8.36828 4.36625 8.42282C4.90713 9.51935 5.51277 10.5829 6.27068 11.551C6.7317 12.1674 7.31751 12.6797 7.98989 13.0544C8.61132 13.3763 9.30015 13.5464 10 13.5509C10.192 13.5555 10.3863 13.5521 10.5806 13.5418C10.8943 13.5225 11.0715 13.3475 11.0908 13.068C11.1242 12.7592 11.1843 12.4539 11.2704 12.1555C11.3806 11.8794 11.6124 11.8385 11.8465 12.0192C11.9466 12.0961 12.0404 12.1808 12.1271 12.2726C12.245 12.3941 12.3588 12.5181 12.4722 12.6418C12.641 12.8258 12.809 13.009 12.9885 13.1816C13.2533 13.4368 13.6081 13.5772 13.9759 13.5725C13.9875 13.5725 14.0327 13.5735 14.1017 13.5751Z" fill="#D61942"/>
</svg>
