<svg width="1300" height="255" viewBox="0 0 1300 255" fill="none" xmlns="http://www.w3.org/2000/svg">
<g opacity="0.5">
<path d="M2.87766 107.456C4.16144 106.897 4.63116 108.501 5.11677 109.488C6.91498 113.137 10.2472 115.048 13.8903 114.68C17.4924 114.316 21.0708 112.671 24.408 111.07C26.1574 110.23 27.5498 108.41 28.7947 106.799C31.8277 102.882 35.3689 99.5932 39.4822 96.8321C40.5357 96.1244 41.369 94.9418 42.0271 93.8136C42.8811 92.3439 42.1296 91.1545 40.4271 91.0249C38.4786 90.8705 36.4838 90.9609 34.5762 90.6196C32.6256 90.2758 30.6849 89.6831 28.8595 88.9184C26.971 88.1286 25.2648 86.8955 23.3901 86.0527C20.3155 84.6768 17.9543 82.6362 16.2557 79.6913C15.5649 78.4925 14.509 77.3223 13.3339 76.6206C10.6819 75.0387 7.88784 73.6852 5.08953 72.3681C2.80482 71.2847 0.448991 70.3542 -2.20619 70.7854C-2.6101 70.8526 -3.08058 70.4666 -3.524 70.2842C-3.29275 69.8135 -3.17379 69.1621 -2.78985 68.9173C-2.16204 68.508 -1.36398 68.1299 -0.643939 68.1387C1.59539 68.1721 3.84946 68.2859 6.07053 68.5634C7.89858 68.7926 9.6888 69.609 11.5059 69.6161C14.1467 69.625 16.4242 70.3445 18.677 71.6477C19.9284 72.3709 21.4591 73.0607 22.8438 73.0301C26.807 72.934 30.7522 72.512 34.5044 70.9886C37.0783 69.9462 39.659 68.8247 42.3448 68.1953C46.9295 67.1216 51.5152 67.2718 55.6235 69.9436C58.4335 71.7711 59.3842 74.6302 59.2105 77.8574C59.1307 79.4058 58.3305 79.9322 56.785 79.5771C55.4329 79.2611 54.0577 78.9373 52.7899 78.3874C49.8141 77.0902 46.7647 77.1568 43.6776 77.6558C41.8499 77.9471 40.0546 78.4618 38.2257 78.7745C30.6425 80.0769 23.2492 80.6524 17.1832 74.3391C16.1337 73.2445 14.3208 72.8635 12.8179 72.2506C12.4775 72.1107 11.9642 72.3976 11.5246 72.4886C11.5208 72.6303 11.517 72.7721 11.5131 72.9138C11.9727 73.0777 12.4543 73.1934 12.8917 73.4056C14.0844 73.9899 15.5918 74.3342 16.3812 75.2741C19.6828 79.2268 24.0688 80.6132 28.8917 80.678C33.3043 80.7345 37.7442 80.4247 42.142 79.9856C47.2732 79.4745 52.1063 80.226 56.6891 82.5721C60.315 84.4248 61.0132 86.5855 58.6488 89.9069C57.0843 92.1038 55.0991 94.0208 53.17 95.9367C51.1633 97.9299 48.8961 99.663 46.9346 101.693C45.1473 103.535 43.6021 105.622 41.9593 107.608C40.9538 108.83 39.8061 109.605 38.0889 109.318C37.4839 109.215 36.7118 109.403 36.1711 109.718C34.7052 110.566 33.1697 111.39 31.9267 112.515C28.9343 115.232 25.5573 116.401 21.5602 115.775C20.8993 115.672 20.2185 115.73 19.5461 115.715C19.5244 115.869 19.5075 116.014 19.4858 116.168C19.9334 116.314 20.381 116.537 20.8365 116.583C25.4081 117.018 29.6312 116.324 33.3013 113.226C34.6074 112.126 36.194 111.049 37.8163 110.7C40.713 110.07 42.6768 108.49 44.4182 106.245C45.7628 104.508 47.2117 102.716 48.9761 101.464C53.2667 98.4222 57.4942 95.3557 61.288 91.6752C63.8386 89.1968 67.0954 88.7011 70.5239 89.6435C73.8231 90.5504 76.5033 92.392 78.5227 95.1444C81.2546 98.8646 81.7633 102.948 80.4496 107.343C80.125 108.43 80.0886 109.593 79.9183 110.73C80.1595 110.763 80.4089 110.801 80.6501 110.834C81.0959 108.378 81.6061 105.925 81.9644 103.456C82.5907 99.1216 81.5204 95.3803 78.3386 92.1549C75.0777 88.8455 75.7027 84.9472 79.6192 82.3943C80.3495 81.9219 81.134 81.442 81.9599 81.2181C88.8733 79.3656 95.7202 77.0597 102.956 76.914C106.644 76.843 110.107 76.0171 113.497 74.7396C115.732 73.9016 117.773 72.7364 119.281 70.7727C120.842 68.7455 122.502 66.797 124.109 64.8068C124.146 64.7616 124.089 64.6293 124.039 64.3403C122.428 65.0441 121.416 66.2682 120.452 67.5918C119.61 68.7418 118.848 70.1866 117.678 70.8274C112.83 73.4992 107.785 75.7317 102.06 75.6862C97.0399 75.6467 92.0685 76.0724 87.1757 77.2295C85.1196 77.7164 83.0872 78.3165 81.0151 78.7444C78.2244 79.3248 75.0301 77.2215 75.0273 74.9005C75.0245 70.9965 79.1166 64.7304 82.7519 63.2949C85.0648 62.3796 86.7253 60.8742 88.1067 58.8324C88.9216 57.6336 90.0051 56.4394 91.2516 55.7428C95.7254 53.2217 98.1741 48.9136 101.117 45.0273C101.408 44.646 101.394 44.0236 101.524 43.517C100.983 43.5721 100.779 43.7261 100.659 43.9343C98.2911 47.9954 95.3298 51.4504 91.2104 53.9035C89.4846 54.9341 88.1163 56.5573 86.5033 57.7965C84.9308 59.0036 83.252 60.0777 81.6118 61.1907C80.4366 61.9946 79.0016 62.5665 78.1226 63.6067C76.635 65.3607 75.4907 67.3946 74.2125 69.324C73.9038 69.7946 73.7189 70.3583 73.3733 70.7967C72.2693 72.2005 71.1405 72.2672 70.3765 70.6943C69.752 69.4283 69.2454 67.7926 69.4994 66.4714C70.4004 61.6963 72.4171 57.5335 77.2458 55.465C81.0535 53.835 84.057 51.2621 86.3768 47.8543C87.6239 46.0177 89.3084 44.731 91.3735 43.8618C93.9582 42.7813 96.498 41.509 98.0778 39.0828C99.5089 36.8868 100.733 34.5499 101.962 32.2327C102.91 30.4349 102.929 28.5583 102.563 26.5327C102.137 24.1789 101.981 21.7374 102.064 19.3439C102.127 17.6031 103.026 16.037 104.861 14.604C105.177 16.1363 105.519 17.2679 105.621 18.4223C105.958 22.1583 106.622 25.8549 108.488 29.1061C110.525 32.6489 110.047 36.0501 108.59 39.4771C106.814 43.6451 105.882 47.9926 105.372 52.4717C105.249 53.5745 104.921 54.7258 104.394 55.6916C102.98 58.2629 101.402 60.7451 99.8832 63.2673C98.8895 64.9227 99.1298 66.2506 100.829 67.1479C102.045 67.7894 103.38 68.3282 104.719 68.5983C109.277 69.5019 113.622 69.4922 117.043 65.5257C118.57 63.7611 120.52 62.4938 122.874 61.9121C123.699 61.7097 124.434 61.1516 125.215 60.764C126.871 59.9423 128.458 58.7876 130.216 58.3956C132.537 57.8722 134.987 57.9047 137.384 57.818C137.83 57.8026 138.292 58.3387 138.749 58.623C138.394 59.0286 138.113 59.5761 137.668 59.8023C136.616 60.3336 135.508 60.7887 134.382 61.1502C130.756 62.3088 128.053 64.5611 126.328 67.9341C125.413 69.723 124.558 71.5518 123.811 73.4148C122.355 77.0527 120 79.8648 116.581 81.7837C115.23 82.5367 113.814 83.1807 112.526 84.0363C111.268 84.8698 109.974 85.7552 108.976 86.8769C105.9 90.321 99.5424 91.8117 95.8088 89.8475C95.0549 89.4538 94.2198 88.3715 93.4225 89.3756C93.191 89.6635 93.956 90.9547 94.491 91.6047C96.2124 93.6992 96.3454 94.7607 94.8177 96.9899C94.4142 97.5777 93.9617 98.1928 93.4 98.6124C91.5736 99.9727 90.7941 101.795 90.4636 104.002C89.9953 107.077 89.1009 110.007 87.0398 112.501C85.9376 113.834 85.137 115.423 84.1907 116.889C83.1053 118.569 82.1085 120.317 80.8791 121.881C80.3247 122.587 79.2985 122.929 78.4931 123.436C78.3819 123.311 78.266 123.195 78.1548 123.07C78.2758 122.27 78.3206 121.449 78.5243 120.669C79.0822 118.548 78.4023 116.896 76.6538 115.688C75.1742 114.668 73.6415 113.712 72.0915 112.795C70.3213 111.741 68.4777 110.805 66.7284 109.724C64.5573 108.385 63.8357 106.372 64.172 103.874C64.3703 102.399 64.4906 100.896 64.4352 99.4197C64.4113 98.7086 63.8936 98.0186 63.5999 97.3243C63.4171 97.3246 63.2342 97.3249 63.0514 97.3252C62.5701 98.1452 61.9875 98.9292 61.624 99.7946C61.0023 101.265 60.5067 102.785 59.9731 104.295C57.68 110.734 53.5345 115.376 46.7589 117.036C42.4506 118.091 38.505 119.913 34.5023 121.681C31.5855 122.964 28.4762 123.926 25.3659 122.574C20.2885 120.376 15.0913 118.618 9.7333 117.228C6.28931 116.332 3.82113 114.13 2.68376 110.661C2.37045 109.557 1.5498 108.034 2.87766 107.456Z" fill="white"/>
<path d="M97.366 98.2411C101.183 95.919 105.393 95.0735 109.829 95.7077C110.823 95.8462 111.842 96.2314 112.706 96.7432C121.812 102.099 127.168 110.026 128.672 120.481C129.949 129.345 124.962 135.917 116.341 136.79C110.746 137.356 106.173 135.254 102.406 131.195C98.2979 126.757 96.308 121.232 94.3336 115.66C93.8939 113.492 93.3309 111.337 93.0277 109.154C92.4368 104.741 93.243 100.759 97.366 98.2411Z" fill="white"/>
<path d="M95.6178 183.663C86.8671 185.07 78.825 183.563 72.9764 176.08C69.5089 171.644 66.6321 166.845 64.4016 161.652C62.9033 158.174 63.3751 155.112 65.9309 152.393C68.6704 149.47 71.9136 147.859 76.0285 148.946C79.8023 149.943 83.5653 150.977 87.3283 152.012C90.7019 152.934 93.5368 154.515 94.7341 158.103C94.96 158.78 95.3723 159.393 95.6834 160.048C97.6927 164.217 99.6956 168.388 101.082 171.27C102.98 178.143 100.754 182.834 95.6178 183.663Z" fill="white"/>
<path d="M100.087 140.73C100.634 139.09 101.558 137.827 103.138 137.582C104.744 137.329 106.498 137.466 108.106 137.818C111.107 138.482 114.023 139.557 117.022 140.214C119.714 140.8 121.547 142.217 122.788 144.639C124.03 147.067 125.445 149.407 126.72 151.826C127.414 153.144 127.965 154.528 128.428 155.535C129.76 161.851 129.25 167.421 124.816 171.929C119.87 176.942 109.955 176.702 105.08 171.199C101.962 167.689 99.2951 163.691 96.9383 159.616C94.7265 155.79 94.8271 151.696 97.1813 147.688C98.4253 145.529 99.2903 143.113 100.087 140.73Z" fill="white"/>
<path d="M86.027 118.706C86.4483 117.769 86.7251 116.765 87.1381 115.823C87.6791 114.6 88.7477 114.156 89.7744 114.933C90.9266 115.809 92.0207 116.913 92.7418 118.146C94.516 121.162 96.0702 124.3 97.693 127.407C98.1449 128.269 98.602 129.151 98.9085 130.074C100.846 135.952 99.0064 141.157 95.7469 145.952C93.9601 148.575 91.0717 149.625 87.9655 149.82C77.8271 150.443 69.2869 144.216 66.6999 134.385C65.3999 129.432 65.1144 124.303 66.0954 120.161C66.4102 118.83 66.9644 117.526 67.6143 116.316C68.1579 115.31 69.1659 114.721 70.3665 115.127C72.6053 115.885 74.6147 117.043 75.9009 119.115C76.7498 120.482 77.0863 121.931 76.4161 123.534C76.1614 124.152 76.199 124.888 76.1086 125.566C76.8905 125.622 77.7429 125.911 78.4454 125.7C82.0641 124.593 84.501 122.11 86.027 118.706Z" fill="white"/>
<path d="M46.6936 119.91C46.7461 119.896 46.7919 119.884 46.8444 119.869C49.9724 119.106 52.6716 117.566 55.0662 115.446C55.8726 114.735 56.7117 114.015 57.6316 113.463C60.9122 111.498 63.3515 112.736 63.6581 116.516C63.7305 117.432 63.6105 118.365 63.609 119.294C63.6124 120.89 63.4926 122.499 63.68 124.073C63.9586 126.425 64.4558 128.753 64.8559 131.086C65.5545 135.195 66.3699 139.294 66.8993 143.428C67.2046 145.801 66.5149 148.084 64.6885 149.782C61.6328 152.63 56.6731 154.734 52.1457 151.606C51.2557 150.996 50.2743 150.516 49.3348 149.982C44.2543 147.124 41.0044 142.869 39.4274 137.231C39.1567 135.194 38.7525 133.158 38.6349 131.114C38.2648 124.531 40.3759 121.651 46.6936 119.91Z" fill="white"/>
<path d="M134.728 156.375C131.983 154.53 129.37 152.311 127.197 149.825C123.23 145.286 123.081 140.606 126.186 135.423C127.034 134.011 127.939 132.626 128.788 131.214C130.185 128.894 130.862 126.431 130.411 123.675C130.146 122.052 129.992 120.391 130.025 118.749C130.104 115.147 132.78 113.233 136.252 114.234C138.673 114.935 140.722 116.343 141.904 118.527C143.761 121.95 145.33 125.535 147.012 129.04C147.368 132.975 147.915 136.76 148.006 140.548C148.118 145.063 147.468 149.517 145.236 153.562C142.821 157.967 138.873 159.156 134.728 156.375Z" fill="white"/>
<path d="M113.486 85.7322C115.48 84.7836 117.45 83.7713 119.379 82.6857C121.839 81.3013 124.466 80.505 127.234 80.9859C133.547 82.0823 138.226 85.9008 141.669 90.9973C143.469 93.6684 144.223 97.0453 145.343 99.8303C145.598 101.316 145.829 102.478 145.977 103.648C146.077 104.408 146.106 105.189 146.075 105.957C145.945 109.215 143.387 111.899 140.122 112.186C134.574 112.662 129.792 110.75 126.053 106.817C121.745 102.293 117.414 97.8662 112.403 94.0954C109.134 91.6394 109.804 87.4898 113.486 85.7322Z" fill="white"/>
<path d="M164.062 175.674C163.206 177.214 161.732 178.655 160.196 179.529C156.495 181.629 153.437 181.459 151.377 177.388C149.428 173.547 147.781 169.547 145.999 165.618C146.112 165.567 146.231 165.513 146.344 165.462C146.155 164.767 145.98 164.069 145.777 163.371C144.95 160.527 145.423 158.042 147.044 155.457C148.317 153.431 148.931 150.943 149.558 148.584C149.929 147.175 149.76 145.617 149.836 144.133C149.997 141.17 152.067 139.539 154.949 140.257C156.028 140.527 157.062 141.07 158.036 141.629C163.753 144.913 166.728 150.284 167.633 156.427C168.613 163.078 167.366 169.692 164.062 175.674Z" fill="white"/>
<path d="M142.227 192.82C139.03 195.537 134.858 195.563 131.517 193.099C129.319 191.478 127.958 189.286 127.201 186.677C126.505 184.262 125.782 181.855 125.04 179.453C124.586 177.986 124.193 176.46 125.225 175.153C128.084 171.529 129.666 167.294 131.367 163.083C131.751 162.135 132.696 161.21 133.614 160.729C136.472 159.23 140.255 160.104 142.657 162.633C145.24 165.36 146.668 168.709 147.784 172.592C147.918 173.217 148.175 174.168 148.316 175.129C149.349 182.081 147.711 188.161 142.227 192.82Z" fill="white"/>
<path d="M47.169 151.259C51.8571 153.344 56.7136 155.454 59.9737 159.643C63.2219 163.815 66.1344 168.253 69.0659 172.658C70.1437 174.272 71.0289 176.059 71.7121 177.879C72.6456 180.362 71.4897 182.146 68.8434 182.272C67.0166 182.359 65.1175 182.206 63.3416 181.779C57.2559 180.326 51.9374 177.342 47.36 173.095C43.8715 169.854 41.2296 166.025 39.592 161.41C39.5294 159.57 39.2358 157.708 39.4507 155.905C39.9511 151.702 43.3285 149.549 47.169 151.259Z" fill="white"/>
<path d="M102.731 205.677C101.051 206.695 99.1146 207.494 97.198 207.873C91.4334 209.006 86.5767 206.974 82.3865 203.065C80.5037 201.309 78.5725 199.61 76.7333 197.807C74.1448 195.266 73.3375 192.079 73.9261 188.592C74.4198 185.637 76.555 184.066 79.576 184.31C81.0576 184.429 82.5252 184.756 83.9779 185.08C88.1425 186.012 92.3244 186.905 96.4429 188.005C97.8389 188.38 99.226 189.137 100.359 190.047C102.955 192.122 104.634 194.889 105.297 197.13C106.583 201.798 106.011 203.684 102.731 205.677Z" fill="white"/>
<path d="M112.222 201.24C107.439 197.971 104.229 193.346 101.986 188.156C99.9889 183.54 103.126 178.476 108.155 178.105C111.928 177.828 115.752 178.178 119.545 178.261C121.676 178.31 123.295 179.349 123.997 181.29C125.568 185.635 127.243 189.972 128.303 194.455C129.418 199.19 127.443 201.822 122.705 203.106C119.288 204.025 115.375 203.397 112.222 201.24Z" fill="white"/>
<path d="M158.052 135.56C155.314 137.477 152.403 137.042 150.757 134.16C148.958 131.003 147.512 127.638 146.209 124.959C145.739 121.667 145.357 119.118 145.019 116.571C144.783 114.792 145.231 113.228 146.456 111.855C148.176 109.918 148.896 107.592 148.903 105.022C148.905 104.093 148.885 103.162 148.937 102.24C149.012 100.933 149.405 99.8129 150.817 99.3387C152.192 98.8817 153.3 99.3343 154.097 100.406C156.281 103.325 158.695 106.132 160.472 109.288C163.596 114.843 164.77 120.864 163.223 127.201C162.417 130.536 160.962 133.526 158.052 135.56Z" fill="white"/>
<path d="M132.348 66.2886C133.005 65.7798 133.92 65.3138 134.722 65.3144C138.215 65.3248 141.598 65.8924 144.579 67.934C149.192 71.0949 151.406 75.7857 153.194 81.7318C153.353 82.9411 153.821 84.9811 153.819 87.0221C153.815 88.6201 153.553 90.3796 152.851 91.787C151.172 95.169 147.21 95.3211 145.051 92.2618C144.754 91.8426 144.469 91.4133 144.189 90.9757C142.254 87.9894 139.859 85.4091 136.73 83.7031C133.981 82.2039 131.076 80.986 128.193 79.748C125.176 78.455 124.467 76.7969 125.934 73.9018C127.464 70.8769 129.668 68.3659 132.348 66.2886Z" fill="white"/>
<path d="M170.04 108.819C169.085 109.943 167.698 110.847 166.336 111.455C164.542 112.258 163.048 111.523 162.07 109.783C160.755 107.452 159.309 105.178 158.189 102.758C157.177 100.584 156.065 98.2964 155.813 95.9655C155.309 91.2757 155.26 86.5259 155.225 81.8005C155.21 79.3068 156.944 78.1756 159.551 79.0451C166.389 81.3287 171.266 85.72 173.458 92.1754C174.97 98.6607 174.028 104.115 170.04 108.819Z" fill="white"/>
<path d="M75.4128 79.2566C77.0392 80.1174 77.0827 80.4856 76.035 81.9937C74.1146 84.7726 71.306 86.1951 68.154 87.0775C67.9573 87.1308 67.7542 87.1858 67.5575 87.2391C63.8806 88.2356 62.9962 87.4904 62.9861 83.715C62.9826 81.7811 62.8595 79.7953 62.4206 77.9161C60.5531 69.9092 57.1772 62.515 52.6623 55.6688C47.8771 48.3963 42.2616 41.9539 34.086 38.2668C33.8051 38.1389 33.551 37.9545 33.3149 37.7581C32.1241 36.7652 31.9513 35.3486 32.8166 33.8688C33.6342 32.4723 34.7033 32.0559 36.2069 32.6193C36.8259 32.8526 37.4287 33.1817 37.9844 33.5447C43.1796 36.9561 47.8401 40.9908 51.966 45.6489C57.8659 52.3097 62.0751 60.0268 66.016 67.9221C68.2642 72.4276 70.7004 76.7697 75.4128 79.2566Z" fill="white"/>
<path d="M46.2027 176.483C47.9202 175.448 49.2984 176.587 50.535 177.567C55.0801 181.176 60.1537 183.516 65.9338 184.257C68.449 184.581 69.979 186.073 70.7996 188.426C71.7019 191.003 72.683 193.558 73.6294 196.116C73.6229 196.118 73.6098 196.121 73.6032 196.123C73.7028 196.413 73.8107 196.707 73.9103 196.997C74.9203 200.1 73.7698 201.826 70.5148 201.913C69.2438 201.948 67.9176 201.857 66.6907 201.535C58.7846 199.492 52.3121 195.209 47.3142 188.761C45.6577 186.621 44.4739 184.226 44.1972 181.466C43.986 179.441 44.3469 177.605 46.2027 176.483Z" fill="white"/>
<path d="M152.34 208.977C147.377 209.407 144.17 206.688 144.342 201.689C144.434 198.913 145.066 196.054 146.001 193.429C147.993 187.852 152.37 184.661 157.894 183.107C161.746 182.028 164.785 184.054 164.87 187.872C164.952 191.291 164.853 194.842 163.995 198.114C162.728 202.968 160.335 207.274 154.771 208.578C153.967 208.726 153.159 208.91 152.34 208.977Z" fill="white"/>
<path d="M39.1072 147.576C39.2633 148.983 38.6566 150.041 37.4665 150.842C34.8962 152.573 32.8987 152.523 30.3505 150.857C26.2804 148.196 24.1952 144.11 22.4623 139.845C21.3334 137.055 20.2547 134.14 19.8407 131.184C19.2912 127.288 22.2832 124.802 26.169 125.381C26.9324 125.498 27.7035 125.592 28.4777 125.593C32.8201 125.598 35.3482 127.917 36.5926 131.886C36.8403 132.67 37.0308 133.477 37.2457 134.27C37.3541 134.254 37.4691 134.237 37.5775 134.222C38.0886 138.678 38.6193 143.128 39.1072 147.576Z" fill="white"/>
<path d="M152.454 73.785C151.63 73.1077 150.881 72.2906 150.245 71.4218C147.675 67.9109 144.338 65.4101 140.339 63.7921C137.541 62.6579 137.103 62.3123 139.857 60.4543C140.499 60.02 141.13 58.8709 140.997 58.1965C140.872 57.5549 139.821 56.7915 139.058 56.6253C135.804 55.9102 132.481 55.6923 129.318 56.9785C125.274 58.6164 121.298 60.4045 117.317 62.201C116.1 62.7488 115.411 62.5136 115.336 61.1759C115.294 60.3712 115.386 59.5161 115.605 58.7392C116.936 53.9671 119.941 50.8803 123.966 50.0285C129.274 48.6885 133.67 48.8128 137.946 50.3134C147.439 53.6435 152.816 60.7626 155.702 70.0624C155.924 70.7763 155.956 71.5977 155.872 72.3521C155.672 74.341 154.001 75.0543 152.454 73.785Z" fill="white"/>
<path d="M142.456 211.163C139.931 214.591 136.427 216.512 133.13 217.56C126.089 219.461 122.317 217.902 119.976 212.584C118.365 208.926 119.239 206.726 122.95 205.284C125.28 204.378 127.593 203.414 128.98 201.209C130.877 198.19 133.855 197.418 137.057 197.162C139.261 196.987 140.977 197.971 141.924 200.008C142.596 201.451 143.195 202.935 143.675 204.445C144.437 206.869 143.963 209.116 142.456 211.163Z" fill="white"/>
<path d="M22.9585 147.647C24.0325 147.145 24.7753 148.224 25.3886 149.085C27.0198 151.365 29.082 153.03 31.7899 153.935C34.6138 154.88 36.4116 156.918 37.3678 159.719C38.0305 161.672 38.5204 163.713 39.4425 165.531C40.5224 167.673 41.9743 169.629 43.2873 171.645C44.7685 173.917 44.2251 175.52 41.6509 176.38C39.8572 176.979 38.1123 176.875 36.4073 176.035C28.6227 172.207 23.6076 166.059 21.3803 158.853C20.4146 155.238 19.7571 152.63 20.6635 150.056C21.0069 149.09 22.0037 148.096 22.9585 147.647Z" fill="white"/>
<path d="M172.517 145.036C171.513 148.572 168.084 149.263 165.458 146.66C163.921 145.142 162.788 143.17 161.647 141.298C160.166 138.871 160.168 136.513 161.744 133.919C164.16 129.958 165.691 125.638 165.144 120.84C165.094 120.397 165.203 119.917 165.313 119.465C165.761 117.613 167.195 116.83 168.954 117.557C169.651 117.846 170.304 118.309 170.873 118.823C172.852 120.623 173.839 122.994 174.41 125.513C176.767 132.317 174.316 138.694 172.517 145.036Z" fill="white"/>
<path d="M96.8377 217.603C93.6072 215.418 93.6964 212.087 97.1323 210.227C100.697 208.297 104.487 206.784 107.752 205.28C112.4 203.922 114.711 204.815 116.776 208.695C117.592 210.226 118.206 211.896 118.679 213.562C119.87 217.749 119.001 219.504 114.985 221.169C113.954 221.596 112.809 221.914 111.701 221.954C106.285 222.141 101.3 220.622 96.8377 217.603Z" fill="white"/>
<path d="M166.617 187.336C165.716 182.739 165.361 178.312 166.751 173.889C167.241 172.321 167.722 170.721 167.973 169.105C168.61 165.041 169.127 160.954 169.647 156.874C169.783 155.767 170.07 154.852 171.235 154.48C172.465 154.084 173.369 154.669 174.051 155.574C174.575 156.263 175.05 157.027 175.367 157.835C177.788 163.989 178.915 170.304 177.521 176.895C176.538 181.523 174.885 185.806 170.907 188.755C168.601 190.449 167.268 189.945 166.617 187.336Z" fill="white"/>
<path d="M71.0293 203.863C77.7485 203.189 83.4995 205.38 88.5031 209.772C90.5817 211.601 92.2334 213.75 93.0089 215.988C94.1645 219.966 92.4672 222.192 88.7562 222.129C88.191 222.12 87.6169 222.079 87.0662 221.968C78.6617 220.291 72.6631 215.395 68.6703 207.957C67.3793 205.556 68.297 204.139 71.0293 203.863Z" fill="white"/>
<path d="M114.909 223.223C116.035 222.862 117.128 222.404 118.242 222.024C120.229 221.359 122.196 220.362 124.231 220.162C126.706 219.92 129.251 220.328 131.766 220.498C134.104 220.659 135.517 222.085 135.675 224.483C135.812 226.627 134.902 228.33 133.105 229.436C132.026 230.101 130.77 230.477 129.59 230.98C126.02 232.004 122.484 231.498 119.004 230.781C117.64 230.497 116.263 229.779 115.151 228.92C114.28 228.248 113.559 227.149 113.196 226.094C112.683 224.615 113.399 223.703 114.909 223.223Z" fill="white"/>
<path d="M10.566 122.793C11.1266 120.811 12.6117 119.853 14.2073 120.237C17.0673 120.925 18.6129 122.786 18.5908 125.768C18.5686 128.49 18.0926 131.25 18.3825 133.929C18.6532 136.382 19.6374 138.767 20.3846 141.161C20.8717 142.725 21.4561 144.543 20.256 145.671C19.0171 146.836 17.4203 145.721 16.1882 144.887C12.8845 142.666 11.2019 139.365 10.1953 135.677C10.0553 134.927 9.89802 134.217 9.79671 133.505C9.29386 129.885 9.56758 126.3 10.566 122.793Z" fill="white"/>
<path d="M140.149 217.551C141.191 216.283 142.314 215.078 143.355 213.804C145.203 211.537 147.489 210.446 150.487 210.577C152.259 210.652 154.048 210.245 155.833 210.056C155.831 209.994 155.821 209.933 155.818 209.871C156.257 209.724 156.692 209.563 157.134 209.43C159.172 208.8 160.516 209.836 160.245 211.978C160.119 212.968 159.766 214 159.262 214.868C155.573 221.194 149.594 223.3 142.722 223.516C141.098 223.569 139.793 222.495 139.084 221.019C138.421 219.637 139.33 218.553 140.149 217.551Z" fill="white"/>
<path d="M180.046 131.851C179.367 132.225 178.657 132.565 177.963 132.915C177.685 132.251 177.281 131.615 177.157 130.924C176.72 128.404 176.668 125.773 175.902 123.363C175.251 121.323 174.169 119.175 172.657 117.721C170.126 115.29 168.974 114.258 172.113 110.368C172.528 109.848 172.964 109.328 173.456 108.886C174.798 107.685 175.836 107.593 177.369 108.55C180.091 110.261 181.562 112.859 182.71 116.811C183.6 121.263 182.282 126.341 180.395 131.348C180.32 131.537 180.206 131.765 180.046 131.851Z" fill="white"/>
<path d="M29.6612 93.7457C30.4445 93.7022 31.9386 93.4521 33.3981 93.6194C34.3639 93.7305 35.2657 94.4359 36.1935 94.874C35.6871 95.757 35.3957 96.9405 34.6403 97.4759C31.6465 99.6171 29.5758 102.542 27.3599 105.373C26.0678 107.018 24.6615 108.63 23.0584 109.958C21.4846 111.264 20.0166 110.494 20.2026 108.481C20.4287 105.992 20.9002 103.5 21.5312 101.078C22.5296 97.2333 25.3024 95.0817 29.6612 93.7457Z" fill="white"/>
<path d="M175.799 141.388C176.199 140.084 176.738 138.699 177.604 137.691C178.284 136.901 179.634 136.17 180.573 136.288C181.47 136.404 182.223 137.649 183.045 138.397C182.961 138.504 182.873 138.62 182.789 138.727C182.878 139.392 183.021 140.05 183.039 140.714C183.166 145.646 181.97 150.319 180.082 154.826C179.359 156.549 177.93 156.986 176.805 155.82C174.768 153.706 173.06 151.425 174.092 148.12C174.783 145.92 175.126 143.604 175.799 141.388Z" fill="white"/>
<path d="M111.009 66.1337C108.926 66.832 106.82 66.6428 104.828 65.7826C103.139 65.0515 103.114 64.207 104.04 62.6123C105.214 60.5844 106.155 58.4228 107.114 56.2772C107.442 55.541 107.449 54.6596 107.734 53.8929C108.214 52.6019 109.37 52.2184 110.273 53.1626C111.499 54.4415 112.502 55.9356 113.404 57.0841C113.439 58.0949 113.561 58.674 113.461 59.2146C113.115 61.1306 112.758 63.0568 112.254 64.938C112.119 65.425 111.512 65.9624 111.009 66.1337Z" fill="white"/>
<path d="M96.6306 221.226C97.5384 221.149 98.5139 221.166 99.3867 221.4C101.573 221.99 103.744 222.654 105.867 223.429C107.545 224.037 108.692 225.26 109.226 227.022C109.624 228.335 109.226 229.125 107.847 229.436C104.03 229.915 100.334 229.544 97.0903 227.257C96.1599 226.602 95.4033 225.576 94.8398 224.561C93.7328 222.553 94.3742 221.415 96.6306 221.226Z" fill="white"/>
<path d="M165.901 197.387C166.169 196.61 166.372 195.803 166.72 195.061C167.731 192.873 168.945 191.848 170.072 192.14C171.215 192.436 172.301 194.287 172.256 196.276C172.155 200.342 170.367 203.585 167.142 206.042C166.78 206.316 166.317 206.448 165.551 206.818C165.047 206.645 164.061 206.588 163.662 206.077C163.309 205.631 163.457 204.62 163.668 203.944C164.336 201.737 165.142 199.569 165.901 197.387Z" fill="white"/>
</g>
<g opacity="0.5">
<path d="M1235.76 132.875C1236.13 133.476 1235.36 133.826 1234.9 134.139C1233.21 135.297 1232.49 137.098 1232.93 138.891C1233.37 140.665 1234.45 142.334 1235.49 143.887C1236.03 144.701 1237.04 145.266 1237.93 145.773C1240.11 147.008 1242 148.542 1243.68 150.399C1244.1 150.875 1244.75 151.207 1245.37 151.455C1246.16 151.776 1246.7 151.316 1246.64 150.457C1246.58 149.472 1246.39 148.482 1246.43 147.505C1246.46 146.507 1246.62 145.495 1246.87 144.529C1247.13 143.529 1247.62 142.589 1247.91 141.592C1248.38 139.958 1249.23 138.633 1250.58 137.575C1251.13 137.144 1251.64 136.533 1251.9 135.896C1252.5 134.458 1252.98 132.966 1253.44 131.475C1253.82 130.256 1254.11 129.013 1253.71 127.718C1253.65 127.521 1253.81 127.258 1253.86 127.024C1254.12 127.105 1254.45 127.118 1254.6 127.293C1254.85 127.577 1255.09 127.949 1255.14 128.309C1255.29 129.43 1255.39 130.564 1255.41 131.693C1255.43 132.622 1255.15 133.575 1255.27 134.483C1255.46 135.802 1255.26 136.991 1254.77 138.21C1254.5 138.886 1254.26 139.7 1254.38 140.389C1254.71 142.362 1255.2 144.302 1256.23 146.068C1256.93 147.279 1257.68 148.488 1258.18 149.784C1259.05 151.998 1259.3 154.299 1258.26 156.541C1257.55 158.075 1256.19 158.754 1254.56 158.898C1253.78 158.969 1253.46 158.607 1253.53 157.809C1253.59 157.112 1253.65 156.401 1253.84 155.729C1254.27 154.15 1254.02 152.632 1253.55 151.125C1253.28 150.233 1252.89 149.373 1252.61 148.482C1251.41 144.788 1250.6 141.136 1253.32 137.656C1253.79 137.053 1253.85 136.121 1254.05 135.326C1254.1 135.146 1253.92 134.91 1253.84 134.697C1253.77 134.705 1253.7 134.714 1253.63 134.722C1253.58 134.963 1253.55 135.212 1253.48 135.446C1253.27 136.083 1253.21 136.86 1252.79 137.322C1251.06 139.253 1250.68 141.543 1250.99 143.956C1251.27 146.164 1251.75 148.36 1252.28 150.525C1252.9 153.051 1252.87 155.519 1252.03 157.975C1251.36 159.919 1250.33 160.422 1248.5 159.478C1247.29 158.853 1246.19 157.999 1245.1 157.172C1243.96 156.312 1242.93 155.303 1241.78 154.469C1240.73 153.707 1239.58 153.085 1238.47 152.406C1237.79 151.991 1237.32 151.473 1237.34 150.595C1237.35 150.285 1237.2 149.913 1237 149.666C1236.48 148.994 1235.95 148.286 1235.3 147.745C1233.73 146.445 1232.91 144.842 1232.93 142.8C1232.94 142.463 1232.86 142.127 1232.82 141.79C1232.74 141.79 1232.67 141.792 1232.59 141.792C1232.55 142.026 1232.47 142.266 1232.48 142.497C1232.59 144.811 1233.24 146.871 1235.05 148.483C1235.69 149.057 1236.34 149.772 1236.63 150.557C1237.15 151.959 1238.08 152.827 1239.33 153.537C1240.29 154.084 1241.29 154.68 1242.04 155.472C1243.87 157.398 1245.7 159.29 1247.81 160.922C1249.23 162.019 1249.71 163.611 1249.48 165.39C1249.27 167.103 1248.54 168.573 1247.31 169.778C1245.64 171.408 1243.64 171.954 1241.35 171.612C1240.79 171.527 1240.2 171.592 1239.62 171.588C1239.62 171.711 1239.62 171.838 1239.62 171.961C1240.88 172.008 1242.14 172.088 1243.4 172.091C1245.61 172.094 1247.4 171.292 1248.79 169.473C1250.21 167.608 1252.2 167.642 1253.75 169.415C1254.04 169.746 1254.34 170.104 1254.51 170.501C1255.93 173.821 1257.57 177.076 1258.16 180.68C1258.46 182.517 1259.11 184.188 1259.99 185.789C1260.57 186.846 1261.3 187.782 1262.39 188.395C1263.51 189.03 1264.61 189.72 1265.71 190.381C1265.74 190.396 1265.8 190.358 1265.94 190.312C1265.48 189.558 1264.79 189.14 1264.06 188.753C1263.43 188.415 1262.65 188.137 1262.25 187.598C1260.57 185.368 1259.09 183.008 1258.71 180.145C1258.37 177.635 1257.8 175.182 1256.87 172.821C1256.48 171.829 1256.04 170.856 1255.68 169.852C1255.19 168.5 1256.01 166.754 1257.17 166.587C1259.12 166.307 1262.54 167.903 1263.52 169.616C1264.14 170.706 1265.01 171.428 1266.13 171.972C1266.78 172.294 1267.46 172.75 1267.89 173.322C1269.47 175.377 1271.8 176.292 1273.95 177.485C1274.16 177.603 1274.47 177.551 1274.73 177.58C1274.67 177.314 1274.58 177.223 1274.46 177.178C1272.27 176.285 1270.33 175.053 1268.81 173.171C1268.17 172.382 1267.26 171.815 1266.53 171.097C1265.81 170.398 1265.16 169.636 1264.49 168.897C1264 168.367 1263.61 167.691 1263.03 167.326C1262.05 166.709 1260.95 166.282 1259.89 165.782C1259.64 165.661 1259.34 165.609 1259.1 165.468C1258.32 165.017 1258.21 164.458 1258.94 163.964C1259.52 163.561 1260.31 163.191 1260.98 163.224C1263.43 163.333 1265.66 164.043 1267.03 166.307C1268.12 168.093 1269.62 169.409 1271.49 170.324C1272.49 170.816 1273.26 171.566 1273.84 172.535C1274.56 173.749 1275.38 174.927 1276.7 175.542C1277.9 176.1 1279.16 176.545 1280.4 176.993C1281.37 177.339 1282.31 177.214 1283.29 176.887C1284.44 176.505 1285.65 176.254 1286.85 176.124C1287.72 176.031 1288.57 176.368 1289.41 177.182C1288.67 177.45 1288.13 177.701 1287.56 177.835C1285.72 178.27 1283.92 178.865 1282.43 180.03C1280.81 181.3 1279.07 181.304 1277.26 180.821C1275.05 180.232 1272.81 180.076 1270.54 180.141C1269.98 180.159 1269.38 180.077 1268.86 179.883C1267.47 179.361 1266.12 178.749 1264.75 178.171C1263.86 177.793 1263.21 178.008 1262.88 178.921C1262.65 179.573 1262.47 180.279 1262.44 180.967C1262.31 183.308 1262.62 185.478 1264.85 186.903C1265.84 187.539 1266.61 188.423 1267.07 189.557C1267.23 189.955 1267.56 190.282 1267.81 190.645C1268.34 191.413 1269.03 192.123 1269.35 192.973C1269.78 194.095 1269.94 195.321 1270.15 196.512C1270.19 196.734 1269.96 197.003 1269.85 197.251C1269.62 197.103 1269.33 197.002 1269.18 196.796C1268.84 196.308 1268.53 195.787 1268.27 195.251C1267.44 193.522 1266.12 192.333 1264.31 191.713C1263.35 191.383 1262.38 191.087 1261.39 190.846C1259.47 190.379 1257.9 189.404 1256.7 187.833C1256.22 187.212 1255.8 186.551 1255.28 185.969C1254.78 185.4 1254.24 184.817 1253.61 184.398C1251.67 183.108 1250.47 180.039 1251.19 178.034C1251.33 177.629 1251.81 177.135 1251.25 176.808C1251.09 176.713 1250.5 177.187 1250.21 177.501C1249.29 178.51 1248.77 178.653 1247.55 178.049C1247.23 177.889 1246.89 177.707 1246.64 177.456C1245.83 176.641 1244.86 176.382 1243.73 176.375C1242.17 176.36 1240.64 176.123 1239.25 175.271C1238.5 174.816 1237.65 174.53 1236.85 174.162C1235.93 173.74 1234.99 173.367 1234.12 172.864C1233.73 172.638 1233.48 172.15 1233.17 171.783C1233.23 171.719 1233.28 171.653 1233.33 171.588C1233.74 171.592 1234.15 171.555 1234.56 171.601C1235.66 171.729 1236.43 171.271 1236.91 170.312C1237.32 169.5 1237.68 168.666 1238.03 167.826C1238.43 166.867 1238.77 165.879 1239.18 164.928C1239.7 163.748 1240.65 163.244 1241.92 163.234C1242.67 163.228 1243.43 163.18 1244.17 163.047C1244.52 162.984 1244.83 162.677 1245.15 162.48C1245.14 162.389 1245.13 162.298 1245.11 162.207C1244.67 162.025 1244.24 161.79 1243.78 161.67C1243 161.464 1242.2 161.325 1241.41 161.167C1238.03 160.481 1235.42 158.742 1234.1 155.476C1233.27 153.4 1232.08 151.559 1230.91 149.686C1230.06 148.321 1229.36 146.837 1229.81 145.187C1230.55 142.494 1231.05 139.772 1231.36 136.997C1231.57 135.213 1232.49 133.823 1234.14 133.007C1234.67 132.772 1235.37 132.253 1235.76 132.875Z" fill="white"/>
<path d="M1247.11 179.411C1248.54 181.152 1249.26 183.194 1249.26 185.455C1249.26 185.961 1249.14 186.498 1248.95 186.966C1246.92 191.896 1243.35 195.138 1238.23 196.635C1233.9 197.906 1230.26 195.884 1229.21 191.64C1228.52 188.887 1229.25 186.452 1231.01 184.281C1232.93 181.912 1235.55 180.524 1238.19 179.14C1239.24 178.766 1240.28 178.331 1241.34 178.023C1243.51 177.413 1245.55 177.531 1247.11 179.411Z" fill="white"/>
<path d="M1204.32 184.637C1202.99 180.367 1203.17 176.243 1206.49 172.787C1208.45 170.738 1210.65 168.959 1213.08 167.474C1214.71 166.477 1216.27 166.494 1217.81 167.577C1219.47 168.736 1220.51 170.241 1220.26 172.374C1220.03 174.33 1219.78 176.283 1219.53 178.237C1219.31 179.988 1218.72 181.516 1217.02 182.371C1216.7 182.532 1216.42 182.781 1216.11 182.984C1214.18 184.285 1212.24 185.583 1210.9 186.481C1207.6 187.92 1205.1 187.143 1204.32 184.637Z" fill="white"/>
<path d="M1226.08 183.804C1226.94 183.96 1227.63 184.331 1227.87 185.103C1228.11 185.887 1228.17 186.773 1228.1 187.601C1227.99 189.148 1227.66 190.68 1227.54 192.226C1227.44 193.612 1226.87 194.629 1225.75 195.421C1224.62 196.215 1223.55 197.089 1222.44 197.898C1221.83 198.339 1221.18 198.713 1220.71 199.016C1217.65 200.132 1214.83 200.276 1212.26 198.383C1209.4 196.27 1208.82 191.301 1211.22 188.473C1212.75 186.665 1214.55 185.048 1216.42 183.58C1218.17 182.202 1220.22 181.96 1222.39 182.849C1223.56 183.316 1224.83 183.576 1226.08 183.804Z" fill="white"/>
<path d="M1236.07 175.209C1236.57 175.352 1237.09 175.419 1237.59 175.558C1238.24 175.741 1238.54 176.243 1238.23 176.811C1237.87 177.449 1237.4 178.074 1236.83 178.522C1235.45 179.624 1234 180.624 1232.56 181.657C1232.16 181.944 1231.75 182.235 1231.32 182.454C1228.52 183.842 1225.79 183.294 1223.16 182.009C1221.72 181.304 1220.99 179.936 1220.67 178.398C1219.64 173.379 1222.14 168.669 1226.86 166.675C1229.24 165.672 1231.78 165.163 1233.92 165.357C1234.61 165.42 1235.3 165.603 1235.95 165.841C1236.49 166.041 1236.86 166.503 1236.74 167.131C1236.52 168.304 1236.09 169.39 1235.15 170.18C1234.52 170.702 1233.82 170.973 1232.98 170.753C1232.65 170.67 1232.28 170.741 1231.94 170.745C1231.97 171.139 1231.88 171.586 1232.04 171.921C1232.85 173.65 1234.26 174.69 1236.07 175.209Z" fill="white"/>
<path d="M1232.66 155.649C1232.67 155.674 1232.68 155.696 1232.7 155.721C1233.3 157.229 1234.26 158.467 1235.49 159.512C1235.9 159.864 1236.32 160.232 1236.66 160.652C1237.88 162.15 1237.44 163.457 1235.57 163.88C1235.12 163.981 1234.64 163.988 1234.18 164.054C1233.38 164.169 1232.57 164.224 1231.8 164.43C1230.64 164.737 1229.52 165.152 1228.38 165.518C1226.38 166.161 1224.39 166.861 1222.36 167.42C1221.2 167.742 1220.01 167.561 1219.03 166.77C1217.39 165.447 1215.98 163.12 1217.22 160.635C1217.46 160.147 1217.63 159.623 1217.83 159.115C1218.9 156.374 1220.79 154.447 1223.49 153.257C1224.49 152.976 1225.48 152.629 1226.49 152.424C1229.75 151.769 1231.34 152.618 1232.66 155.649Z" fill="white"/>
<path d="M1220.74 202.223C1221.46 200.72 1222.38 199.256 1223.47 197.994C1225.45 195.688 1227.78 195.279 1230.59 196.46C1231.36 196.783 1232.11 197.136 1232.88 197.459C1234.14 197.992 1235.42 198.154 1236.76 197.732C1237.55 197.484 1238.37 197.288 1239.19 197.187C1241 196.97 1242.15 198.169 1241.89 199.975C1241.72 201.234 1241.16 202.358 1240.15 203.105C1238.58 204.276 1236.9 205.316 1235.27 206.406C1233.33 206.865 1231.48 207.409 1229.59 207.725C1227.34 208.103 1225.07 208.096 1222.89 207.27C1220.52 206.378 1219.64 204.491 1220.74 202.223Z" fill="white"/>
<path d="M1254.5 186.569C1255.12 187.497 1255.77 188.409 1256.45 189.295C1257.31 190.425 1257.9 191.68 1257.86 193.097C1257.76 196.328 1256.19 198.938 1253.89 201.021C1252.68 202.111 1251.05 202.729 1249.74 203.487C1249.01 203.721 1248.45 203.919 1247.88 204.076C1247.5 204.181 1247.12 204.251 1246.73 204.29C1245.09 204.458 1243.57 203.372 1243.19 201.762C1242.56 199.025 1243.17 196.5 1244.87 194.351C1246.82 191.877 1248.72 189.398 1250.25 186.625C1251.24 184.817 1253.36 184.855 1254.5 186.569Z" fill="white"/>
<path d="M1213.19 218.252C1212.36 217.935 1211.54 217.301 1210.99 216.596C1209.68 214.898 1209.54 213.358 1211.43 212.039C1213.21 210.791 1215.09 209.683 1216.93 208.512C1216.96 208.565 1216.99 208.621 1217.03 208.673C1217.36 208.53 1217.7 208.392 1218.03 208.241C1219.39 207.625 1220.67 207.684 1222.07 208.309C1223.18 208.8 1224.46 208.929 1225.69 209.074C1226.42 209.158 1227.18 208.963 1227.93 208.895C1229.42 208.763 1230.38 209.681 1230.23 211.171C1230.17 211.73 1229.98 212.285 1229.77 212.812C1228.53 215.901 1226.06 217.771 1223.06 218.662C1219.81 219.626 1216.42 219.475 1213.19 218.252Z" fill="white"/>
<path d="M1203.07 208.57C1201.48 207.168 1201.17 205.086 1202.17 203.241C1202.82 202.027 1203.82 201.191 1205.06 200.627C1206.22 200.107 1207.37 199.574 1208.52 199.032C1209.22 198.7 1209.95 198.395 1210.68 198.817C1212.69 199.986 1214.92 200.474 1217.15 201.023C1217.65 201.147 1218.18 201.553 1218.48 201.977C1219.44 203.298 1219.27 205.25 1218.18 206.63C1217 208.114 1215.43 209.067 1213.57 209.902C1213.27 210.013 1212.81 210.21 1212.34 210.349C1208.94 211.361 1205.79 210.977 1203.07 208.57Z" fill="white"/>
<path d="M1217.04 158.125C1216.33 160.615 1215.63 163.192 1213.77 165.119C1211.92 167.039 1209.91 168.811 1207.92 170.589C1207.19 171.243 1206.36 171.813 1205.5 172.284C1204.32 172.928 1203.35 172.478 1203.1 171.165C1202.92 170.259 1202.87 169.299 1202.95 168.382C1203.24 165.238 1204.35 162.369 1206.15 159.779C1207.52 157.806 1209.24 156.213 1211.43 155.065C1212.34 154.903 1213.25 154.623 1214.17 154.601C1216.3 154.551 1217.62 156.084 1217.04 158.125Z" fill="white"/>
<path d="M1193.83 189.762C1193.2 188.995 1192.66 188.085 1192.34 187.155C1191.36 184.357 1192.03 181.786 1193.68 179.414C1194.42 178.348 1195.13 177.262 1195.9 176.215C1196.99 174.74 1198.52 174.11 1200.3 174.155C1201.82 174.19 1202.75 175.145 1202.85 176.671C1202.89 177.419 1202.83 178.176 1202.78 178.924C1202.61 181.071 1202.46 183.224 1202.21 185.359C1202.12 186.083 1201.84 186.83 1201.47 187.461C1200.61 188.906 1199.35 189.942 1198.28 190.433C1196.04 191.409 1195.06 191.258 1193.83 189.762Z" fill="white"/>
<path d="M1196.72 194.186C1198.01 191.563 1200.09 189.63 1202.53 188.138C1204.69 186.811 1207.44 188.017 1207.99 190.502C1208.39 192.367 1208.49 194.302 1208.72 196.202C1208.85 197.27 1208.45 198.153 1207.53 198.642C1205.47 199.737 1203.42 200.883 1201.26 201.733C1198.97 202.628 1197.52 201.829 1196.54 199.554C1195.83 197.913 1195.87 195.914 1196.72 194.186Z" fill="white"/>
<path d="M1232.8 212.386C1231.65 211.155 1231.66 209.67 1232.98 208.642C1234.43 207.519 1236 206.556 1237.25 205.714C1238.86 205.244 1240.1 204.871 1241.35 204.521C1242.22 204.276 1243.04 204.388 1243.81 204.902C1244.9 205.622 1246.11 205.816 1247.4 205.636C1247.86 205.57 1248.33 205.494 1248.79 205.455C1249.45 205.398 1250.04 205.515 1250.37 206.186C1250.7 206.84 1250.55 207.426 1250.07 207.9C1248.77 209.2 1247.54 210.606 1246.09 211.719C1243.54 213.676 1240.62 214.692 1237.34 214.372C1235.62 214.208 1234.02 213.694 1232.8 212.386Z" fill="white"/>
<path d="M1265.56 194.602C1265.86 194.894 1266.16 195.317 1266.22 195.718C1266.46 197.463 1266.42 199.193 1265.61 200.828C1264.36 203.358 1262.18 204.799 1259.34 206.116C1258.74 206.282 1257.76 206.661 1256.74 206.806C1255.94 206.918 1255.04 206.913 1254.29 206.663C1252.48 206.066 1252.12 204.098 1253.5 202.801C1253.68 202.623 1253.88 202.45 1254.08 202.278C1255.43 201.099 1256.55 199.718 1257.18 198.034C1257.73 196.554 1258.13 195.016 1258.54 193.488C1258.97 191.888 1259.75 191.416 1261.3 191.941C1262.92 192.49 1264.33 193.411 1265.56 194.602Z" fill="white"/>
<path d="M1247.01 216.464C1246.38 216.068 1245.83 215.439 1245.43 214.803C1244.9 213.964 1245.16 213.165 1245.96 212.552C1247.03 211.729 1248.06 210.844 1249.19 210.112C1250.21 209.452 1251.27 208.733 1252.41 208.441C1254.72 207.854 1257.09 207.49 1259.45 207.135C1260.69 206.95 1261.38 207.735 1261.13 209.099C1260.48 212.678 1258.64 215.427 1255.57 216.983C1252.44 218.201 1249.64 218.12 1247.01 216.464Z" fill="white"/>
<path d="M1255.02 167.09C1254.71 167.964 1254.53 168.012 1253.7 167.597C1252.17 166.836 1251.26 165.535 1250.6 164.023C1250.55 163.929 1250.51 163.831 1250.47 163.737C1249.71 161.972 1250.02 161.477 1251.91 161.202C1252.87 161.062 1253.85 160.859 1254.76 160.506C1258.63 159.001 1262.08 156.787 1265.18 154.043C1268.47 151.134 1271.28 147.869 1272.54 143.522C1272.59 143.373 1272.66 143.233 1272.74 143.101C1273.15 142.435 1273.85 142.248 1274.65 142.574C1275.4 142.883 1275.69 143.387 1275.51 144.178C1275.44 144.504 1275.32 144.829 1275.18 145.132C1273.85 147.971 1272.16 150.587 1270.13 152.98C1267.23 156.402 1263.67 159.056 1260.01 161.588C1257.92 163.032 1255.93 164.559 1255.02 167.09Z" fill="white"/>
<path d="M1204.37 159.443C1205.01 160.227 1204.54 160.997 1204.14 161.685C1202.66 164.212 1201.86 166.913 1201.9 169.853C1201.92 171.133 1201.28 172.003 1200.16 172.581C1198.94 173.216 1197.74 173.888 1196.53 174.544C1196.52 174.541 1196.52 174.534 1196.52 174.531C1196.38 174.602 1196.24 174.677 1196.11 174.747C1194.63 175.473 1193.68 175.022 1193.41 173.402C1193.3 172.77 1193.25 172.101 1193.32 171.465C1193.78 167.37 1195.46 163.832 1198.32 160.875C1199.27 159.895 1200.38 159.133 1201.74 158.797C1202.74 158.547 1203.68 158.596 1204.37 159.443Z" fill="white"/>
<path d="M1195.72 214.775C1195.15 212.327 1196.28 210.531 1198.79 210.26C1200.18 210.108 1201.66 210.22 1203.03 210.499C1205.96 211.096 1207.87 213.054 1209.04 215.702C1209.85 217.549 1209.06 219.212 1207.16 219.527C1205.46 219.812 1203.67 220.016 1201.98 219.821C1199.46 219.535 1197.14 218.647 1196.09 215.961C1195.96 215.57 1195.81 215.179 1195.72 214.775Z" fill="white"/>
<path d="M1218.3 153.835C1217.61 154.014 1217.04 153.786 1216.56 153.249C1215.51 152.089 1215.39 151.088 1216.04 149.696C1217.08 147.473 1218.97 146.14 1220.98 144.97C1222.29 144.207 1223.67 143.46 1225.12 143.042C1227.02 142.489 1228.48 143.806 1228.47 145.788C1228.46 146.178 1228.47 146.57 1228.52 146.957C1228.83 149.126 1227.85 150.554 1225.96 151.459C1225.59 151.639 1225.2 151.791 1224.82 151.955C1224.83 152.008 1224.85 152.065 1224.86 152.118C1222.68 152.691 1220.49 153.274 1218.3 153.835Z" fill="white"/>
<path d="M1263.25 205.179C1263.53 204.719 1263.89 204.287 1264.28 203.907C1265.85 202.373 1266.86 200.527 1267.38 198.415C1267.75 196.936 1267.89 196.693 1269.01 197.936C1269.27 198.225 1269.89 198.459 1270.22 198.344C1270.53 198.236 1270.84 197.656 1270.87 197.263C1270.99 195.587 1270.86 193.911 1270 192.424C1268.89 190.52 1267.71 188.662 1266.53 186.802C1266.17 186.234 1266.24 185.872 1266.9 185.74C1267.3 185.661 1267.73 185.646 1268.14 185.7C1270.62 186.024 1272.37 187.304 1273.08 189.254C1274.13 191.81 1274.38 194.014 1273.94 196.257C1272.96 201.236 1269.78 204.43 1265.34 206.536C1265 206.697 1264.6 206.772 1264.21 206.784C1263.21 206.826 1262.73 206.043 1263.25 205.179Z" fill="white"/>
<path d="M1193.92 209.995C1192.03 208.978 1190.82 207.365 1190.06 205.793C1188.61 202.412 1189.12 200.417 1191.61 198.868C1193.32 197.802 1194.48 198.082 1195.47 199.832C1196.09 200.931 1196.73 202.018 1197.93 202.553C1199.58 203.285 1200.18 204.717 1200.53 206.299C1200.78 207.387 1200.41 208.314 1199.46 208.932C1198.78 209.371 1198.09 209.776 1197.37 210.124C1196.21 210.678 1195.05 210.601 1193.92 209.995Z" fill="white"/>
<path d="M1217.12 145.775C1217.44 146.275 1216.96 146.723 1216.57 147.091C1215.55 148.069 1214.86 149.217 1214.61 150.635C1214.34 152.112 1213.45 153.156 1212.11 153.834C1211.19 154.304 1210.2 154.694 1209.36 155.285C1208.37 155.977 1207.49 156.842 1206.58 157.642C1205.55 158.544 1204.71 158.387 1204.1 157.162C1203.67 156.309 1203.6 155.43 1203.9 154.519C1205.25 150.357 1207.97 147.413 1211.41 145.786C1213.14 145.046 1214.4 144.531 1215.75 144.8C1216.26 144.903 1216.82 145.33 1217.12 145.775Z" fill="white"/>
<path d="M1229.1 220.288C1227.26 220.038 1226.67 218.375 1227.78 216.878C1228.43 216.001 1229.34 215.295 1230.19 214.592C1231.3 213.679 1232.47 213.511 1233.88 214.113C1236.03 215.037 1238.3 215.493 1240.66 214.877C1240.88 214.821 1241.12 214.841 1241.36 214.863C1242.31 214.955 1242.81 215.615 1242.57 216.546C1242.47 216.915 1242.29 217.274 1242.07 217.595C1241.32 218.712 1240.2 219.374 1238.98 219.839C1235.75 221.502 1232.39 220.733 1229.1 220.288Z" fill="white"/>
<path d="M1187.45 187.67C1188.31 185.9 1189.98 185.707 1191.16 187.29C1192.37 188.933 1193.4 190.718 1194.38 192.241C1195.39 194.466 1195.11 195.684 1193.32 196.992C1192.62 197.509 1191.83 197.935 1191.03 198.29C1189.02 199.184 1188.08 198.876 1186.96 196.988C1186.68 196.504 1186.44 195.955 1186.34 195.404C1185.86 192.713 1186.26 190.114 1187.45 187.67Z" fill="white"/>
<path d="M1207.55 220.361C1209.78 219.583 1211.97 219.089 1214.28 219.468C1215.09 219.601 1215.93 219.726 1216.75 219.737C1218.83 219.764 1220.91 219.731 1222.98 219.699C1223.54 219.688 1224.02 219.766 1224.29 220.322C1224.58 220.907 1224.35 221.401 1223.94 221.806C1223.64 222.117 1223.29 222.409 1222.91 222.625C1220.01 224.273 1216.93 225.287 1213.54 225.062C1211.16 224.901 1208.9 224.381 1207.15 222.605C1206.14 221.574 1206.29 220.873 1207.55 220.361Z" fill="white"/>
<path d="M1192.47 173.798C1193.29 177.106 1192.6 180.135 1190.77 182.948C1190 184.117 1189.05 185.095 1187.98 185.642C1186.08 186.503 1184.85 185.814 1184.61 183.956C1184.58 183.674 1184.56 183.384 1184.57 183.101C1184.81 178.783 1186.83 175.438 1190.26 172.912C1191.36 172.096 1192.14 172.453 1192.47 173.798Z" fill="white"/>
<path d="M1185.93 197.097C1186.19 197.634 1186.5 198.147 1186.77 198.676C1187.24 199.621 1187.88 200.532 1188.13 201.535C1188.43 202.753 1188.4 204.054 1188.5 205.322C1188.58 206.501 1187.97 207.309 1186.79 207.559C1185.73 207.781 1184.81 207.447 1184.13 206.629C1183.72 206.138 1183.44 205.537 1183.11 204.984C1182.34 203.273 1182.34 201.472 1182.45 199.682C1182.5 198.98 1182.76 198.242 1183.11 197.625C1183.38 197.141 1183.88 196.703 1184.38 196.446C1185.08 196.084 1185.59 196.377 1185.93 197.097Z" fill="white"/>
<path d="M1228.64 137.81C1229.67 137.949 1230.26 138.622 1230.18 139.446C1230.04 140.924 1229.22 141.829 1227.73 142.031C1226.37 142.214 1224.96 142.173 1223.64 142.51C1222.43 142.82 1221.31 143.482 1220.17 144.026C1219.43 144.381 1218.56 144.803 1217.91 144.284C1217.24 143.748 1217.68 142.871 1218.01 142.196C1218.88 140.387 1220.41 139.311 1222.18 138.545C1222.55 138.422 1222.89 138.292 1223.24 138.191C1225.01 137.681 1226.82 137.562 1228.64 137.81Z" fill="white"/>
<path d="M1190.57 209.298C1191.28 209.729 1191.96 210.203 1192.67 210.632C1193.93 211.393 1194.64 212.457 1194.79 213.964C1194.88 214.854 1195.21 215.719 1195.43 216.597C1195.46 216.591 1195.49 216.582 1195.52 216.576C1195.63 216.785 1195.74 216.991 1195.84 217.202C1196.3 218.175 1195.88 218.92 1194.79 218.938C1194.28 218.946 1193.74 218.843 1193.27 218.653C1189.85 217.263 1188.37 214.426 1187.77 211.01C1187.63 210.202 1188.07 209.474 1188.76 209.014C1189.4 208.584 1190.01 208.961 1190.57 209.298Z" fill="white"/>
<path d="M1236.22 223.107C1235.99 222.794 1235.77 222.464 1235.54 222.142C1235.85 221.956 1236.14 221.708 1236.48 221.597C1237.71 221.199 1239.02 220.985 1240.17 220.431C1241.14 219.96 1242.13 219.266 1242.75 218.407C1243.79 216.969 1244.22 216.32 1246.39 217.61C1246.67 217.78 1246.97 217.961 1247.22 218.175C1247.92 218.76 1248.04 219.272 1247.67 220.105C1247.01 221.587 1245.82 222.507 1243.92 223.363C1241.76 224.126 1239.13 223.83 1236.5 223.245C1236.4 223.221 1236.28 223.18 1236.22 223.107Z" fill="white"/>
<path d="M1244.52 145.274C1244.59 145.662 1244.83 146.39 1244.85 147.131C1244.86 147.621 1244.57 148.122 1244.42 148.617C1243.94 148.427 1243.33 148.366 1243.01 148.027C1241.73 146.684 1240.12 145.859 1238.54 144.954C1237.63 144.427 1236.72 143.839 1235.95 143.133C1235.18 142.441 1235.46 141.652 1236.48 141.602C1237.74 141.537 1239.02 141.594 1240.27 141.737C1242.26 141.961 1243.54 143.192 1244.52 145.274Z" fill="white"/>
<path d="M1231.15 221.666C1231.83 221.773 1232.56 221.943 1233.13 222.304C1233.57 222.587 1234.04 223.209 1234.04 223.687C1234.05 224.143 1233.48 224.608 1233.17 225.072C1233.11 225.037 1233.04 225.002 1232.98 224.968C1232.66 225.059 1232.34 225.178 1232.01 225.234C1229.55 225.65 1227.14 225.386 1224.75 224.765C1223.84 224.527 1223.52 223.844 1224.02 223.199C1224.93 222.031 1225.95 221.015 1227.67 221.294C1228.82 221.482 1230 221.488 1231.15 221.666Z" fill="white"/>
<path d="M1264.12 183.933C1263.62 182.942 1263.56 181.877 1263.85 180.82C1264.09 179.924 1264.51 179.852 1265.38 180.2C1266.47 180.642 1267.62 180.957 1268.76 181.283C1269.15 181.395 1269.59 181.335 1270 181.423C1270.67 181.571 1270.95 182.12 1270.54 182.639C1269.99 183.342 1269.32 183.95 1268.81 184.483C1268.3 184.572 1268.02 184.674 1267.75 184.663C1266.76 184.627 1265.78 184.586 1264.8 184.469C1264.55 184.436 1264.24 184.171 1264.12 183.933Z" fill="white"/>
<path d="M1185.63 187.825C1185.73 188.273 1185.79 188.761 1185.74 189.214C1185.6 190.348 1185.42 191.48 1185.18 192.596C1185 193.477 1184.47 194.137 1183.63 194.53C1183 194.823 1182.58 194.68 1182.33 194.013C1181.81 192.141 1181.74 190.269 1182.65 188.485C1182.91 187.974 1183.37 187.523 1183.83 187.169C1184.76 186.472 1185.37 186.712 1185.63 187.825Z" fill="white"/>
<path d="M1202.48 220.721C1202.89 220.799 1203.3 220.843 1203.7 220.964C1204.86 221.313 1205.46 221.846 1205.4 222.43C1205.33 223.022 1204.48 223.696 1203.49 223.816C1201.45 224.055 1199.7 223.394 1198.24 221.959C1198.08 221.798 1197.98 221.576 1197.74 221.22C1197.79 220.956 1197.75 220.459 1197.98 220.223C1198.18 220.015 1198.69 220.017 1199.04 220.074C1200.19 220.25 1201.33 220.498 1202.48 220.721Z" fill="white"/>
</g>
</svg>
