<svg width="26" height="26" viewBox="0 0 26 26" fill="none" xmlns="http://www.w3.org/2000/svg">
<path d="M16.3156 10.6316C16.5556 10.6316 16.7501 10.4369 16.7501 10.1966C16.7501 9.95644 16.5556 9.7617 16.3156 9.7617C16.0757 9.7617 15.8811 9.95644 15.8811 10.1966C15.8811 10.4369 16.0757 10.6316 16.3156 10.6316Z" fill="#D61942"/>
<path d="M25.8389 14.9548C25.3799 12.8802 23.5851 11.2749 21.5712 11.1376C20.1401 11.0402 18.9175 11.7175 18.1739 12.9813C17.3768 11.7469 16.0203 10.953 14.5305 11.0946C13.3678 11.2047 12.3006 11.8272 11.5533 12.7555V7.97924H15.9419V8.77739C15.9419 8.96794 16.0964 9.12243 16.2869 9.12243H16.3447C16.5353 9.12243 16.6897 8.96794 16.6897 8.77739V7.97924H17.4204C17.6269 7.97924 17.7943 7.81182 17.7943 7.6053V4.41148C17.7943 4.20496 17.6269 4.03754 17.4204 4.03754H13.7431C14.4852 3.30024 14.5866 2.10134 13.9785 1.24972C13.2773 0.267751 11.8931 0.0276285 10.8928 0.714449C10.3033 1.11921 9.73974 2.3655 9.38835 3.28112C9.0369 2.36545 8.47337 1.11921 7.88383 0.714449C6.88343 0.0274683 5.49932 0.267751 4.79813 1.24966C4.19 2.10128 4.29166 3.30045 5.0335 4.03749H1.33219C1.12567 4.03749 0.958252 4.20491 0.958252 4.41143V7.60514C0.958252 7.81166 1.12567 7.97908 1.33219 7.97908H2.06282V16.5084C2.06282 16.715 2.23023 16.8824 2.43676 16.8824H10.5484C10.6816 17.6902 10.996 18.6174 11.613 19.6366C12.8044 21.605 14.866 23.4969 17.7403 25.2601C17.8827 25.3407 18.0259 25.344 18.17 25.2702C21.2183 23.5908 23.413 21.7643 24.6927 19.8417C26.0744 17.766 26.0786 16.0384 25.8389 14.9548ZM11.3161 1.33102C11.9826 0.87348 12.904 1.03187 13.3699 1.68439C13.8273 2.32506 13.6555 3.23496 13.0095 3.67861C12.6957 3.89406 11.8846 3.99903 11.044 4.03754H9.90668C10.2714 3.00082 10.8618 1.64299 11.3161 1.33102ZM5.40669 1.68434C5.86925 1.03657 6.80635 0.881813 7.46047 1.33097C7.91481 1.64294 8.50515 3.00072 8.86991 4.03749H7.73377C6.89305 3.99903 6.08133 3.89427 5.76717 3.67856C5.12132 3.23507 4.94915 2.32522 5.40669 1.68434ZM1.70613 7.23125V4.78542H17.0465V7.23125H1.70613ZM7.19925 16.1345H2.8107V7.97913H7.19925V16.1345ZM10.8055 14.0532C10.5498 14.7141 10.4448 15.4276 10.4719 16.1345H7.94713V7.97913H10.8055V14.0532ZM17.9754 24.4005C15.3293 22.7477 13.4353 20.9968 12.3441 19.1941C12.2764 19.0823 12.2124 18.9704 12.1514 18.8587H17.3735L16.2623 20.4666C15.9502 20.9183 16.6505 21.4084 16.9654 20.9525L18.2093 19.1525L19.4258 20.9492C19.7369 21.4085 20.4413 20.9243 20.1336 20.4699L19.0425 18.8586H24.2926C23.3892 20.4678 21.5546 22.393 17.9754 24.4005ZM15.5118 16.7019C15.5118 15.8326 16.6061 15.3929 17.2181 16.0016C17.4444 16.2267 17.6441 17.0899 17.7398 17.9215C16.9716 17.8332 16.049 17.6462 15.8036 17.4021C15.6155 17.215 15.5118 16.9663 15.5118 16.7019ZM18.6859 17.9223C18.7815 17.0904 18.9812 16.2268 19.2076 16.0016C19.5975 15.6137 20.2322 15.6136 20.6221 16.0016C21.0059 16.3834 21.0059 17.0204 20.6221 17.4021C20.3951 17.6281 19.524 17.8272 18.6859 17.9223ZM24.7021 18.004H21.2289C21.9403 17.292 21.939 16.106 21.2249 15.3956C20.5026 14.6771 19.3273 14.6771 18.6048 15.3956C18.446 15.5536 18.3172 15.7928 18.2128 16.0688C18.1085 15.7928 17.9797 15.5536 17.8208 15.3956C17.0984 14.6771 15.9232 14.6771 15.2008 15.3956C14.4872 16.1054 14.4849 17.2914 15.1968 18.004H11.7482C11.3201 16.9242 11.2109 15.8698 11.435 14.9036C11.7672 13.4711 12.923 12.209 14.4079 11.9715C15.9615 11.723 17.2048 12.7386 17.8079 14.1011C17.9609 14.4469 18.4681 14.4319 18.5995 14.0762C19.1226 12.6601 20.1848 11.9003 21.513 11.9904C22.923 12.0865 24.5749 13.199 25.0042 15.1394C25.1367 15.7375 25.2024 16.7406 24.7021 18.004Z" fill="#D61942"/>
<path d="M5.48207 21.1381C5.27555 21.1381 5.10813 20.9707 5.10813 20.7642V20.2855C5.10813 20.079 5.27555 19.9116 5.48207 19.9116C5.68859 19.9116 5.85601 20.079 5.85601 20.2855V20.7642C5.85601 20.9707 5.68859 21.1381 5.48207 21.1381Z" fill="#D61942"/>
<path d="M5.48207 23.8281C5.27555 23.8281 5.10813 23.6607 5.10813 23.4541V22.9755C5.10813 22.769 5.27555 22.6016 5.48207 22.6016C5.68859 22.6016 5.85601 22.769 5.85601 22.9755V23.4541C5.85601 23.6607 5.68859 23.8281 5.48207 23.8281Z" fill="#D61942"/>
<path d="M7.068 22.2438H6.58882C6.3823 22.2438 6.21488 22.0763 6.21488 21.8698C6.21488 21.6633 6.3823 21.4959 6.58882 21.4959H7.068C7.27452 21.4959 7.44194 21.6633 7.44194 21.8698C7.44194 22.0763 7.27452 22.2438 7.068 22.2438Z" fill="#D61942"/>
<path d="M4.37526 22.2438H3.89608C3.68956 22.2438 3.52214 22.0763 3.52214 21.8698C3.52214 21.6633 3.68956 21.4959 3.89608 21.4959H4.37526C4.58178 21.4959 4.7492 21.6633 4.7492 21.8698C4.7492 22.0763 4.58178 22.2438 4.37526 22.2438Z" fill="#D61942"/>
<path d="M22.5396 6.21478C22.3331 6.21478 22.1657 6.04736 22.1657 5.84084V5.3622C22.1657 5.15568 22.3331 4.98826 22.5396 4.98826C22.7462 4.98826 22.9136 5.15568 22.9136 5.3622V5.84084C22.9136 6.04736 22.7462 6.21478 22.5396 6.21478Z" fill="#D61942"/>
<path d="M22.5396 8.90474C22.3331 8.90474 22.1657 8.73732 22.1657 8.5308V8.05216C22.1657 7.84564 22.3331 7.67822 22.5396 7.67822C22.7462 7.67822 22.9136 7.84564 22.9136 8.05216V8.5308C22.9136 8.73732 22.7462 8.90474 22.5396 8.90474Z" fill="#D61942"/>
<path d="M24.1256 7.32041H23.6465C23.4399 7.32041 23.2725 7.15299 23.2725 6.94647C23.2725 6.73995 23.4399 6.57253 23.6465 6.57253H24.1256C24.3321 6.57253 24.4996 6.73995 24.4996 6.94647C24.4996 7.15305 24.3321 7.32041 24.1256 7.32041Z" fill="#D61942"/>
<path d="M21.4328 7.32041H20.9537C20.7471 7.32041 20.5797 7.15299 20.5797 6.94647C20.5797 6.73995 20.7471 6.57253 20.9537 6.57253H21.4328C21.6394 6.57253 21.8068 6.73995 21.8068 6.94647C21.8068 7.15305 21.6394 7.32041 21.4328 7.32041Z" fill="#D61942"/>
</svg>
