<svg width="54" height="80" viewBox="0 0 54 80" fill="none" xmlns="http://www.w3.org/2000/svg">
<path d="M1.16215 27.4237C1.16215 54.716 26.8906 78.3187 26.8906 78.3187C26.8906 78.3187 52.619 54.716 52.619 27.4237C52.619 20.6001 49.9084 14.0559 45.0833 9.23091C40.2583 4.4059 33.7142 1.69523 26.8906 1.69523C20.067 1.69523 13.5229 4.4059 8.69783 9.23091C3.87282 14.0559 1.16215 20.6001 1.16215 27.4237Z" fill="#E62751"/>
<path d="M26.8906 45.7525C37.0133 45.7525 45.2194 37.5464 45.2194 27.4237C45.2194 17.301 37.0133 9.09488 26.8906 9.09488C16.7679 9.09488 8.5618 17.301 8.5618 27.4237C8.5618 37.5464 16.7679 45.7525 26.8906 45.7525Z" fill="#DFF6FD"/>
<path d="M26.8906 15.4805L15.0344 25.561H19.1038V37.2677H24.2396V29.9757H29.5415V37.2677H34.6774V25.561H38.7468L26.8906 15.4805Z" fill="white"/>
<path d="M26.8906 46.9132C23.0356 46.9132 19.2672 45.7701 16.062 43.6284C12.8567 41.4867 10.3585 38.4426 8.88328 34.881C7.40808 31.3195 7.02213 27.4005 7.77425 23.6196C8.52636 19.8387 10.3828 16.3658 13.1087 13.64C15.8346 10.9141 19.3076 9.05785 23.0885 8.30587C26.8694 7.55388 30.7884 7.93996 34.3499 9.41529C37.9114 10.8906 40.9554 13.3889 43.097 16.5943C45.2386 19.7996 46.3816 23.568 46.3815 27.423C46.3755 32.5904 44.3201 37.5445 40.6661 41.1983C37.0121 44.8522 32.058 46.9074 26.8906 46.9132ZM26.8906 10.257C23.4954 10.257 20.1764 11.2638 17.3534 13.15C14.5303 15.0363 12.33 17.7173 11.0307 20.8541C9.73138 23.9909 9.39138 27.4425 10.0537 30.7725C10.716 34.1025 12.3509 37.1613 14.7517 39.5621C17.1524 41.9629 20.2112 43.5979 23.5411 44.2604C26.8711 44.9229 30.3227 44.583 33.4595 43.2838C36.5963 41.9846 39.2775 39.7844 41.1638 36.9614C43.0502 34.1385 44.0571 30.8195 44.0573 27.4243C44.0522 22.8729 42.2419 18.5094 39.0237 15.291C35.8054 12.0727 31.442 10.2623 26.8906 10.257Z" fill="black"/>
<path d="M43.6004 58.2249C43.3959 58.2248 43.195 58.1707 43.018 58.0681C42.841 57.9655 42.6943 57.8181 42.5925 57.6407C42.4907 57.4633 42.4375 57.2621 42.4383 57.0576C42.4391 56.8531 42.4938 56.6524 42.597 56.4757C43.099 55.6125 43.5851 54.7459 44.042 53.8932C44.1127 53.7561 44.2099 53.6345 44.328 53.5354C44.4462 53.4363 44.5828 53.3617 44.7301 53.316C44.8773 53.2702 45.0322 53.2542 45.1857 53.2689C45.3392 53.2836 45.4883 53.3288 45.6241 53.4016C45.76 53.4745 45.8801 53.5737 45.9772 53.6934C46.0744 53.8132 46.1468 53.951 46.1901 54.099C46.2335 54.247 46.2469 54.4021 46.2298 54.5553C46.2126 54.7086 46.165 54.8569 46.09 54.9916C45.6205 55.8681 45.1211 56.7606 44.6064 57.6478C44.5038 57.8235 44.3569 57.9693 44.1804 58.0705C44.0039 58.1718 43.8039 58.225 43.6004 58.2249Z" fill="black"/>
<path d="M26.8906 79.4809C26.5997 79.4813 26.3192 79.3723 26.105 79.1754C21.2472 74.4968 16.8796 69.3347 13.0701 63.7691C7.1075 55.1363 3.9634e-05 41.8245 3.9634e-05 27.427C-0.00581998 24.0215 0.638101 20.6462 1.89727 17.482C2.01174 17.1956 2.23529 16.9664 2.51874 16.8449C2.80218 16.7234 3.1223 16.7194 3.40867 16.8339C3.69504 16.9483 3.92421 17.1719 4.04576 17.4553C4.1673 17.7388 4.17128 18.0589 4.0568 18.3453C2.90711 21.235 2.31909 24.3176 2.32426 27.4276C2.32426 51.2117 22.614 72.4889 26.8946 76.7104C31.4749 72.1377 35.6117 67.1413 39.2495 61.7882C39.4225 61.5329 39.6899 61.3567 39.9928 61.2985C40.2958 61.2402 40.6094 61.3047 40.8648 61.4778C41.1202 61.6508 41.2963 61.9182 41.3546 62.2212C41.4128 62.5241 41.3483 62.8377 41.1752 63.0931C37.2562 68.9152 32.7319 74.3062 27.6782 79.176C27.4635 79.3734 27.1822 79.4823 26.8906 79.4809Z" fill="black"/>
<path d="M47.7933 49.9859C47.6004 49.9862 47.4105 49.9384 47.2407 49.8469C47.0709 49.7554 46.9266 49.623 46.8208 49.4617C46.715 49.3004 46.6511 49.1153 46.6348 48.9231C46.6185 48.7309 46.6503 48.5377 46.7275 48.3609C49.8658 41.1352 51.4569 34.0915 51.4569 27.4243C51.455 22.2116 49.7953 17.1346 46.7178 12.9273C43.6402 8.71999 39.3043 5.6005 34.337 4.01985C29.3698 2.4392 24.0285 2.4793 19.0855 4.13436C14.1424 5.78941 9.8539 8.97365 6.83988 13.2267C6.6585 13.4703 6.38902 13.6332 6.08906 13.6807C5.78909 13.7282 5.48245 13.6564 5.23471 13.4808C4.98696 13.3051 4.81778 13.0395 4.76332 12.7407C4.70887 12.4419 4.77348 12.1337 4.94332 11.8819C8.2425 7.22639 12.9369 3.74078 18.3477 1.92913C23.7585 0.11749 29.6053 0.0737023 35.0426 1.8041C40.4799 3.53451 45.226 6.94941 48.5945 11.555C51.9631 16.1607 53.7795 21.7183 53.7811 27.4243C53.7811 34.4116 52.1256 41.7681 48.8598 49.2873C48.7694 49.4949 48.6203 49.6716 48.4308 49.7958C48.2413 49.9199 48.0198 49.9859 47.7933 49.9859Z" fill="black"/>
<path d="M34.678 38.4298H29.5415C29.3889 38.4299 29.2377 38.3999 29.0967 38.3416C28.9557 38.2832 28.8275 38.1976 28.7196 38.0897C28.6117 37.9817 28.5261 37.8536 28.4677 37.7126C28.4093 37.5715 28.3793 37.4204 28.3794 37.2677V31.1384H25.4018V37.2677C25.4018 37.4204 25.3718 37.5715 25.3135 37.7126C25.2551 37.8536 25.1695 37.9817 25.0616 38.0897C24.9536 38.1976 24.8255 38.2832 24.6845 38.3416C24.5434 38.3999 24.3923 38.4299 24.2396 38.4298H19.1031C18.7949 38.4298 18.4993 38.3074 18.2814 38.0895C18.0635 37.8715 17.941 37.5759 17.941 37.2677V26.7257H15.0344C14.7966 26.7256 14.5646 26.6526 14.3697 26.5164C14.1747 26.3803 14.0262 26.1877 13.9442 25.9645C13.8622 25.7413 13.8506 25.4983 13.911 25.2684C13.9714 25.0384 14.1009 24.8325 14.282 24.6784L26.1375 14.5946C26.3477 14.4158 26.6146 14.3176 26.8906 14.3176C27.1665 14.3176 27.4335 14.4158 27.6436 14.5946L39.4991 24.6758C39.6813 24.8296 39.8118 25.0358 39.8728 25.2663C39.9338 25.4968 39.9224 25.7405 39.8402 25.9643C39.7579 26.1882 39.6089 26.3813 39.4131 26.5175C39.2174 26.6537 38.9845 26.7264 38.7461 26.7257H35.8402V37.2677C35.8402 37.5759 35.7177 37.8715 35.4998 38.0895C35.2818 38.3074 34.9863 38.4298 34.678 38.4298ZM30.7036 36.1056H33.5159V25.561C33.5158 25.4083 33.5458 25.2572 33.6042 25.1161C33.6626 24.9751 33.7482 24.847 33.8561 24.739C33.964 24.6311 34.0922 24.5455 34.2332 24.4871C34.3743 24.4288 34.5254 24.3988 34.678 24.3989H35.5858L26.8906 17.0052L18.1953 24.4015H19.1031C19.2558 24.4014 19.4069 24.4314 19.5479 24.4898C19.689 24.5482 19.8171 24.6338 19.9251 24.7417C20.033 24.8496 20.1186 24.9778 20.177 25.1188C20.2353 25.2598 20.2653 25.411 20.2652 25.5636V36.1056H23.0775V29.9796C23.0774 29.827 23.1074 29.6759 23.1658 29.5348C23.2242 29.3938 23.3098 29.2656 23.4177 29.1577C23.5256 29.0498 23.6538 28.9642 23.7948 28.9058C23.9359 28.8474 24.087 28.8174 24.2396 28.8175H29.5415C29.6942 28.8174 29.8453 28.8474 29.9863 28.9058C30.1274 28.9642 30.2555 29.0498 30.3635 29.1577C30.4714 29.2656 30.557 29.3938 30.6153 29.5348C30.6737 29.6759 30.7037 29.827 30.7036 29.9796V36.1056Z" fill="black"/>
</svg>
