<svg width="184" height="218" viewBox="0 0 184 218" fill="none" xmlns="http://www.w3.org/2000/svg">
<g opacity="0.5">
<path d="M2.87766 93.4561C4.16144 92.8971 4.63116 94.5006 5.11677 95.4876C6.91498 99.1372 10.2472 101.048 13.8903 100.68C17.4924 100.316 21.0708 98.6708 24.408 97.0698C26.1574 96.2299 27.5498 94.4102 28.7947 92.7994C31.8277 88.8817 35.3689 85.5932 39.4822 82.8321C40.5357 82.1244 41.369 80.9418 42.0271 79.8136C42.8811 78.3439 42.1296 77.1545 40.4271 77.0249C38.4786 76.8705 36.4838 76.9609 34.5762 76.6196C32.6256 76.2758 30.6849 75.6831 28.8595 74.9184C26.971 74.1286 25.2648 72.8955 23.3901 72.0527C20.3155 70.6768 17.9543 68.6362 16.2557 65.6913C15.5649 64.4925 14.509 63.3223 13.3339 62.6206C10.6819 61.0387 7.88784 59.6852 5.08953 58.3681C2.80482 57.2847 0.448991 56.3542 -2.20619 56.7854C-2.6101 56.8526 -3.08058 56.4666 -3.524 56.2842C-3.29275 55.8135 -3.17379 55.1621 -2.78985 54.9173C-2.16204 54.508 -1.36398 54.1299 -0.643939 54.1387C1.59539 54.1721 3.84946 54.2859 6.07053 54.5634C7.89858 54.7926 9.6888 55.609 11.5059 55.6161C14.1467 55.625 16.4242 56.3445 18.677 57.6477C19.9284 58.3709 21.4591 59.0607 22.8438 59.0301C26.807 58.934 30.7522 58.512 34.5044 56.9886C37.0783 55.9462 39.659 54.8247 42.3448 54.1953C46.9295 53.1216 51.5152 53.2718 55.6235 55.9436C58.4335 57.7711 59.3842 60.6302 59.2105 63.8574C59.1307 65.4058 58.3305 65.9322 56.785 65.5771C55.4329 65.2611 54.0577 64.9373 52.7899 64.3874C49.8141 63.0902 46.7647 63.1568 43.6776 63.6558C41.8499 63.9471 40.0546 64.4618 38.2257 64.7745C30.6425 66.0769 23.2492 66.6524 17.1832 60.3391C16.1337 59.2445 14.3208 58.8635 12.8179 58.2506C12.4775 58.1107 11.9642 58.3976 11.5246 58.4886C11.5208 58.6303 11.517 58.7721 11.5131 58.9138C11.9727 59.0777 12.4543 59.1934 12.8917 59.4056C14.0844 59.9899 15.5918 60.3342 16.3812 61.2741C19.6828 65.2268 24.0688 66.6132 28.8917 66.678C33.3043 66.7345 37.7442 66.4247 42.142 65.9856C47.2732 65.4745 52.1063 66.226 56.6891 68.5721C60.315 70.4248 61.0132 72.5855 58.6488 75.9069C57.0843 78.1038 55.0991 80.0208 53.17 81.9367C51.1633 83.9299 48.8961 85.663 46.9346 87.6932C45.1473 89.5354 43.6021 91.6217 41.9593 93.6077C40.9538 94.83 39.8061 95.6054 38.0889 95.318C37.4839 95.2146 36.7118 95.4027 36.1711 95.7181C34.7052 96.5657 33.1697 97.3899 31.9267 98.5148C28.9343 101.232 25.5573 102.401 21.5602 101.775C20.8993 101.672 20.2185 101.73 19.5461 101.715C19.5244 101.869 19.5075 102.014 19.4858 102.168C19.9334 102.314 20.381 102.537 20.8365 102.583C25.4081 103.018 29.6312 102.324 33.3013 99.2257C34.6074 98.1259 36.194 97.0487 37.8163 96.7005C40.713 96.0702 42.6768 94.4897 44.4182 92.2447C45.7628 90.5084 47.2117 88.7156 48.9761 87.4635C53.2667 84.4222 57.4942 81.3557 61.288 77.6752C63.8386 75.1968 67.0954 74.7011 70.5239 75.6435C73.8231 76.5504 76.5033 78.392 78.5227 81.1444C81.2546 84.8646 81.7633 88.9481 80.4496 93.3426C80.125 94.4296 80.0886 95.5933 79.9183 96.73C80.1595 96.7631 80.4089 96.8011 80.6501 96.8342C81.0959 94.3775 81.6061 91.9246 81.9644 89.4565C82.5907 85.1216 81.5204 81.3803 78.3386 78.1549C75.0777 74.8455 75.7027 70.9472 79.6192 68.3943C80.3495 67.9219 81.134 67.442 81.9599 67.2181C88.8733 65.3656 95.7202 63.0597 102.956 62.914C106.644 62.843 110.107 62.0171 113.497 60.7396C115.732 59.9016 117.773 58.7364 119.281 56.7727C120.842 54.7455 122.502 52.797 124.109 50.8068C124.146 50.7616 124.089 50.6293 124.039 50.3403C122.428 51.0441 121.416 52.2682 120.452 53.5918C119.61 54.7418 118.848 56.1866 117.678 56.8274C112.83 59.4992 107.785 61.7317 102.06 61.6862C97.0399 61.6467 92.0685 62.0724 87.1757 63.2295C85.1196 63.7164 83.0872 64.3165 81.0151 64.7444C78.2244 65.3248 75.0301 63.2215 75.0273 60.9005C75.0245 56.9965 79.1166 50.7304 82.7519 49.2949C85.0648 48.3796 86.7253 46.8742 88.1067 44.8324C88.9216 43.6336 90.0051 42.4394 91.2516 41.7428C95.7254 39.2217 98.1741 34.9136 101.117 31.0273C101.408 30.646 101.394 30.0236 101.524 29.517C100.983 29.5721 100.779 29.7261 100.659 29.9343C98.2911 33.9954 95.3298 37.4504 91.2104 39.9035C89.4846 40.9341 88.1163 42.5573 86.5033 43.7965C84.9308 45.0036 83.252 46.0777 81.6118 47.1907C80.4366 47.9946 79.0016 48.5665 78.1226 49.6067C76.635 51.3607 75.4907 53.3946 74.2125 55.324C73.9038 55.7946 73.7189 56.3583 73.3733 56.7967C72.2693 58.2005 71.1405 58.2672 70.3765 56.6943C69.752 55.4283 69.2454 53.7926 69.4994 52.4714C70.4004 47.6963 72.4171 43.5335 77.2458 41.465C81.0535 39.835 84.057 37.2621 86.3768 33.8543C87.6239 32.0177 89.3084 30.731 91.3735 29.8618C93.9582 28.7813 96.498 27.509 98.0778 25.0828C99.5089 22.8868 100.733 20.5499 101.962 18.2327C102.91 16.4349 102.929 14.5583 102.563 12.5327C102.137 10.1789 101.981 7.73741 102.064 5.34391C102.127 3.60313 103.026 2.037 104.861 0.603982C105.177 2.13631 105.519 3.26786 105.621 4.42226C105.958 8.15826 106.622 11.8549 108.488 15.1061C110.525 18.6489 110.047 22.0501 108.59 25.4771C106.814 29.6451 105.882 33.9926 105.372 38.4717C105.249 39.5745 104.921 40.7258 104.394 41.6916C102.98 44.2629 101.402 46.7451 99.8832 49.2673C98.8895 50.9227 99.1298 52.2506 100.829 53.1479C102.045 53.7894 103.38 54.3282 104.719 54.5983C109.277 55.5019 113.622 55.4922 117.043 51.5257C118.57 49.7611 120.52 48.4938 122.874 47.9121C123.699 47.7097 124.434 47.1516 125.215 46.764C126.871 45.9423 128.458 44.7876 130.216 44.3956C132.537 43.8722 134.987 43.9047 137.384 43.818C137.83 43.8026 138.292 44.3387 138.749 44.623C138.394 45.0286 138.113 45.5761 137.668 45.8023C136.616 46.3336 135.508 46.7887 134.382 47.1502C130.756 48.3088 128.053 50.5611 126.328 53.9341C125.413 55.723 124.558 57.5518 123.811 59.4148C122.355 63.0527 120 65.8648 116.581 67.7837C115.23 68.5367 113.814 69.1807 112.526 70.0363C111.268 70.8698 109.974 71.7552 108.976 72.8769C105.9 76.321 99.5424 77.8117 95.8088 75.8475C95.0549 75.4538 94.2198 74.3715 93.4225 75.3756C93.191 75.6635 93.956 76.9547 94.491 77.6047C96.2124 79.6992 96.3454 80.7607 94.8177 82.9899C94.4142 83.5777 93.9617 84.1928 93.4 84.6124C91.5736 85.9727 90.7941 87.7952 90.4636 90.0024C89.9953 93.0773 89.1009 96.0073 87.0398 98.5007C85.9376 99.8336 85.137 101.423 84.1907 102.889C83.1053 104.569 82.1085 106.317 80.8791 107.881C80.3247 108.587 79.2985 108.929 78.4931 109.436C78.3819 109.311 78.266 109.195 78.1548 109.07C78.2758 108.27 78.3206 107.449 78.5243 106.669C79.0822 104.548 78.4023 102.896 76.6538 101.688C75.1742 100.668 73.6415 99.7116 72.0915 98.7949C70.3213 97.7409 68.4777 96.8053 66.7284 95.7245C64.5573 94.3852 63.8357 92.3716 64.172 89.8742C64.3703 88.3993 64.4906 86.8962 64.4352 85.4197C64.4113 84.7086 63.8936 84.0186 63.5999 83.3243C63.4171 83.3246 63.2342 83.3249 63.0514 83.3252C62.5701 84.1452 61.9875 84.9292 61.624 85.7946C61.0023 87.2647 60.5067 88.785 59.9731 90.2946C57.68 96.7345 53.5345 101.376 46.7589 103.036C42.4506 104.091 38.505 105.913 34.5023 107.681C31.5855 108.964 28.4762 109.926 25.3659 108.574C20.2885 106.376 15.0913 104.618 9.7333 103.228C6.28931 102.332 3.82113 100.13 2.68376 96.6606C2.37045 95.5565 1.5498 94.0341 2.87766 93.4561Z" fill="white"/>
<path d="M97.366 84.2411C101.183 81.919 105.393 81.0735 109.829 81.7077C110.823 81.8462 111.842 82.2314 112.706 82.7432C121.812 88.0989 127.168 96.0256 128.672 106.481C129.949 115.345 124.962 121.917 116.341 122.79C110.746 123.356 106.173 121.254 102.406 117.195C98.2979 112.757 96.308 107.232 94.3336 101.66C93.8939 99.4925 93.3309 97.3374 93.0277 95.1541C92.4368 90.7411 93.243 86.7586 97.366 84.2411Z" fill="white"/>
<path d="M95.6178 169.663C86.8671 171.07 78.825 169.563 72.9764 162.08C69.5089 157.644 66.6321 152.845 64.4016 147.652C62.9033 144.174 63.3751 141.112 65.9309 138.393C68.6704 135.47 71.9136 133.859 76.0285 134.946C79.8023 135.943 83.5653 136.977 87.3283 138.012C90.7019 138.934 93.5368 140.515 94.7341 144.103C94.96 144.78 95.3723 145.393 95.6834 146.048C97.6927 150.217 99.6956 154.388 101.082 157.27C102.98 164.143 100.754 168.834 95.6178 169.663Z" fill="white"/>
<path d="M100.087 126.73C100.634 125.09 101.558 123.827 103.138 123.582C104.744 123.329 106.498 123.466 108.106 123.818C111.107 124.482 114.023 125.557 117.022 126.214C119.714 126.8 121.547 128.217 122.788 130.639C124.03 133.067 125.445 135.407 126.72 137.826C127.414 139.144 127.965 140.528 128.428 141.535C129.76 147.851 129.25 153.421 124.816 157.929C119.87 162.942 109.955 162.702 105.08 157.199C101.962 153.689 99.2951 149.691 96.9383 145.616C94.7265 141.79 94.8271 137.696 97.1813 133.688C98.4253 131.529 99.2903 129.113 100.087 126.73Z" fill="white"/>
<path d="M86.027 104.706C86.4483 103.769 86.7251 102.765 87.1381 101.823C87.6791 100.6 88.7477 100.156 89.7744 100.933C90.9266 101.809 92.0207 102.913 92.7418 104.146C94.516 107.162 96.0702 110.3 97.693 113.407C98.1449 114.269 98.602 115.151 98.9085 116.074C100.846 121.952 99.0064 127.157 95.7469 131.952C93.9601 134.575 91.0717 135.625 87.9655 135.82C77.8271 136.443 69.2869 130.216 66.6999 120.385C65.3999 115.432 65.1144 110.303 66.0954 106.161C66.4102 104.83 66.9644 103.526 67.6143 102.316C68.1579 101.31 69.1659 100.721 70.3665 101.127C72.6053 101.885 74.6147 103.043 75.9009 105.115C76.7498 106.482 77.0863 107.931 76.4161 109.534C76.1614 110.152 76.199 110.888 76.1086 111.566C76.8905 111.622 77.7429 111.911 78.4454 111.7C82.0641 110.593 84.501 108.11 86.027 104.706Z" fill="white"/>
<path d="M46.6936 105.91C46.7461 105.896 46.7919 105.884 46.8444 105.869C49.9724 105.106 52.6716 103.566 55.0662 101.446C55.8726 100.735 56.7117 100.015 57.6316 99.4634C60.9122 97.4978 63.3515 98.7363 63.6581 102.516C63.7305 103.432 63.6105 104.365 63.609 105.294C63.6124 106.89 63.4926 108.499 63.68 110.073C63.9586 112.425 64.4558 114.753 64.8559 117.086C65.5545 121.195 66.3699 125.294 66.8993 129.428C67.2046 131.801 66.5149 134.084 64.6885 135.782C61.6328 138.63 56.6731 140.734 52.1457 137.606C51.2557 136.996 50.2743 136.516 49.3348 135.982C44.2543 133.124 41.0044 128.869 39.4274 123.231C39.1567 121.194 38.7525 119.158 38.6349 117.114C38.2648 110.531 40.3759 107.651 46.6936 105.91Z" fill="white"/>
<path d="M134.728 142.375C131.983 140.53 129.37 138.311 127.197 135.825C123.23 131.286 123.081 126.606 126.186 121.423C127.034 120.011 127.939 118.626 128.788 117.214C130.185 114.894 130.862 112.431 130.411 109.675C130.146 108.052 129.992 106.391 130.025 104.749C130.104 101.147 132.78 99.2328 136.252 100.234C138.673 100.935 140.722 102.343 141.904 104.527C143.761 107.95 145.33 111.535 147.012 115.04C147.368 118.975 147.915 122.76 148.006 126.548C148.118 131.063 147.468 135.517 145.236 139.562C142.821 143.967 138.873 145.156 134.728 142.375Z" fill="white"/>
<path d="M113.486 71.7322C115.48 70.7836 117.45 69.7713 119.379 68.6857C121.839 67.3013 124.466 66.505 127.234 66.9859C133.547 68.0823 138.226 71.9008 141.669 76.9973C143.469 79.6684 144.223 83.0453 145.343 85.8303C145.598 87.316 145.829 88.4778 145.977 89.6477C146.077 90.4084 146.106 91.1887 146.075 91.9569C145.945 95.2145 143.387 97.8989 140.122 98.1856C134.574 98.6621 129.792 96.7498 126.053 92.8172C121.745 88.2929 117.414 83.8662 112.403 80.0954C109.134 77.6394 109.804 73.4898 113.486 71.7322Z" fill="white"/>
<path d="M164.062 161.674C163.206 163.214 161.732 164.655 160.196 165.529C156.495 167.629 153.437 167.459 151.377 163.388C149.428 159.547 147.781 155.547 145.999 151.618C146.112 151.567 146.231 151.513 146.344 151.462C146.155 150.767 145.98 150.069 145.777 149.371C144.95 146.527 145.423 144.042 147.044 141.457C148.317 139.431 148.931 136.943 149.558 134.584C149.929 133.175 149.76 131.617 149.836 130.133C149.997 127.17 152.067 125.539 154.949 126.257C156.028 126.527 157.062 127.07 158.036 127.629C163.753 130.913 166.728 136.284 167.633 142.427C168.613 149.078 167.366 155.692 164.062 161.674Z" fill="white"/>
<path d="M142.227 178.82C139.03 181.537 134.858 181.563 131.517 179.099C129.319 177.478 127.958 175.286 127.201 172.677C126.505 170.262 125.782 167.855 125.04 165.453C124.586 163.986 124.193 162.46 125.225 161.153C128.084 157.529 129.666 153.294 131.367 149.083C131.751 148.135 132.696 147.21 133.614 146.729C136.472 145.23 140.255 146.104 142.657 148.633C145.24 151.36 146.668 154.709 147.784 158.592C147.918 159.217 148.175 160.168 148.316 161.129C149.349 168.081 147.711 174.161 142.227 178.82Z" fill="white"/>
<path d="M47.169 137.259C51.8571 139.344 56.7136 141.454 59.9737 145.643C63.2219 149.815 66.1344 154.253 69.0659 158.658C70.1437 160.272 71.0289 162.059 71.7121 163.879C72.6456 166.362 71.4897 168.146 68.8434 168.272C67.0166 168.359 65.1175 168.206 63.3416 167.779C57.2559 166.326 51.9374 163.342 47.36 159.095C43.8715 155.854 41.2296 152.025 39.592 147.41C39.5294 145.57 39.2358 143.708 39.4507 141.905C39.9511 137.702 43.3285 135.549 47.169 137.259Z" fill="white"/>
<path d="M102.731 191.677C101.051 192.695 99.1146 193.494 97.198 193.873C91.4334 195.006 86.5767 192.974 82.3865 189.065C80.5037 187.309 78.5725 185.61 76.7333 183.807C74.1448 181.266 73.3375 178.079 73.9261 174.592C74.4198 171.637 76.555 170.066 79.576 170.31C81.0576 170.429 82.5252 170.756 83.9779 171.08C88.1425 172.012 92.3244 172.905 96.4429 174.005C97.8389 174.38 99.226 175.137 100.359 176.047C102.955 178.122 104.634 180.889 105.297 183.13C106.583 187.798 106.011 189.684 102.731 191.677Z" fill="white"/>
<path d="M112.222 187.24C107.439 183.971 104.229 179.346 101.986 174.156C99.9889 169.54 103.126 164.476 108.155 164.105C111.928 163.828 115.752 164.178 119.545 164.261C121.676 164.31 123.295 165.349 123.997 167.29C125.568 171.635 127.243 175.972 128.303 180.455C129.418 185.19 127.443 187.822 122.705 189.106C119.288 190.025 115.375 189.397 112.222 187.24Z" fill="white"/>
<path d="M158.052 121.56C155.314 123.477 152.403 123.042 150.757 120.16C148.958 117.003 147.512 113.638 146.209 110.959C145.739 107.667 145.357 105.118 145.019 102.571C144.783 100.792 145.231 99.2282 146.456 97.855C148.176 95.9185 148.896 93.5915 148.903 91.0216C148.905 90.0925 148.885 89.1622 148.937 88.2403C149.012 86.9326 149.405 85.8129 150.817 85.3387C152.192 84.8817 153.3 85.3343 154.097 86.4058C156.281 89.3246 158.695 92.1319 160.472 95.2877C163.596 100.843 164.77 106.864 163.223 113.201C162.417 116.536 160.962 119.526 158.052 121.56Z" fill="white"/>
<path d="M132.348 52.2886C133.005 51.7798 133.92 51.3138 134.722 51.3144C138.215 51.3248 141.598 51.8924 144.579 53.934C149.192 57.0949 151.406 61.7857 153.194 67.7318C153.353 68.9411 153.821 70.9811 153.819 73.0221C153.815 74.6201 153.553 76.3796 152.851 77.787C151.172 81.169 147.21 81.3211 145.051 78.2618C144.754 77.8426 144.469 77.4133 144.189 76.9757C142.254 73.9894 139.859 71.4091 136.73 69.7031C133.981 68.2039 131.076 66.986 128.193 65.748C125.176 64.455 124.467 62.7969 125.934 59.9018C127.464 56.8769 129.668 54.3659 132.348 52.2886Z" fill="white"/>
<path d="M170.04 94.8193C169.085 95.9434 167.698 96.8471 166.336 97.4554C164.542 98.2584 163.048 97.5234 162.07 95.7834C160.755 93.452 159.309 91.1776 158.189 88.7583C157.177 86.584 156.065 84.2964 155.813 81.9655C155.309 77.2757 155.26 72.5259 155.225 67.8005C155.21 65.3068 156.944 64.1756 159.551 65.0451C166.389 67.3287 171.266 71.72 173.458 78.1754C174.97 84.6607 174.028 90.1152 170.04 94.8193Z" fill="white"/>
<path d="M75.4128 65.2566C77.0392 66.1174 77.0827 66.4856 76.035 67.9937C74.1146 70.7726 71.306 72.1951 68.154 73.0775C67.9573 73.1308 67.7542 73.1858 67.5575 73.2391C63.8806 74.2356 62.9962 73.4904 62.9861 69.715C62.9826 67.7811 62.8595 65.7953 62.4206 63.9161C60.5531 55.9092 57.1772 48.515 52.6623 41.6688C47.8771 34.3963 42.2616 27.9539 34.086 24.2668C33.8051 24.1389 33.551 23.9545 33.3149 23.7581C32.1241 22.7652 31.9513 21.3486 32.8166 19.8688C33.6342 18.4723 34.7033 18.0559 36.2069 18.6193C36.8259 18.8526 37.4287 19.1817 37.9844 19.5447C43.1796 22.9561 47.8401 26.9908 51.966 31.6489C57.8659 38.3097 62.0751 46.0268 66.016 53.9221C68.2642 58.4276 70.7004 62.7697 75.4128 65.2566Z" fill="white"/>
<path d="M46.2027 162.483C47.9202 161.448 49.2984 162.587 50.535 163.567C55.0801 167.176 60.1537 169.516 65.9338 170.257C68.449 170.581 69.979 172.073 70.7996 174.426C71.7019 177.003 72.683 179.558 73.6294 182.116C73.6229 182.118 73.6098 182.121 73.6032 182.123C73.7028 182.413 73.8107 182.707 73.9103 182.997C74.9203 186.1 73.7698 187.826 70.5148 187.913C69.2438 187.948 67.9176 187.857 66.6907 187.535C58.7846 185.492 52.3121 181.209 47.3142 174.761C45.6577 172.621 44.4739 170.226 44.1972 167.466C43.986 165.441 44.3469 163.605 46.2027 162.483Z" fill="white"/>
<path d="M152.34 194.977C147.377 195.407 144.17 192.688 144.342 187.689C144.434 184.913 145.066 182.054 146.001 179.429C147.993 173.852 152.37 170.661 157.894 169.107C161.746 168.028 164.785 170.054 164.87 173.872C164.952 177.291 164.853 180.842 163.995 184.114C162.728 188.968 160.335 193.274 154.771 194.578C153.967 194.726 153.159 194.91 152.34 194.977Z" fill="white"/>
<path d="M39.1072 133.576C39.2633 134.983 38.6566 136.041 37.4665 136.842C34.8962 138.573 32.8987 138.523 30.3505 136.857C26.2804 134.196 24.1952 130.11 22.4623 125.845C21.3334 123.055 20.2547 120.14 19.8407 117.184C19.2912 113.288 22.2832 110.802 26.169 111.381C26.9324 111.498 27.7035 111.592 28.4777 111.593C32.8201 111.598 35.3482 113.917 36.5926 117.886C36.8403 118.67 37.0308 119.477 37.2457 120.27C37.3541 120.254 37.4691 120.237 37.5775 120.222C38.0886 124.678 38.6193 129.128 39.1072 133.576Z" fill="white"/>
<path d="M152.454 59.785C151.63 59.1077 150.881 58.2906 150.245 57.4218C147.675 53.9109 144.338 51.4101 140.339 49.7921C137.541 48.6579 137.103 48.3123 139.857 46.4543C140.499 46.02 141.13 44.8709 140.997 44.1965C140.872 43.5549 139.821 42.7915 139.058 42.6253C135.804 41.9102 132.481 41.6923 129.318 42.9785C125.274 44.6164 121.298 46.4045 117.317 48.201C116.1 48.7488 115.411 48.5136 115.336 47.1759C115.294 46.3712 115.386 45.5161 115.605 44.7392C116.936 39.9671 119.941 36.8803 123.966 36.0285C129.274 34.6885 133.67 34.8128 137.946 36.3134C147.439 39.6435 152.816 46.7626 155.702 56.0624C155.924 56.7763 155.956 57.5977 155.872 58.3521C155.672 60.341 154.001 61.0543 152.454 59.785Z" fill="white"/>
<path d="M142.456 197.163C139.931 200.591 136.427 202.512 133.13 203.56C126.089 205.461 122.317 203.902 119.976 198.584C118.365 194.926 119.239 192.726 122.95 191.284C125.28 190.378 127.593 189.414 128.98 187.209C130.877 184.19 133.855 183.418 137.057 183.162C139.261 182.987 140.977 183.971 141.924 186.008C142.596 187.451 143.195 188.935 143.675 190.445C144.437 192.869 143.963 195.116 142.456 197.163Z" fill="white"/>
<path d="M22.9585 133.647C24.0325 133.145 24.7753 134.224 25.3886 135.085C27.0198 137.365 29.082 139.03 31.7899 139.935C34.6138 140.88 36.4116 142.918 37.3678 145.719C38.0305 147.672 38.5204 149.713 39.4425 151.531C40.5224 153.673 41.9743 155.629 43.2873 157.645C44.7685 159.917 44.2251 161.52 41.6509 162.38C39.8572 162.979 38.1123 162.875 36.4073 162.035C28.6227 158.207 23.6076 152.059 21.3803 144.853C20.4146 141.238 19.7571 138.63 20.6635 136.056C21.0069 135.09 22.0037 134.096 22.9585 133.647Z" fill="white"/>
<path d="M172.517 131.036C171.513 134.572 168.084 135.263 165.458 132.66C163.921 131.142 162.788 129.17 161.647 127.298C160.166 124.871 160.168 122.513 161.744 119.919C164.16 115.958 165.691 111.638 165.144 106.84C165.094 106.397 165.203 105.917 165.313 105.465C165.761 103.613 167.195 102.83 168.954 103.557C169.651 103.846 170.304 104.309 170.873 104.823C172.852 106.623 173.839 108.994 174.41 111.513C176.767 118.317 174.316 124.694 172.517 131.036Z" fill="white"/>
<path d="M96.8377 203.603C93.6072 201.418 93.6964 198.087 97.1323 196.227C100.697 194.297 104.487 192.784 107.752 191.28C112.4 189.922 114.711 190.815 116.776 194.695C117.592 196.226 118.206 197.896 118.679 199.562C119.87 203.749 119.001 205.504 114.985 207.169C113.954 207.596 112.809 207.914 111.701 207.954C106.285 208.141 101.3 206.622 96.8377 203.603Z" fill="white"/>
<path d="M166.617 173.336C165.716 168.739 165.361 164.312 166.751 159.889C167.241 158.321 167.722 156.721 167.973 155.105C168.61 151.041 169.127 146.954 169.647 142.874C169.783 141.767 170.07 140.852 171.235 140.48C172.465 140.084 173.369 140.669 174.051 141.574C174.575 142.263 175.05 143.027 175.367 143.835C177.788 149.989 178.915 156.304 177.521 162.895C176.538 167.523 174.885 171.806 170.907 174.755C168.601 176.449 167.268 175.945 166.617 173.336Z" fill="white"/>
<path d="M71.0293 189.863C77.7485 189.189 83.4995 191.38 88.5031 195.772C90.5817 197.601 92.2334 199.75 93.0089 201.988C94.1645 205.966 92.4672 208.192 88.7562 208.129C88.191 208.12 87.6169 208.079 87.0662 207.968C78.6617 206.291 72.6631 201.395 68.6703 193.957C67.3793 191.556 68.297 190.139 71.0293 189.863Z" fill="white"/>
<path d="M114.909 209.223C116.035 208.862 117.128 208.404 118.242 208.024C120.229 207.359 122.196 206.362 124.231 206.162C126.706 205.92 129.251 206.328 131.766 206.498C134.104 206.659 135.517 208.085 135.675 210.483C135.812 212.627 134.902 214.33 133.105 215.436C132.026 216.101 130.77 216.477 129.59 216.98C126.02 218.004 122.484 217.498 119.004 216.781C117.64 216.497 116.263 215.779 115.151 214.92C114.28 214.248 113.559 213.149 113.196 212.094C112.683 210.615 113.399 209.703 114.909 209.223Z" fill="white"/>
<path d="M10.566 108.793C11.1266 106.811 12.6117 105.853 14.2073 106.237C17.0673 106.925 18.6129 108.786 18.5908 111.768C18.5686 114.49 18.0926 117.25 18.3825 119.929C18.6532 122.382 19.6374 124.767 20.3846 127.161C20.8717 128.725 21.4561 130.543 20.256 131.671C19.0171 132.836 17.4203 131.721 16.1882 130.887C12.8845 128.666 11.2019 125.365 10.1953 121.677C10.0553 120.927 9.89802 120.217 9.79671 119.505C9.29386 115.885 9.56758 112.3 10.566 108.793Z" fill="white"/>
<path d="M140.149 203.551C141.191 202.283 142.314 201.078 143.355 199.804C145.203 197.537 147.489 196.446 150.487 196.577C152.259 196.652 154.048 196.245 155.833 196.056C155.831 195.994 155.821 195.933 155.818 195.871C156.257 195.724 156.692 195.563 157.134 195.43C159.172 194.8 160.516 195.836 160.245 197.978C160.119 198.968 159.766 200 159.262 200.868C155.573 207.194 149.594 209.3 142.722 209.516C141.098 209.569 139.793 208.495 139.084 207.019C138.421 205.637 139.33 204.553 140.149 203.551Z" fill="white"/>
<path d="M180.046 117.851C179.367 118.225 178.657 118.565 177.963 118.915C177.685 118.251 177.281 117.615 177.157 116.924C176.72 114.404 176.668 111.773 175.902 109.363C175.251 107.323 174.169 105.175 172.657 103.721C170.126 101.29 168.974 100.258 172.113 96.3682C172.528 95.8477 172.964 95.3284 173.456 94.8855C174.798 93.6846 175.836 93.5933 177.369 94.5499C180.091 96.2606 181.562 98.859 182.71 102.811C183.6 107.263 182.282 112.341 180.395 117.348C180.32 117.537 180.206 117.765 180.046 117.851Z" fill="white"/>
<path d="M29.6612 79.7457C30.4445 79.7022 31.9386 79.4521 33.3981 79.6194C34.3639 79.7305 35.2657 80.4359 36.1935 80.874C35.6871 81.757 35.3957 82.9405 34.6403 83.4759C31.6465 85.6171 29.5758 88.5422 27.3599 91.373C26.0678 93.0178 24.6615 94.6301 23.0584 95.9581C21.4846 97.2641 20.0166 96.4941 20.2026 94.4807C20.4287 91.9921 20.9002 89.5004 21.5312 87.078C22.5296 83.2333 25.3024 81.0817 29.6612 79.7457Z" fill="white"/>
<path d="M175.799 127.388C176.199 126.084 176.738 124.699 177.604 123.691C178.284 122.901 179.634 122.17 180.573 122.288C181.47 122.404 182.223 123.649 183.045 124.397C182.961 124.504 182.873 124.62 182.789 124.727C182.878 125.392 183.021 126.05 183.039 126.714C183.166 131.646 181.97 136.319 180.082 140.826C179.359 142.549 177.93 142.986 176.805 141.82C174.768 139.706 173.06 137.425 174.092 134.12C174.783 131.92 175.126 129.604 175.799 127.388Z" fill="white"/>
<path d="M111.009 52.1337C108.926 52.832 106.82 52.6428 104.828 51.7826C103.139 51.0515 103.114 50.207 104.04 48.6123C105.214 46.5844 106.155 44.4228 107.114 42.2772C107.442 41.541 107.449 40.6596 107.734 39.8929C108.214 38.6019 109.37 38.2184 110.273 39.1626C111.499 40.4415 112.502 41.9356 113.404 43.0841C113.439 44.0949 113.561 44.674 113.461 45.2146C113.115 47.1306 112.758 49.0568 112.254 50.938C112.119 51.425 111.512 51.9624 111.009 52.1337Z" fill="white"/>
<path d="M96.6306 207.226C97.5384 207.149 98.5139 207.166 99.3867 207.4C101.573 207.99 103.744 208.654 105.867 209.429C107.545 210.037 108.692 211.26 109.226 213.022C109.624 214.335 109.226 215.125 107.847 215.436C104.03 215.915 100.334 215.544 97.0903 213.257C96.1599 212.602 95.4033 211.576 94.8398 210.561C93.7328 208.553 94.3742 207.415 96.6306 207.226Z" fill="white"/>
<path d="M165.901 183.387C166.169 182.61 166.372 181.803 166.72 181.061C167.731 178.873 168.945 177.848 170.072 178.14C171.215 178.436 172.301 180.287 172.256 182.276C172.155 186.342 170.367 189.585 167.142 192.042C166.78 192.316 166.317 192.448 165.551 192.818C165.047 192.645 164.061 192.588 163.662 192.077C163.309 191.631 163.457 190.62 163.668 189.944C164.336 187.737 165.142 185.569 165.901 183.387Z" fill="white"/>
</g>
</svg>
