<svg width="124" height="143" viewBox="0 0 124 143" fill="none" xmlns="http://www.w3.org/2000/svg">
<path d="M37.4584 16.4166C38.2016 16.9499 37.4591 17.7499 37.0678 18.3527C35.6217 20.5828 35.6644 23.0919 37.09 25.0128C38.4995 26.912 40.62 28.3693 42.6349 29.706C43.6915 30.4065 45.1784 30.5789 46.4987 30.7384C49.7117 31.1293 52.7417 32.0159 55.6672 33.3999C56.4168 33.7543 57.3592 33.8261 58.2124 33.8179C59.3228 33.8053 59.7387 32.9857 59.2417 31.987C58.6763 30.8421 57.9582 29.7531 57.5114 28.5685C57.0516 27.3591 56.7349 26.0719 56.5531 24.7918C56.3643 23.468 56.4854 22.0981 56.3309 20.7642C56.0742 18.5787 56.4291 16.5711 57.513 14.6327C57.9545 13.844 58.2578 12.86 58.2583 11.9658C58.2586 9.94856 58.0831 7.92799 57.8857 5.9172C57.7292 4.27278 57.463 2.63964 56.3327 1.29412C56.1598 1.09 56.219 0.696829 56.1729 0.38702C56.5144 0.359256 56.9197 0.208058 57.1855 0.341582C57.6252 0.556858 58.1044 0.87812 58.3404 1.2851C59.0709 2.5527 59.7613 3.8555 60.3488 5.19455C60.8318 6.29694 60.9728 7.57457 61.5768 8.59647C62.4554 10.0812 62.8137 11.5998 62.8363 13.2998C62.8492 14.2439 62.9744 15.3336 63.4549 16.1003C64.8349 18.2918 66.3917 20.3642 68.502 21.9597C69.9481 23.0552 71.4408 24.1279 72.6927 25.4243C74.8291 27.6374 76.2792 30.2606 76.1548 33.4596C76.0696 35.6478 74.7835 37.1379 72.9147 38.1202C72.0192 38.5935 71.4561 38.3207 71.1382 37.3347C70.8631 36.4704 70.5846 35.5904 70.469 34.6951C70.2011 32.5914 69.1434 30.9027 67.8305 29.3375C67.0555 28.4095 66.166 27.5744 65.3786 26.6529C62.1105 22.8339 59.3138 18.8782 60.8264 13.3622C61.0894 12.4072 60.6966 11.2624 60.5376 10.2142C60.5022 9.97632 60.1695 9.78433 59.9713 9.56808C59.8905 9.61338 59.8097 9.65867 59.7289 9.70396C59.7907 10.0166 59.8869 10.3256 59.9143 10.642C59.9854 11.5067 60.2967 12.4677 60.0335 13.2251C58.9204 16.4001 59.6101 19.3249 61.1874 22.0527C62.6322 24.5474 64.2916 26.9349 66.0095 29.2555C68.0131 31.9635 69.2086 34.9267 69.4257 38.2831C69.5994 40.9374 68.6207 42.0521 65.966 41.8368C64.2098 41.6941 62.47 41.2217 60.7495 40.7803C58.9598 40.3213 57.2288 39.6292 55.4334 39.2079C53.8017 38.8215 52.1141 38.6525 50.4501 38.3953C49.4278 38.2401 48.6087 37.8556 48.1954 36.796C48.051 36.4219 47.6871 36.0516 47.3292 35.8538C46.3632 35.3149 45.3869 34.7291 44.3399 34.4081C41.8138 33.6385 40.0283 32.1347 39.0423 29.6824C38.8785 29.2773 38.6183 28.9147 38.4016 28.5325C38.3081 28.5717 38.2209 28.6108 38.1275 28.6501C38.1953 28.9501 38.2197 29.276 38.3466 29.5468C39.6319 32.2575 41.4345 34.3947 44.401 35.4173C45.455 35.7821 46.5903 36.3119 47.3285 37.1056C48.6514 38.52 50.1953 39.093 52.0376 39.3189C53.4617 39.4924 54.9524 39.7055 56.2452 40.2765C59.3873 41.6662 62.5224 43.0122 65.8569 43.9093C68.1009 44.5111 69.4687 46.1726 70.0872 48.4116C70.6822 50.5662 70.5457 52.6862 69.6771 54.7402C68.5039 57.5178 66.3829 59.1695 63.4777 59.9028C62.7592 60.0844 62.0941 60.4534 61.3993 60.7382C61.4614 60.8846 61.5236 61.0372 61.5857 61.1836C63.1132 60.6118 64.6602 60.0773 66.1649 59.4525C68.8067 58.3534 70.5478 56.5011 71.2928 53.6366C72.0586 50.6996 74.455 49.746 77.1979 51.0892C77.7072 51.3409 78.2391 51.6205 78.641 52.009C81.9936 55.2681 85.5784 58.3382 88.0811 62.3491C89.3551 64.3949 90.9772 66.0615 92.8281 67.536C94.0462 68.5098 95.383 69.2651 96.9894 69.4543C98.6492 69.652 100.298 69.9314 101.952 70.1668C101.99 70.1725 102.045 70.0962 102.19 69.9714C101.257 69.3033 100.231 69.1451 99.166 69.0471C98.239 68.9593 97.1733 69.0151 96.4222 68.5729C93.301 66.7467 90.3604 64.6633 88.4703 61.4358C86.8128 58.6059 84.9105 55.959 82.6241 53.6009C81.663 52.6102 80.6462 51.6706 79.7128 50.6512C78.4534 49.2796 78.5647 46.7836 79.866 46.0054C82.0556 44.6975 86.9406 44.8969 88.9624 46.4563C90.2499 47.4478 91.6501 47.8757 93.258 47.9676C94.2032 48.0237 95.2358 48.2321 96.0437 48.6983C98.9552 50.365 102.192 50.2974 105.357 50.6483C105.668 50.6838 106.013 50.4678 106.341 50.3712C106.129 50.0862 105.974 50.023 105.817 50.0256C102.746 50.0558 99.8167 49.5503 97.0619 48.0599C95.9062 47.4363 94.5377 47.2118 93.3027 46.7214C92.0992 46.243 90.9348 45.6604 89.7616 45.1125C88.9173 44.7221 88.1162 44.1083 87.2385 43.9632C85.7566 43.7154 84.2325 43.7539 82.7223 43.6823C82.3549 43.6666 81.9768 43.7514 81.6152 43.7042C80.4581 43.5545 80.043 42.9435 80.6699 41.9885C81.1713 41.2145 81.9195 40.383 82.7458 40.0834C85.7265 38.9912 88.737 38.7298 91.5133 40.747C93.7019 42.3381 96.1505 43.1623 98.8387 43.3237C100.286 43.4089 101.572 43.9236 102.751 44.7914C104.222 45.8801 105.786 46.8794 107.675 46.954C109.386 47.0222 111.107 46.9271 112.819 46.8415C114.145 46.7719 115.204 46.1547 116.218 45.2716C117.396 44.2445 118.714 43.3405 120.084 42.5862C121.082 42.0391 122.262 42.019 123.68 42.5691C122.926 43.2595 122.405 43.8299 121.792 44.2733C119.808 45.7125 117.956 47.3221 116.756 49.457C115.45 51.7851 113.382 52.6548 110.972 52.9843C108.039 53.3824 105.288 54.3139 102.604 55.5266C101.944 55.8264 101.188 56.0275 100.47 56.0554C98.5542 56.1224 96.6333 56.0672 94.71 56.0591C93.4487 56.0555 92.784 56.6346 92.8493 57.8884C92.8959 58.7849 93.0403 59.7142 93.337 60.5562C94.355 63.4158 95.8144 65.8507 99.1845 66.4428C100.686 66.7091 102.049 67.3793 103.163 68.5054C103.553 68.9004 104.112 69.1262 104.591 69.4349C105.606 70.0891 106.785 70.593 107.593 71.4482C108.663 72.5752 109.465 73.9608 110.315 75.2765C110.473 75.5217 110.327 75.9603 110.32 76.3118C109.974 76.2486 109.573 76.2743 109.297 76.1001C108.647 75.6876 108.021 75.2183 107.441 74.7073C105.578 73.0605 103.41 72.2974 100.94 72.4586C99.6301 72.5436 98.3179 72.6757 97.0225 72.8796C94.4944 73.2803 92.1287 72.9001 89.9077 71.6233C89.0332 71.1173 88.1983 70.5386 87.2873 70.1023C86.3985 69.675 85.4688 69.2453 84.5057 69.0609C81.5437 68.4869 78.5802 65.4188 78.433 62.6668C78.4016 62.112 78.7295 61.2813 77.8994 61.1699C77.6604 61.1364 77.1919 61.9977 77.0061 62.5153C76.407 64.182 75.8559 64.6118 74.0939 64.5005C73.6291 64.4708 73.1326 64.4227 72.7093 64.248C71.3348 63.6784 70.0515 63.8508 68.7024 64.4039C66.8205 65.17 64.8773 65.6485 62.7886 65.3264C61.672 65.154 60.5126 65.2364 59.373 65.1962C58.0671 65.1493 56.753 65.1748 55.4639 65.0085C54.8823 64.9337 54.3474 64.4721 53.7935 64.1898C53.8263 64.0857 53.8527 63.9817 53.8855 63.8776C54.3746 63.678 54.8504 63.4283 55.3561 63.2817C56.733 62.8849 57.4324 61.9507 57.5249 60.5656C57.6023 59.394 57.6261 58.214 57.6218 57.0376C57.6209 55.6917 57.529 54.3442 57.5501 53.0011C57.5751 51.3348 58.4635 50.2562 59.9772 49.6092C60.8711 49.227 61.7547 48.7916 62.5646 48.2664C62.9556 48.0151 63.1695 47.4938 63.4608 47.0967C63.3995 46.9942 63.3381 46.8917 63.2768 46.7892C62.6557 46.7935 62.0208 46.729 61.4137 46.8146C60.3808 46.9577 59.3619 47.1883 58.3364 47.394C53.9558 48.2621 49.9646 47.4892 46.7659 44.2431C44.7323 42.1788 42.3898 40.5747 40.0589 38.9201C38.363 37.7129 36.7828 36.2903 36.5007 34.0927C36.0351 30.5084 35.2822 27.0043 34.2695 23.5328C33.6198 21.3007 34.0292 19.1792 35.5955 17.38C36.1102 16.8348 36.6898 15.8649 37.4584 16.4166Z" fill="#EC5D7C"/>
<path d="M74.2446 66.349C76.8247 67.7138 78.7079 69.7932 79.8361 72.494C80.0911 73.0983 80.2159 73.799 80.2177 74.4546C80.2597 81.356 77.6044 87.0137 72.2412 91.3559C67.6951 95.0379 62.339 94.4387 58.9645 89.8936C56.7747 86.9441 56.4243 83.6747 57.4414 80.2033C58.5566 76.4133 60.9909 73.448 63.4565 70.4759C64.5255 69.504 65.5463 68.467 66.6699 67.5663C68.9482 65.7582 71.4525 64.878 74.2446 66.349Z" fill="#EC5D7C"/>
<path d="M25.731 93.9501C22.0132 89.5113 20.168 84.4948 22.4101 78.7091C23.7385 75.2795 25.4689 72.0594 27.6361 69.0704C29.086 67.0661 30.9618 66.3064 33.3425 66.8307C35.8994 67.3896 37.8883 68.6703 38.6553 71.3428C39.3589 73.7936 40.0375 76.2511 40.7162 78.7086C41.3277 80.91 41.3888 83.0298 39.7767 84.9019C39.4721 85.2554 39.2662 85.6918 39.003 86.0853C37.3361 88.6078 35.6659 91.1272 34.5128 92.8691C31.2915 96.2337 27.9149 96.5546 25.731 93.9501Z" fill="#EC5D7C"/>
<path d="M51.315 82.0925C52.4183 81.851 53.4364 81.9467 54.1027 82.751C54.7816 83.5677 55.2917 84.5975 55.6322 85.6176C56.2638 87.5238 56.6365 89.519 57.2712 91.422C57.8429 93.1284 57.6614 94.6311 56.7176 96.1374C55.7707 97.6468 54.9316 99.2234 54.0006 100.748C53.4939 101.579 52.9016 102.351 52.4913 102.948C49.3932 105.809 46.0976 107.386 42.0841 106.407C37.6167 105.309 34.4338 99.6659 35.8901 95.0889C36.8161 92.1649 38.1672 89.3309 39.6651 86.645C41.0717 84.1239 43.4024 82.8105 46.4389 82.7903C48.0668 82.7658 49.7115 82.4429 51.315 82.0925Z" fill="#EC5D7C"/>
<path d="M58.9679 66.8345C59.6349 66.7572 60.2906 66.5767 60.9575 66.4932C61.8247 66.3875 62.4316 66.8383 62.3391 67.6744C62.2327 68.6143 61.9796 69.5974 61.5292 70.4145C60.4307 72.4191 59.1896 74.3414 57.9898 76.2912C57.657 76.8333 57.315 77.385 56.8997 77.8658C54.2504 80.9195 50.7141 81.629 46.933 81.4046C44.8634 81.2798 43.3077 80.0105 42.1592 78.3328C38.4174 72.8527 39.0535 65.9775 43.704 61.2365C46.0478 58.85 48.8301 56.9737 51.4826 56.138C52.3345 55.8694 53.2516 55.744 54.1482 55.7037C54.8943 55.6722 55.5625 56.0404 55.7363 56.85C56.06 58.3598 56.0826 59.8748 55.3505 61.2896C54.8676 62.2233 54.1669 62.8972 53.0433 63.0574C52.6114 63.1212 52.2113 63.3884 51.8001 63.5648C52.0306 64.0221 52.1534 64.5973 52.5071 64.9207C54.3393 66.5806 56.5476 67.1172 58.9679 66.8345Z" fill="#EC5D7C"/>
<path d="M45.1314 45.1681C45.1569 45.1928 45.1792 45.2144 45.2047 45.239C46.6797 46.7387 48.4472 47.7377 50.4376 48.3721C51.1064 48.5866 51.7911 48.8166 52.4085 49.1481C54.609 50.3311 54.7303 52.1141 52.7123 53.5508C52.2225 53.8979 51.6589 54.1428 51.1371 54.4529C50.2426 54.9888 49.3 55.4598 48.4794 56.0918C47.253 57.035 46.1134 58.0928 44.9383 59.0979C42.8663 60.8648 40.8393 62.6938 38.6969 64.3742C37.4678 65.3394 35.9557 65.7164 34.3919 65.2599C31.7718 64.4981 28.9318 62.4193 29.172 58.8324C29.2165 58.1289 29.1574 57.4178 29.1422 56.7121C29.0462 52.9051 30.3463 49.6579 32.9816 46.8868C34.0341 46.0532 35.0414 45.1451 36.1487 44.3953C39.7188 41.9848 42.041 42.2057 45.1314 45.1681Z" fill="#EC5D7C"/>
<path d="M54.1279 106.763C54.245 104.606 54.6153 102.397 55.2832 100.347C56.5028 96.6022 59.0787 94.9521 63.0255 94.9604C64.1017 94.964 65.1817 95.0084 66.2578 95.0121C68.0274 95.0197 69.6355 94.5751 71.0305 93.4C71.8532 92.7084 72.7333 92.0659 73.6655 91.5356C75.7132 90.3745 77.6824 91.2352 78.2828 93.5183C78.6989 95.1113 78.5946 96.7319 77.765 98.1264C76.4657 100.313 74.9794 102.393 73.5754 104.51C71.4866 106.026 69.5462 107.6 67.451 108.918C64.9553 110.492 62.2387 111.617 59.2224 111.719C55.9428 111.837 53.9542 110.02 54.1279 106.763Z" fill="#EC5D7C"/>
<path d="M86.6567 71.2079C87.8562 72.0095 89.0834 72.7761 90.338 73.4952C91.9379 74.4123 93.2635 75.6196 93.9201 77.334C95.4171 81.2427 94.8403 85.1459 93.1327 88.7828C92.2364 90.6867 90.5937 92.2393 89.4061 93.7999C88.6578 94.4401 88.083 94.9581 87.4762 95.4327C87.083 95.7437 86.6548 96.0208 86.2134 96.2605C84.342 97.2774 81.9799 96.7402 80.7269 95.0047C78.6029 92.0509 78.0759 88.7281 79.0312 85.3141C80.1283 81.3833 81.1631 77.4723 81.6021 73.3989C81.8864 70.7431 84.4386 69.7303 86.6567 71.2079Z" fill="#EC5D7C"/>
<path d="M53.115 129.68C51.9642 129.715 50.6626 129.37 49.6584 128.8C47.2413 127.427 46.3139 125.654 47.9088 123.136C49.4119 120.757 51.1053 118.495 52.713 116.181C52.7797 116.226 52.8495 116.275 52.9162 116.321C53.243 115.983 53.5762 115.651 53.8997 115.304C55.2184 113.889 56.7712 113.323 58.7641 113.367C60.3271 113.403 61.9282 112.915 63.4612 112.478C64.376 112.214 65.1937 111.598 66.0519 111.144C67.7684 110.243 69.3757 110.859 69.9375 112.716C70.147 113.412 70.1882 114.174 70.2006 114.908C70.2707 119.214 68.2527 122.68 65.1087 125.244C61.7049 128.018 57.5768 129.532 53.115 129.68Z" fill="#EC5D7C"/>
<path d="M36.1884 123.166C33.5945 122.281 32.1839 119.949 32.4486 117.25C32.6223 115.474 33.3969 113.977 34.6078 112.68C35.7294 111.481 36.8383 110.27 37.9376 109.05C38.6088 108.304 39.3337 107.573 40.4122 107.715C43.4024 108.107 46.3079 107.577 49.2399 107.123C49.9001 107.02 50.7352 107.241 51.3122 107.596C53.1098 108.698 53.885 111.113 53.2697 113.307C52.6039 115.668 51.2028 117.59 49.3971 119.515C49.0913 119.8 48.6443 120.262 48.1523 120.663C44.5969 123.569 40.6378 124.684 36.1884 123.166Z" fill="#EC5D7C"/>
<path d="M27.7014 55.924C28.0999 59.2522 28.541 62.6832 27.2813 65.914C26.0278 69.1322 24.5121 72.2514 23.0216 75.3701C22.4763 76.515 21.7702 77.6094 20.9776 78.6017C19.8963 79.9566 18.5088 79.9048 17.5525 78.4623C16.8924 77.4664 16.3432 76.3494 15.9882 75.2104C14.7674 71.3095 14.662 67.3269 15.5135 63.3375C16.1645 60.2958 17.429 57.5324 19.4703 55.0694C20.482 54.4185 21.4286 53.6306 22.5122 53.1479C25.0374 52.0226 27.3758 53.197 27.7014 55.924Z" fill="#EC5D7C"/>
<path d="M15.7592 105.307C14.6258 104.705 13.5295 103.886 12.6758 102.938C10.1111 100.082 9.6266 96.6772 10.4178 93.0182C10.7726 91.3745 11.0802 89.7222 11.4759 88.0872C12.036 85.7843 13.5538 84.2652 15.7074 83.4286C17.5307 82.7168 19.1264 83.3893 20.0005 85.1658C20.4295 86.037 20.7371 86.9698 21.0414 87.8933C21.9115 90.5421 22.8098 93.1872 23.5706 95.8661C23.8276 96.7747 23.8671 97.8062 23.7356 98.7465C23.4396 100.897 22.4486 102.765 21.4136 103.887C19.2249 106.171 17.9752 106.481 15.7592 105.307Z" fill="#EC5D7C"/>
<path d="M21.4245 109.148C21.6584 105.37 23.1795 102.022 25.3404 99.0266C27.2622 96.3618 31.1536 96.4274 33.0441 99.1248C34.4621 101.149 35.5453 103.412 36.7678 105.568C37.4535 106.78 37.4121 108.036 36.5577 109.079C34.6459 111.415 32.7728 113.806 30.6123 115.9C28.3283 118.11 26.1911 117.883 23.8849 115.654C22.2262 114.044 21.2692 111.639 21.4245 109.148Z" fill="#EC5D7C"/>
<path d="M73.611 112.886C71.6193 111.991 70.8895 110.212 71.9555 108.324C73.1251 106.259 74.529 104.321 75.5963 102.693C77.2861 101.328 78.5887 100.261 79.9044 99.2195C80.8238 98.4917 81.8513 98.2201 83.0317 98.4479C84.6936 98.7647 86.2402 98.3902 87.6844 97.5343C88.2062 97.2243 88.7216 96.9018 89.2564 96.6229C90.0152 96.2272 90.775 96.0731 91.5136 96.7069C92.23 97.3253 92.3466 98.0982 92.0121 98.9039C91.1052 101.106 90.3379 103.4 89.1618 105.453C87.0898 109.065 84.1046 111.738 80.0317 112.99C77.8908 113.654 75.7261 113.838 73.611 112.886Z" fill="#EC5D7C"/>
<path d="M103.878 75.2855C104.383 75.484 104.951 75.8414 105.219 76.2918C106.381 78.2548 107.195 80.343 107.047 82.6984C106.817 86.3447 104.926 89.1565 102.188 92.149C101.562 92.6427 100.574 93.5882 99.4283 94.2696C98.5307 94.8025 97.4559 95.2443 96.4313 95.3213C93.9717 95.5106 92.5607 93.3385 93.5549 91.1035C93.6908 90.7969 93.8363 90.4932 93.988 90.1895C95.0161 88.1045 95.6625 85.8974 95.5728 83.5711C95.4941 81.5269 95.2054 79.4894 94.9356 77.4579C94.6516 75.3325 95.3444 74.3796 97.4596 74.2338C99.6688 74.0802 101.815 74.4767 103.878 75.2855Z" fill="#EC5D7C"/>
<path d="M92.6261 110.665C91.6759 110.505 90.7046 110.029 89.9077 109.468C88.8567 108.73 88.7692 107.646 89.4183 106.515C90.2866 104.998 91.0787 103.425 92.0613 101.987C92.9429 100.692 93.8542 99.3024 95.0778 98.3812C97.5404 96.5292 100.189 94.9124 102.829 93.3114C104.223 92.4689 105.438 93.0632 105.822 94.8167C106.829 99.4176 105.997 103.623 103.108 107.014C99.9754 110.031 96.5997 111.328 92.6261 110.665Z" fill="#EC5D7C"/>
<path d="M77.5509 47.6792C77.6121 48.8798 77.4201 49.0274 76.2234 48.9442C74.0216 48.7965 72.2837 47.6966 70.7339 46.2233C70.6382 46.1308 70.5394 46.0352 70.4437 45.9427C68.6543 44.2131 68.7765 43.4675 70.8914 42.1986C71.9753 41.5496 73.0484 40.8161 73.9558 39.941C77.8235 36.2141 80.8427 31.8459 83.1733 27.0219C85.6526 21.9036 87.3884 16.5972 86.7216 10.7763C86.6994 10.5759 86.7179 10.3716 86.749 10.1735C86.9077 9.1731 87.6447 8.60215 88.7645 8.59253C89.8216 8.58398 90.413 9.04452 90.6 10.0767C90.6762 10.502 90.6932 10.9504 90.6755 11.3836C90.4997 15.44 89.7953 19.4049 88.5623 23.2785C86.7991 28.8175 83.8776 33.7614 80.7663 38.6143C78.9906 41.3833 77.3695 44.2031 77.5509 47.6792Z" fill="#EC5D7C"/>
<path d="M13.2252 63.8219C14.3808 64.4391 14.2028 65.5935 14.0664 66.6155C13.5624 70.3731 13.9472 74.0027 15.4654 77.4938C16.125 79.0136 15.7998 80.3713 14.7543 81.6189C13.6105 82.9873 12.5049 84.3928 11.3865 85.7797C11.3833 85.7766 11.377 85.7704 11.3738 85.7673C11.2446 85.9201 11.1155 86.0792 10.9864 86.232C9.58304 87.837 8.22972 87.769 7.09172 85.9719C6.64685 85.2704 6.25408 84.4959 6.02408 83.6998C4.5253 78.5801 4.76238 73.5156 6.7079 68.5539C7.35445 66.9084 8.3021 65.4428 9.7583 64.3639C10.824 63.5678 11.9747 63.1561 13.2252 63.8219Z" fill="#EC5D7C"/>
<path d="M30.5068 134.246C28.6046 131.605 29.0574 128.896 31.9201 127.32C33.5083 126.443 35.324 125.841 37.1094 125.487C40.9054 124.739 44.1604 126.127 46.8803 128.706C48.7744 130.506 48.6549 132.89 46.541 134.215C44.6506 135.405 42.6243 136.537 40.5014 137.151C37.3545 138.064 34.1373 138.162 31.5442 135.477C31.1923 135.075 30.8185 134.683 30.5068 134.246Z" fill="#EC5D7C"/>
<path d="M27.0702 50.1684C26.3331 50.7268 25.5364 50.7404 24.6888 50.3407C22.8577 49.4776 22.2172 48.3403 22.2995 46.353C22.4306 43.1789 24.0252 40.642 25.8386 38.2425C27.0261 36.6757 28.3012 35.0948 29.8208 33.8736C31.8233 32.2616 34.2189 33.1087 35.1941 35.4828C35.384 35.9501 35.5896 36.4141 35.8479 36.8489C37.298 39.287 36.8427 41.4815 35.0324 43.5076C34.6753 43.9089 34.2864 44.2857 33.9134 44.6717C33.9583 44.7274 34.0063 44.7862 34.0512 44.8419C31.7222 46.6195 29.4027 48.4064 27.0702 50.1684Z" fill="#EC5D7C"/>
<path d="M106.399 89.075C106.503 88.3862 106.711 87.6924 106.986 87.0446C108.096 84.4281 108.382 81.7189 107.952 78.934C107.652 76.9846 107.7 76.623 109.664 77.5465C110.122 77.7614 110.978 77.7312 111.312 77.4306C111.63 77.146 111.707 76.3008 111.545 75.8172C110.857 73.752 109.867 71.8143 108.088 70.4704C105.815 68.749 103.482 67.1165 101.142 65.4841C100.427 64.9848 100.328 64.5191 101.054 64.0299C101.492 63.7369 102.002 63.5024 102.511 63.3651C105.634 62.5151 108.371 63.1683 110.196 65.142C112.724 67.6716 114.125 70.1796 114.714 73.081C116.022 79.5216 113.827 84.9205 109.574 89.6517C109.248 90.0149 108.798 90.308 108.347 90.5133C107.164 91.0668 106.204 90.3678 106.399 89.075Z" fill="#EC5D7C"/>
<path d="M25.9732 129.432C23.2046 129.162 20.9547 127.839 19.2633 126.34C15.8407 123.025 15.4539 120.387 17.6539 117.294C19.1675 115.166 20.6944 114.921 22.7451 116.52C24.0328 117.524 25.3482 118.5 27.0493 118.54C29.3781 118.594 30.8076 120.007 32.0226 121.718C32.8583 122.896 32.8802 124.188 32.0538 125.401C31.4692 126.261 30.837 127.094 30.1506 127.868C29.0453 129.107 27.6261 129.592 25.9732 129.432Z" fill="#EC5D7C"/>
<path d="M21.6272 41.1314C22.2683 41.566 21.9113 42.3438 21.6334 42.976C20.8996 44.6544 20.6558 46.3684 21.0538 48.1906C21.4689 50.0911 20.9266 51.7819 19.6748 53.2557C18.8012 54.2807 17.8198 55.2386 17.1079 56.3645C16.2677 57.687 15.6558 59.1562 14.9644 60.5672C14.1852 62.1585 13.1036 62.3902 11.76 61.2334C10.824 60.4274 10.2985 59.4135 10.199 58.176C9.74226 52.5272 11.5136 47.6563 14.8115 43.9955C16.5166 42.2441 17.7599 41.0026 19.5076 40.6498C20.1642 40.5194 21.0559 40.7458 21.6272 41.1314Z" fill="#EC5D7C"/>
<path d="M73.1346 124.172C70.8141 124.792 69.2794 123.099 69.8608 120.755C70.1983 119.385 70.9261 118.089 71.5948 116.823C72.461 115.18 73.7841 114.392 75.7671 114.408C78.7982 114.438 81.7342 113.852 84.2429 111.94C84.4752 111.763 84.781 111.664 85.0712 111.574C86.2603 111.206 87.1793 111.749 87.3602 112.978C87.4313 113.467 87.3899 113.988 87.2916 114.479C86.9442 116.192 85.9444 117.539 84.7217 118.702C81.6927 122.302 77.2945 123.06 73.1346 124.172Z" fill="#EC5D7C"/>
<path d="M7.09619 105.991C7.2412 103.447 9.14001 102.383 11.3332 103.688C13.6088 105.043 15.7258 106.663 17.6621 107.992C19.9795 110.145 20.2513 111.741 18.7652 114.197C18.1793 115.167 17.448 116.071 16.6714 116.893C14.7206 118.963 13.4454 119.063 11.1672 117.367C10.5825 116.931 10.0213 116.395 9.62817 115.786C7.71091 112.81 6.8955 109.505 7.09619 105.991Z" fill="#EC5D7C"/>
<path d="M47.4267 135.016C49.7042 132.972 52.0694 131.291 55.016 130.592C56.0596 130.342 57.1186 130.076 58.1095 129.676C60.6023 128.674 63.0687 127.597 65.5321 126.523C66.1985 126.229 66.8078 126.084 67.4066 126.613C68.0403 127.17 68.0146 127.874 67.7345 128.559C67.5238 129.084 67.2535 129.606 66.9066 130.054C64.2635 133.472 61.0975 136.217 56.9334 137.64C54.0076 138.637 51.0514 139.142 48.0655 137.897C46.3433 137.171 46.1803 136.254 47.4267 135.016Z" fill="#EC5D7C"/>
<path d="M6.16965 86.9131C8.79619 90.4575 9.49094 94.4175 8.70086 98.6945C8.37029 100.473 7.71746 102.118 6.72109 103.302C4.87549 105.282 3.05861 105.074 1.85265 102.971C1.66839 102.651 1.49954 102.315 1.37757 101.969C-0.49407 96.6923 0.246012 91.6883 3.08334 86.9592C3.99856 85.4315 5.10045 85.4724 6.16965 86.9131Z" fill="#EC5D7C"/>
<path d="M9.98909 118.011C10.5688 118.522 11.1915 118.982 11.7772 119.48C12.8151 120.372 14.0329 121.142 14.8261 122.217C15.7895 123.525 16.4122 125.089 17.1587 126.557C17.8502 127.923 17.5235 129.193 16.2304 130.084C15.0737 130.878 13.8135 130.937 12.5917 130.299C11.8573 129.917 11.2263 129.337 10.5497 128.844C8.78024 127.183 7.88089 125.03 7.11892 122.838C6.82194 121.977 6.76395 120.965 6.87395 120.053C6.95908 119.339 7.33499 118.567 7.80553 118.01C8.4636 117.227 9.21507 117.324 9.98909 118.011Z" fill="#EC5D7C"/>
<path d="M31.4259 25.862C32.7251 25.5136 33.7597 26.0262 34.0783 27.0498C34.6491 28.8849 34.1222 30.3746 32.4417 31.3601C30.9071 32.2583 29.1991 32.9148 27.7927 33.974C26.5073 34.9464 25.498 36.2969 24.405 37.5171C23.6907 38.3136 22.8658 39.2499 21.8318 38.9538C20.7631 38.6488 20.8544 37.3798 20.9101 36.4094C21.0511 33.8125 22.3402 31.7639 24.0728 29.965C24.4468 29.6355 24.7926 29.3096 25.1578 29.0148C27.0211 27.5211 29.1241 26.4752 31.4259 25.862Z" fill="#EC5D7C"/>
<path d="M21.6172 130.275C22.6772 130.435 23.7289 130.662 24.792 130.82C26.6823 131.098 28.0595 132.016 28.9892 133.742C29.5398 134.761 30.3671 135.629 31.0702 136.567C31.1043 136.545 31.1352 136.519 31.1694 136.497C31.3986 136.694 31.634 136.884 31.857 137.087C32.8925 138.02 32.7606 139.121 31.4682 139.685C30.8703 139.947 30.1732 140.093 29.5176 140.101C24.7341 140.148 21.5517 137.498 19.1313 133.715C18.5577 132.821 18.7243 131.729 19.3146 130.838C19.8683 130.003 20.7806 130.151 21.6172 130.275Z" fill="#EC5D7C"/>
<path d="M83.0515 123.985C82.6142 123.729 82.1858 123.445 81.7577 123.173C82.0368 122.794 82.2583 122.355 82.6046 122.054C83.8724 120.966 85.3314 120.056 86.4273 118.82C87.3538 117.772 88.1972 116.447 88.5071 115.111C89.0244 112.878 89.2178 111.886 92.4507 112.346C92.8815 112.405 93.3188 112.476 93.732 112.603C94.8548 112.955 95.2532 113.506 95.2293 114.686C95.1803 116.786 94.2146 118.481 92.3813 120.448C90.1814 122.436 86.891 123.396 83.4504 124.013C83.319 124.034 83.1529 124.046 83.0515 123.985Z" fill="#EC5D7C"/>
<path d="M54.1129 26.8569C54.3993 27.2818 55.0396 28.0364 55.4341 28.9113C55.6949 29.4904 55.6009 30.2324 55.6655 30.8995C55.0006 30.9108 54.2391 31.1434 53.6859 30.8987C51.4828 29.9353 49.1487 29.7522 46.8189 29.4561C45.4638 29.2815 44.0885 29.0319 42.8071 28.5768C41.5477 28.1308 41.4885 27.0494 42.6805 26.4801C44.1524 25.7743 45.7082 25.2051 47.2785 24.7486C49.7698 24.0224 51.9048 24.8583 54.1129 26.8569Z" fill="#EC5D7C"/>
<path d="M76.2793 124.794C77.1447 124.581 78.102 124.421 78.9579 124.569C79.6281 124.686 80.4901 125.199 80.7382 125.766C80.9733 126.308 80.5264 127.146 80.3816 127.858C80.2936 127.847 80.1993 127.836 80.1112 127.825C79.7676 128.097 79.4464 128.398 79.0802 128.63C76.3549 130.352 73.3332 131.244 70.1721 131.693C68.964 131.864 68.2407 131.208 68.5183 130.187C69.0233 128.336 69.7313 126.615 71.931 126.088C73.3965 125.74 74.8109 125.157 76.2793 124.794Z" fill="#EC5D7C"/>
<path d="M96.8245 63.2609C95.7357 62.3257 95.1373 61.0809 94.9534 59.6754C94.7982 58.4828 95.2638 58.1862 96.4683 58.172C97.9989 58.1523 99.5266 57.9569 101.051 57.7773C101.574 57.7151 102.071 57.4243 102.597 57.3275C103.482 57.165 104.084 57.685 103.856 58.5077C103.549 59.6235 103.046 60.6862 102.703 61.5767C102.148 61.9344 101.864 62.1965 101.527 62.3214C100.336 62.7683 99.1359 63.2122 97.912 63.5593C97.5934 63.6463 97.0887 63.4855 96.8245 63.2609Z" fill="#EC5D7C"/>
<path d="M4.99401 107.087C5.34106 107.571 5.65791 108.124 5.81815 108.692C6.21882 110.116 6.57271 111.556 6.84835 113.007C7.06859 114.151 6.76648 115.204 5.95648 116.093C5.35283 116.756 4.77626 116.797 4.14056 116.127C2.59471 114.146 1.56599 111.948 1.76363 109.363C1.82005 108.622 2.14269 107.854 2.5237 107.198C3.27978 105.905 4.13278 105.884 4.99401 107.087Z" fill="#EC5D7C"/>
<path d="M41.5476 137.977C42.0728 137.868 42.5941 137.711 43.1265 137.658C44.6923 137.494 45.6738 137.831 45.887 138.562C46.1035 139.302 45.4279 140.531 44.2968 141.171C41.9817 142.475 39.5642 142.556 37.1066 141.569C36.8318 141.458 36.6022 141.242 36.139 140.936C36.0673 140.595 35.7689 140.023 35.9222 139.628C36.0544 139.281 36.6712 139.026 37.1212 138.918C38.5832 138.554 40.0688 138.281 41.5476 137.977Z" fill="#EC5D7C"/>
</svg>
