<svg width="109" height="99" viewBox="0 0 109 99" fill="none" xmlns="http://www.w3.org/2000/svg">
<g opacity="0.5">
<path d="M54.7558 5.87517C55.1266 6.47646 54.3593 6.82557 53.901 7.13859C52.2065 8.29732 51.4899 10.0981 51.9339 11.8914C52.373 13.6645 53.4502 15.3344 54.4882 16.8869C55.0326 17.7006 56.0409 18.2662 56.9343 18.7729C59.1076 20.0081 61.003 21.542 62.6757 23.3993C63.1044 23.8749 63.7546 24.2067 64.3651 24.4549C65.1601 24.7765 65.7005 24.3162 65.6437 23.4566C65.5817 22.4723 65.3941 21.4825 65.4284 20.5053C65.4608 19.5065 65.6183 18.4949 65.8699 17.5286C66.1295 16.5289 66.6236 15.5887 66.9107 14.5922C67.3783 12.9583 68.229 11.6332 69.5785 10.5745C70.128 10.1439 70.6371 9.53301 70.9036 8.89596C71.5044 7.45844 71.9809 5.96625 72.4389 4.47455C72.8169 3.25606 73.1134 2.01297 72.7085 0.717581C72.6461 0.520644 72.8053 0.258082 72.8647 0.0235905C73.1164 0.105474 73.4502 0.118386 73.5999 0.292675C73.8491 0.577009 74.095 0.948614 74.142 1.30888C74.2852 2.42973 74.3893 3.56369 74.4093 4.69285C74.4253 5.62228 74.1454 6.57471 74.2716 7.4828C74.4557 8.80242 74.259 9.99134 73.7689 11.2096C73.4971 11.8862 73.2618 12.7 73.376 13.3895C73.707 15.3621 74.1994 17.3024 75.2283 19.0677C75.9327 20.2789 76.6771 21.4878 77.1832 22.7843C78.0469 24.9976 78.2993 27.2987 77.2581 29.5414C76.546 31.0754 75.1859 31.7544 73.5616 31.8981C72.7825 31.9687 72.4625 31.6067 72.5295 30.8094C72.5908 30.1115 72.6543 29.4015 72.8385 28.729C73.2738 27.1501 73.0228 25.6318 72.5532 24.1255C72.2772 23.2334 71.8919 22.3735 71.6051 21.4823C70.4132 17.7878 69.5979 14.1362 72.318 10.6556C72.7898 10.0533 72.8506 9.12062 73.0494 8.32623C73.095 8.1462 72.9151 7.91033 72.8382 7.69722C72.7672 7.70545 72.6961 7.71367 72.625 7.72189C72.576 7.96311 72.5526 8.21194 72.4779 8.44555C72.2711 9.08295 72.2068 9.86045 71.7937 10.3219C70.0552 12.2531 69.676 14.5428 69.9879 16.9563C70.2748 19.1642 70.7466 21.3597 71.2799 23.5249C71.9016 26.0512 71.8713 28.5189 71.0267 30.9753C70.3603 32.9186 69.3309 33.4216 67.5032 32.4779C66.2942 31.8533 65.195 30.9987 64.1003 30.1719C62.9615 29.312 61.934 28.3034 60.7799 27.4686C59.7322 26.7075 58.5798 26.0846 57.4706 25.4059C56.7883 24.991 56.319 24.4731 56.34 23.5949C56.3484 23.2854 56.1993 22.9131 56.0032 22.6656C55.4752 21.994 54.9539 21.2859 54.3033 20.7454C52.7323 19.4448 51.9075 17.8416 51.935 15.8004C51.9389 15.463 51.8614 15.1271 51.8207 14.7902C51.7424 14.7903 51.6687 14.7923 51.5904 14.7924C51.5494 15.0264 51.4698 15.2659 51.4796 15.4967C51.5885 17.8111 52.2368 19.8708 54.0464 21.4827C54.6889 22.0565 55.3403 22.772 55.63 23.5575C56.1516 24.9593 57.0813 25.8272 58.3269 26.5368C59.2902 27.0844 60.289 27.68 61.0404 28.4718C62.8658 30.3977 64.6992 32.2903 66.8084 33.9223C68.2284 35.0193 68.7085 36.6106 68.4827 38.3902C68.2653 40.1029 67.5368 41.573 66.3063 42.7781C64.6432 44.4083 62.64 44.9539 60.3513 44.6115C59.7852 44.5271 59.2014 44.592 58.6215 44.5881C58.6221 44.7109 58.621 44.8382 58.6217 44.961C59.8805 45.0083 61.1421 45.0879 62.4004 45.0907C64.6103 45.094 66.4025 44.2923 67.7863 42.4728C69.2064 40.6078 71.1981 40.6416 72.7528 42.4154C73.0409 42.7465 73.3366 43.104 73.5074 43.5005C74.9263 46.8213 76.5669 50.0764 77.1563 53.6798C77.4551 55.517 78.1149 57.1876 78.995 58.7894C79.5732 59.8461 80.3009 60.7823 81.3893 61.3954C82.5134 62.0304 83.6051 62.7204 84.7139 63.3807C84.7391 63.3959 84.8011 63.358 84.9418 63.3124C84.4753 62.5583 83.7917 62.1402 83.0617 61.7533C82.4272 61.4147 81.6512 61.1372 81.2476 60.5985C79.5669 58.3678 78.0917 56.0076 77.7056 53.1448C77.3669 50.6347 76.7993 48.182 75.872 45.8209C75.482 44.8287 75.0372 43.8564 74.6755 42.852C74.1863 41.4996 75.0088 39.754 76.1678 39.5868C78.1175 39.3067 81.5394 40.9032 82.516 42.6164C83.1383 43.7062 84.0087 44.4281 85.1272 44.9723C85.7841 45.2937 86.458 45.7496 86.8949 46.3224C88.4736 48.3769 90.8001 49.2924 92.9513 50.4848C93.1625 50.6027 93.4724 50.5513 93.7347 50.5801C93.6686 50.3139 93.5771 50.2228 93.4645 50.178C91.2671 49.2852 89.33 48.0528 87.8106 46.1705C87.1726 45.3821 86.2642 44.8146 85.5301 44.0975C84.8149 43.3983 84.1585 42.6364 83.4856 41.8967C83.0001 41.3671 82.612 40.6912 82.0297 40.3265C81.0474 39.7087 79.9499 39.2824 78.8949 38.7817C78.6378 38.6611 78.3431 38.609 78.0994 38.4677C77.3194 38.0165 77.2055 37.4575 77.9366 36.9636C78.5243 36.5613 79.3051 36.1915 79.9832 36.224C82.4325 36.3331 84.6557 37.0431 86.0336 39.3072C87.1196 41.0926 88.6191 42.409 90.4869 43.3244C91.4932 43.8161 92.2562 44.5656 92.8378 45.535C93.562 46.7488 94.3788 47.9265 95.7034 48.5423C96.9024 49.1003 98.157 49.5448 99.4022 49.9934C100.368 50.3385 101.306 50.2141 102.292 49.8866C103.437 49.5053 104.646 49.2535 105.847 49.1241C106.721 49.0312 107.567 49.368 108.414 50.1822C107.671 50.4498 107.131 50.7014 106.561 50.8346C104.719 51.2698 102.92 51.8654 101.43 53.0296C99.8057 54.2998 98.0727 54.3038 96.2571 53.8211C94.0485 53.2316 91.8105 53.0763 89.5369 53.1415C88.9773 53.1587 88.3788 53.077 87.8589 52.8831C86.4737 52.3605 85.1212 51.7493 83.753 51.1709C82.8552 50.7928 82.2091 51.0076 81.8823 51.9205C81.6487 52.5733 81.4749 53.2785 81.4356 53.9669C81.3097 56.3079 81.6249 58.4775 83.8502 59.9029C84.8407 60.5395 85.6129 61.423 86.0715 62.5573C86.2314 62.9547 86.5627 63.2821 86.8121 63.6447C87.3407 64.413 88.0307 65.1231 88.3521 65.9732C88.7792 67.0949 88.9379 68.321 89.1524 69.5119C89.1919 69.7336 88.9571 70.0026 88.8478 70.2511C88.6199 70.1031 88.3264 70.0019 88.1816 69.7957C87.8411 69.3082 87.5347 68.7873 87.2737 68.2506C86.4361 66.5223 85.1181 65.3329 83.3103 64.7126C82.3515 64.3831 81.377 64.0866 80.3931 63.8463C78.4722 63.3791 76.8995 62.4039 75.6969 60.8327C75.2244 60.2118 74.8017 59.5508 74.2824 58.9687C73.7762 58.3996 73.2416 57.8166 72.6101 57.3984C70.6702 56.1075 69.4717 53.0388 70.1862 51.0338C70.329 50.6291 70.8099 50.1347 70.2515 49.8082C70.0912 49.7131 69.5009 50.1874 69.2144 50.501C68.2912 51.5104 67.7705 51.6526 66.548 51.0487C66.2256 50.8891 65.8861 50.7071 65.6364 50.4565C64.8266 49.6414 63.8607 49.3822 62.7346 49.3747C61.1654 49.3604 59.6381 49.1228 58.2456 48.2714C57.5011 47.8161 56.6503 47.5297 55.8503 47.1618C54.9336 46.7396 53.9895 46.3665 53.1204 45.8642C52.7281 45.6377 52.4843 45.1495 52.1737 44.7834C52.228 44.719 52.2778 44.6528 52.3322 44.5884C52.7402 44.5917 53.1536 44.5554 53.5577 44.6015C54.6569 44.7287 55.4335 44.2711 55.9118 43.3116C56.3158 42.4997 56.6841 41.6659 57.0313 40.8263C57.4313 39.8669 57.767 38.8793 58.1819 37.9284C58.6958 36.7483 59.65 36.2441 60.9214 36.2338C61.6722 36.2275 62.4315 36.1803 63.165 36.0472C63.5185 35.9845 63.8261 35.6767 64.152 35.4804C64.1387 35.3891 64.1255 35.2978 64.1123 35.2065C63.6684 35.0246 63.2352 34.7897 62.7771 34.6699C61.9984 34.4643 61.2037 34.3254 60.4116 34.1666C57.0314 33.4811 54.4172 31.742 53.1041 28.4764C52.2695 26.3999 51.0777 24.5593 49.9092 22.6862C49.0601 21.321 48.3575 19.8367 48.8107 18.1867C49.546 15.4938 50.0527 12.7725 50.3646 9.99707C50.5661 8.21294 51.4895 6.82298 53.1414 6.00714C53.6705 5.77182 54.3723 5.25322 54.7558 5.87517Z" fill="white"/>
<path d="M66.1051 52.4108C67.5374 54.1516 68.2604 56.1941 68.2603 58.4548C68.2621 58.9613 68.1425 59.4978 67.9485 59.9656C65.9237 64.8962 62.3471 68.1376 57.2323 69.6353C52.8964 70.9057 49.2578 68.8841 48.2062 64.6404C47.5238 61.8866 48.2474 59.4524 50.0057 57.2813C51.9288 54.9124 54.5465 53.524 57.1884 52.14C58.2396 51.7656 59.2758 51.3306 60.3446 51.0232C62.5066 50.413 64.5533 50.5313 66.1051 52.4108Z" fill="white"/>
<path d="M23.3151 57.637C21.9871 53.3668 22.1657 49.2425 25.486 45.787C27.4537 43.7384 29.6456 41.9588 32.0799 40.474C33.7099 39.4773 35.2728 39.4943 36.8133 40.5767C38.4691 41.7363 39.5051 43.2411 39.256 45.374C39.0278 47.33 38.7798 49.2834 38.5317 51.2367C38.3121 52.9876 37.7246 54.5164 36.0183 55.3706C35.6961 55.5318 35.4194 55.7815 35.1147 55.9836C33.1758 57.2849 31.2355 58.5831 29.8951 59.4811C26.5978 60.9198 24.096 60.1432 23.3151 57.637Z" fill="white"/>
<path d="M45.0774 56.8037C45.9356 56.9601 46.6326 57.3313 46.8679 58.1029C47.1087 58.8871 47.1656 59.7728 47.1045 60.6011C46.9871 62.1476 46.6587 63.6804 46.5444 65.2255C46.4439 66.6118 45.8671 67.6286 44.7461 68.421C43.6219 69.2148 42.5545 70.0885 41.4371 70.898C40.8287 71.3391 40.1766 71.7132 39.7066 72.0163C36.6471 73.1325 33.8289 73.2756 31.2603 71.3825C28.4035 69.2704 27.8153 64.3012 30.2158 61.4731C31.7462 59.665 33.5528 58.0477 35.4199 56.5796C37.1729 55.2017 39.2248 54.9596 41.3948 55.8492C42.5622 56.3164 43.8304 56.576 45.0774 56.8037Z" fill="white"/>
<path d="M55.0738 48.2087C55.5721 48.3522 56.0932 48.4187 56.5932 48.5578C57.2427 48.7406 57.541 49.2426 57.2262 49.8109C56.8705 50.449 56.3975 51.0743 55.8332 51.5225C54.4536 52.6239 52.9968 53.6244 51.5613 54.6567C51.1628 54.9439 50.7548 55.2353 50.3156 55.4542C47.5185 56.8417 44.7872 56.2945 42.1594 55.0089C40.7217 54.3037 39.991 52.936 39.672 51.3985C38.637 46.3792 41.1372 41.6691 45.8628 39.675C48.2436 38.672 50.7849 38.1632 52.924 38.3574C53.6111 38.4196 54.302 38.6033 54.9529 38.8415C55.494 39.0412 55.8606 39.5026 55.7434 40.1312C55.5246 41.3036 55.0896 42.3899 54.1467 43.1802C53.5246 43.7018 52.8246 43.9734 51.9762 43.7531C51.6494 43.67 51.2847 43.7413 50.9392 43.7446C50.9673 44.1391 50.8836 44.5855 51.0394 44.9213C51.8508 46.6497 53.2648 47.6895 55.0738 48.2087Z" fill="white"/>
<path d="M51.6639 28.649C51.6747 28.6742 51.6842 28.6962 51.695 28.7214C52.2996 30.2292 53.2619 31.4674 54.4914 32.5121C54.9041 32.864 55.3236 33.2317 55.6649 33.6518C56.8809 35.15 56.4365 36.4568 54.5707 36.8798C54.1183 36.9814 53.6437 36.9881 53.1795 37.0537C52.3825 37.1693 51.5706 37.2243 50.7976 37.4304C49.6429 37.7374 48.5157 38.1519 47.3791 38.5183C45.3765 39.1607 43.3874 39.8606 41.3604 40.4203C40.1971 40.7422 39.0073 40.5607 38.0288 39.7698C36.3884 38.4469 34.9834 36.1199 36.2225 33.6352C36.4637 33.1472 36.6332 32.6227 36.8325 32.1154C37.8975 29.3737 39.7908 27.4467 42.4938 26.2565C43.4921 25.9758 44.4803 25.6286 45.4926 25.4239C48.7544 24.769 50.3435 25.6178 51.6639 28.649Z" fill="white"/>
<path d="M39.737 75.2226C40.4627 73.7201 41.3841 72.2563 42.4706 70.9938C44.4546 68.6883 46.7815 68.2793 49.5918 69.4602C50.3576 69.7833 51.114 70.1364 51.8798 70.4594C53.1386 70.9917 54.417 71.1536 55.7609 70.7315C56.5532 70.4836 57.3716 70.2878 58.1938 70.1874C59.9988 69.9696 61.1458 71.1692 60.894 72.975C60.7162 74.2341 60.1595 75.358 59.153 76.1047C57.576 77.2763 55.8976 78.3162 54.2669 79.4065C52.3269 79.8652 50.4757 80.4087 48.59 80.7247C46.343 81.103 44.072 81.0962 41.8923 80.2705C39.5198 79.3785 38.6437 77.4914 39.737 75.2226Z" fill="white"/>
<path d="M73.5038 59.5689C74.12 60.4972 74.7663 61.4089 75.4462 62.2948C76.3133 63.4248 76.8986 64.6798 76.8561 66.097C76.7592 69.3282 75.1861 71.938 72.8864 74.0214C71.6809 75.1113 70.048 75.7287 68.737 76.4873C68.0131 76.7207 67.4493 76.9188 66.8756 77.0763C66.5028 77.1809 66.1151 77.2509 65.7292 77.2902C64.0929 77.4578 62.5695 76.3718 62.1932 74.7619C61.559 72.0246 62.1727 69.4997 63.8699 67.3512C65.822 64.8766 67.7238 62.3975 69.2494 59.6254C70.2427 57.8174 72.363 57.8555 73.5038 59.5689Z" fill="white"/>
<path d="M32.1924 91.252C31.3619 90.9345 30.537 90.3012 29.991 89.5963C28.6775 87.8976 28.5443 86.3584 30.4306 85.0387C32.2099 83.7912 34.0902 82.683 35.925 81.5123C35.9588 81.5649 35.994 81.6206 36.0279 81.6732C36.3614 81.5295 36.6977 81.3922 37.0317 81.2409C38.3928 80.6248 39.6679 80.6838 41.0749 81.3089C42.1779 81.8 43.4644 81.9286 44.6869 82.0736C45.4172 82.1582 46.1835 81.9625 46.9302 81.8946C48.4217 81.7633 49.3838 82.6807 49.2313 84.1715C49.1733 84.7299 48.9759 85.2849 48.7663 85.8116C47.5341 88.9013 45.064 90.7709 42.0604 91.6615C38.8085 92.6255 35.4162 92.475 32.1924 91.252Z" fill="white"/>
<path d="M22.0693 81.5705C20.4841 80.1679 20.1732 78.0859 21.1655 76.241C21.818 75.0275 22.8157 74.1912 24.0649 73.6271C25.2211 73.1068 26.3718 72.5739 27.5185 72.0316C28.2188 71.7001 28.9529 71.3951 29.6793 71.8172C31.6937 72.9865 33.9219 73.4743 36.1466 74.0232C36.6476 74.147 37.1769 74.5532 37.4827 74.9773C38.4356 76.2978 38.269 78.2497 37.1773 79.6301C35.9999 81.1145 34.4292 82.0669 32.5691 82.9016C32.2665 83.0133 31.8103 83.2098 31.3404 83.3487C27.9415 84.3611 24.7881 83.9771 22.0693 81.5705Z" fill="white"/>
<path d="M36.0404 31.1248C35.3335 33.6152 34.6263 36.1916 32.7668 38.119C30.9153 40.0392 28.9066 41.8108 26.9159 43.5895C26.1864 44.2431 25.3574 44.8128 24.4972 45.2839C23.3232 45.9275 22.3498 45.4776 22.0978 44.1648C21.9239 43.2586 21.8651 42.2992 21.9512 41.3817C22.2425 38.2383 23.3532 35.3688 25.1477 32.7793C26.5172 30.8055 28.241 29.2126 30.429 28.0652C31.3438 27.9025 32.2529 27.6229 33.1689 27.6015C35.3034 27.5514 36.6202 29.0845 36.0404 31.1248Z" fill="white"/>
<path d="M12.8276 62.7616C12.1991 61.9952 11.6616 61.0852 11.3356 60.155C10.3581 57.3566 11.0266 54.7858 12.6797 52.4138C13.4219 51.3481 14.1331 50.2621 14.9019 49.2148C15.9866 47.7405 17.5205 47.1097 19.3044 47.1547C20.8156 47.1903 21.7525 48.1446 21.8466 49.6709C21.8929 50.4194 21.8344 51.1758 21.7763 51.9245C21.6078 54.0711 21.4604 56.2236 21.2051 58.3592C21.1177 59.0832 20.8388 59.83 20.4651 60.461C19.6138 61.9057 18.3515 62.9417 17.2798 63.4331C15.0403 64.4088 14.0575 64.2576 12.8276 62.7616Z" fill="white"/>
<path d="M15.7213 67.1856C17.0128 64.5628 19.0937 62.6296 21.5253 61.1384C23.6883 59.8115 26.4418 61.0168 26.9861 63.5019C27.3938 65.3668 27.4921 67.3016 27.7213 69.2024C27.8492 70.2701 27.4459 71.1526 26.5263 71.6419C24.4687 72.7369 22.4219 73.8832 20.2586 74.7328C17.973 75.6276 16.5176 74.8294 15.5378 72.5543C14.8349 70.9135 14.8692 68.9142 15.7213 67.1856Z" fill="white"/>
<path d="M51.7986 85.3861C50.6457 84.1555 50.6552 82.6704 51.9769 81.6423C53.4253 80.5187 55.0027 79.5559 56.2478 78.7137C57.8585 78.2439 59.1044 77.8715 60.3522 77.5206C61.2241 77.2757 62.0372 77.3881 62.8106 77.9018C63.9006 78.6224 65.1142 78.816 66.3983 78.636C66.8625 78.5704 67.3257 78.494 67.7899 78.4545C68.4484 78.3985 69.0357 78.5148 69.3734 79.1864C69.6998 79.8404 69.5529 80.4259 69.0746 80.9005C67.7727 82.1998 66.5429 83.606 65.0936 84.7189C62.5417 86.6758 59.6184 87.6923 56.3432 87.3719C54.6199 87.2076 53.0223 86.6944 51.7986 85.3861Z" fill="white"/>
<path d="M84.562 67.6017C84.8631 67.8936 85.1612 68.3173 85.2181 68.7181C85.4624 70.4632 85.4204 72.1935 84.6135 73.828C83.3642 76.358 81.1794 77.7988 78.3371 79.1161C77.7445 79.2818 76.759 79.6614 75.7394 79.8059C74.9411 79.9184 74.0436 79.9132 73.2905 79.6631C71.4814 79.0657 71.1225 77.0976 72.4964 75.8009C72.6846 75.6229 72.8786 75.4498 73.0771 75.2785C74.4305 74.0988 75.5483 72.7184 76.177 71.0338C76.7295 69.5536 77.1303 68.0157 77.5429 66.4876C77.9733 64.8884 78.7507 64.4156 80.3015 64.9415C81.9216 65.4897 83.3331 66.4113 84.562 67.6017Z" fill="white"/>
<path d="M66.0107 89.4644C65.3811 89.0678 64.8307 88.4394 64.4296 87.8026C63.9004 86.9636 64.1609 86.1651 64.9601 85.5523C66.0307 84.7294 67.0634 83.8444 68.1918 83.1123C69.2055 82.4519 70.2687 81.7329 71.4149 81.4407C73.7213 80.854 76.0902 80.4904 78.4478 80.1353C79.6923 79.95 80.3811 80.7352 80.1329 82.0992C79.4806 85.6778 77.6356 88.4271 74.5679 89.9833C71.4366 91.2012 68.645 91.1202 66.0107 89.4644Z" fill="white"/>
<path d="M74.0196 40.0905C73.7058 40.9642 73.525 41.0122 72.697 40.5967C71.1719 39.8359 70.2609 38.5347 69.5951 37.0233C69.5544 36.9289 69.5124 36.8314 69.4717 36.737C68.7115 34.9716 69.0206 34.4767 70.9055 34.2021C71.8712 34.0623 72.8543 33.859 73.7615 33.5056C77.6273 32.0011 81.0794 29.787 84.1765 27.0431C87.4672 24.1338 90.2839 20.869 91.5418 16.5223C91.5856 16.3729 91.6596 16.2329 91.7408 16.1009C92.1517 15.4352 92.8469 15.2478 93.6478 15.5743C94.4037 15.883 94.688 16.3872 94.5139 17.1784C94.4416 17.5043 94.3203 17.8288 94.1787 18.1323C92.8457 20.9707 91.1633 23.5865 89.1314 25.9799C86.2258 29.4023 82.6719 32.0556 79.0099 34.5877C76.92 36.0324 74.9253 37.5592 74.0196 40.0905Z" fill="white"/>
<path d="M23.3727 32.4432C24.0125 33.2272 23.5419 33.9968 23.1405 34.6845C21.6626 37.2123 20.8563 39.9134 20.8988 42.8533C20.9163 44.1327 20.2804 45.0035 19.1639 45.5813C17.9414 46.216 16.7351 46.8884 15.5252 47.5438C15.5238 47.5406 15.5211 47.5343 15.5197 47.5312C15.3822 47.6016 15.2429 47.6765 15.1053 47.747C13.6274 48.473 12.6832 48.0216 12.4073 46.4021C12.2991 45.7697 12.2498 45.1009 12.3229 44.4651C12.779 40.3704 14.4558 36.8318 17.3195 33.8751C18.2701 32.8949 19.3818 32.1327 20.7407 31.7974C21.7372 31.5473 22.6798 31.5964 23.3727 32.4432Z" fill="white"/>
<path d="M14.7216 87.7751C14.1522 85.327 15.2814 83.5314 17.7908 83.2601C19.1838 83.1079 20.6569 83.2195 22.0345 83.4992C24.9624 84.096 26.8689 86.0541 28.0392 88.7022C28.8531 90.5489 28.0584 92.2117 26.1573 92.5268C24.4559 92.8119 22.6748 93.0157 20.9793 92.8207C18.4649 92.5346 16.1428 91.647 15.0944 88.9613C14.9632 88.5701 14.8136 88.1794 14.7216 87.7751Z" fill="white"/>
<path d="M37.3041 26.8352C36.6125 27.0137 36.0408 26.7862 35.5558 26.249C34.5078 25.0888 34.3899 24.0876 35.0402 22.6958C36.0787 20.4729 37.9703 19.1398 39.977 17.9697C41.2897 17.2066 42.6691 16.4597 44.1156 16.0419C46.0226 15.4892 47.4776 16.8061 47.4658 18.7883C47.4619 19.1779 47.4703 19.5697 47.5249 19.9565C47.8324 22.1258 46.8547 23.5541 44.9614 24.459C44.5874 24.6387 44.1981 24.7914 43.8173 24.9554C43.8327 25.0084 43.8495 25.0647 43.8648 25.1177C41.6758 25.6911 39.4909 26.274 37.3041 26.8352Z" fill="white"/>
<path d="M82.2535 78.1793C82.5329 77.7195 82.8876 77.287 83.2761 76.907C84.8461 75.3729 85.8569 73.5275 86.3795 71.4148C86.7463 69.9363 86.8876 69.6927 88.0122 70.9355C88.275 71.2252 88.894 71.4585 89.2213 71.3437C89.5329 71.2356 89.8391 70.6561 89.8677 70.2633C89.9925 68.5868 89.864 66.9113 88.9958 65.4237C87.8889 63.5204 86.7119 61.6622 85.5304 59.8023C85.1699 59.2338 85.2381 58.8724 85.901 58.7399C86.2999 58.6614 86.7336 58.6462 87.1372 58.6999C89.6157 59.024 91.372 60.3044 92.0849 62.2542C93.1332 64.8095 93.3849 67.0139 92.9408 69.2569C91.9554 74.2361 88.7835 77.43 84.3447 79.5356C84.0039 79.6972 83.596 79.7722 83.2132 79.7841C82.2056 79.8264 81.73 79.0426 82.2535 78.1793Z" fill="white"/>
<path d="M12.924 82.9948C11.0313 81.9782 9.82192 80.3653 9.0629 78.7934C7.61057 75.4124 8.12035 73.4172 10.609 71.8679C12.3212 70.8023 13.4824 71.0819 14.4676 72.8324C15.0863 73.9313 15.7333 75.0179 16.9337 75.553C18.577 76.2852 19.1752 77.7174 19.5316 79.2986C19.7764 80.3869 19.4074 81.3143 18.4574 81.9323C17.7847 82.3712 17.0863 82.7764 16.3667 83.1236C15.2101 83.6777 14.0542 83.601 12.924 82.9948Z" fill="white"/>
<path d="M36.1157 18.7746C36.4432 19.2752 35.9573 19.7232 35.571 20.091C34.5484 21.0686 33.8643 22.2174 33.6054 23.6346C33.3354 25.1124 32.4456 26.1559 31.1147 26.8335C30.187 27.3039 29.2024 27.6944 28.36 28.2848C27.3674 28.9771 26.4939 29.8419 25.5812 30.6416C24.5521 31.5437 23.7123 31.3868 23.0992 30.1624C22.6721 29.3093 22.5995 28.4303 22.8971 27.5188C24.2533 23.3573 26.9658 20.4134 30.4059 18.7865C32.1425 18.0461 33.3981 17.5314 34.7486 17.8003C35.2554 17.9029 35.8234 18.3297 36.1157 18.7746Z" fill="white"/>
<path d="M48.0988 93.2876C46.2606 93.0384 45.671 91.3749 46.7832 89.8775C47.4317 89.0014 48.3361 88.2948 49.1896 87.5915C50.296 86.6786 51.4735 86.5109 52.8818 87.1131C55.033 88.0369 57.2998 88.4932 59.657 87.8772C59.8751 87.8205 60.1225 87.8408 60.3561 87.8633C61.3131 87.9548 61.8065 88.6152 61.5692 89.5455C61.4745 89.9146 61.2898 90.2739 61.0735 90.5946C60.3161 91.7117 59.2024 92.3741 57.985 92.8387C54.7546 94.5022 51.3945 93.7334 48.0988 93.2876Z" fill="white"/>
<path d="M6.45041 60.6697C7.31105 58.9002 8.98112 58.7069 10.1554 60.2902C11.3739 61.9328 12.4 63.7179 13.3844 65.2413C14.3947 67.466 14.1134 68.6838 12.3229 69.9921C11.6166 70.5089 10.8265 70.935 10.0281 71.29C8.02191 72.1838 7.08337 71.8755 5.96479 69.9885C5.67781 69.504 5.43751 68.9547 5.33847 68.4042C4.8582 65.7125 5.26119 63.1142 6.45041 60.6697Z" fill="white"/>
<path d="M26.5502 93.3611C28.7816 92.5829 30.9676 92.0892 33.2756 92.4679C34.0938 92.6006 34.9276 92.7264 35.7527 92.7366C37.8276 92.7645 39.906 92.7311 41.9812 92.6991C42.5435 92.6882 43.021 92.7661 43.2901 93.3217C43.5759 93.9074 43.3482 94.4008 42.9445 94.806C42.6383 95.1169 42.2901 95.4086 41.9094 95.6248C39.0084 97.2733 35.9348 98.2874 32.5437 98.0617C30.1617 97.9012 27.9047 97.3811 26.1475 95.6049C25.1366 94.5742 25.2932 93.8726 26.5502 93.3611Z" fill="white"/>
<path d="M11.47 46.7983C12.2865 50.1062 11.6026 53.135 9.76624 55.9478C9.00126 57.1166 8.04609 58.0949 6.98354 58.6421C5.07893 59.5033 3.84594 58.8145 3.61278 56.9565C3.57674 56.6735 3.55642 56.3839 3.57257 56.1009C3.80968 51.7834 5.82689 48.4377 9.25681 45.9123C10.3639 45.0961 11.1369 45.4533 11.47 46.7983Z" fill="white"/>
<path d="M4.93341 70.0969C5.19438 70.6336 5.5012 71.1468 5.77027 71.6763C6.24431 72.6211 6.88294 73.5323 7.12809 74.5347C7.42536 75.7533 7.40338 77.0535 7.49829 78.322C7.5845 79.501 6.97363 80.3087 5.78684 80.5587C4.72597 80.7805 3.81033 80.4474 3.12957 79.629C2.72021 79.1375 2.44293 78.5369 2.10769 77.9837C1.34123 76.2733 1.34119 74.4715 1.45095 72.6822C1.4956 71.9803 1.75568 71.2416 2.1055 70.6246C2.37862 70.1414 2.87631 69.7033 3.37747 69.4464C4.07954 69.0844 4.58618 69.3772 4.93341 70.0969Z" fill="white"/>
<path d="M47.6447 10.8103C48.6742 10.9488 49.2589 11.6222 49.1812 12.4465C49.0416 13.9241 48.2227 14.8289 46.7317 15.0309C45.3707 15.2141 43.958 15.1734 42.6404 15.5096C41.4348 15.8199 40.3136 16.4818 39.1714 17.0259C38.4252 17.3808 37.5586 17.8026 36.9098 17.2837C36.239 16.7481 36.682 15.871 37.0105 15.196C37.8842 13.3873 39.4127 12.3112 41.183 11.5451C41.5476 11.4216 41.8911 11.2924 42.2392 11.191C44.0117 10.6813 45.8218 10.562 47.6447 10.8103Z" fill="white"/>
<path d="M9.56889 82.2984C10.2764 82.7286 10.9584 83.2034 11.669 83.6322C12.9332 84.3934 13.6414 85.4575 13.7902 86.9639C13.8791 87.8545 14.2104 88.719 14.4319 89.5972C14.4629 89.5913 14.4926 89.5823 14.5237 89.5764C14.6284 89.7849 14.7394 89.9908 14.8379 90.202C15.298 91.1752 14.8764 91.9201 13.7873 91.9377C13.2835 91.9458 12.743 91.8428 12.2734 91.6534C8.85054 90.2625 7.37173 87.4264 6.77322 84.0097C6.63053 83.202 7.07418 82.4738 7.76033 82.0141C8.40335 81.5843 9.00955 81.9611 9.56889 82.2984Z" fill="white"/>
<path d="M55.2218 96.1065C54.9864 95.7938 54.7658 95.4635 54.5416 95.1423C54.8531 94.9559 55.1419 94.7084 55.4782 94.5972C56.7057 94.1991 58.0163 93.9854 59.1652 93.4309C60.1374 92.9599 61.1331 92.2663 61.7516 91.4068C62.7851 89.9694 63.2181 89.3204 65.3852 90.6104C65.6747 90.7804 65.9652 90.9612 66.2216 91.1753C66.9172 91.7599 67.0369 92.2716 66.6686 93.1054C66.0085 94.5871 64.8157 95.5074 62.9237 96.3633C60.7638 97.1256 58.1333 96.8297 55.4978 96.245C55.3979 96.2209 55.2759 96.1802 55.2218 96.1065Z" fill="white"/>
<path d="M63.5161 18.2737C63.5937 18.6618 63.8253 19.3902 63.846 20.1311C63.8594 20.6214 63.5715 21.1222 63.4189 21.6169C62.9417 21.427 62.3298 21.366 62.0084 21.0269C60.7253 19.6845 59.1164 18.8591 57.5443 17.9544C56.6305 17.4266 55.7248 16.8393 54.947 16.1334C54.1824 15.4406 54.4622 14.6524 55.481 14.6015C56.7401 14.5368 58.0184 14.5944 59.2733 14.7366C61.2649 14.9607 62.5375 16.192 63.5161 18.2737Z" fill="white"/>
<path d="M50.1549 94.6664C50.8349 94.7727 51.5649 94.9433 52.1306 95.304C52.5733 95.5871 53.0351 96.2089 53.0431 96.6867C53.0493 97.1428 52.481 97.6077 52.166 98.0716C52.1066 98.0375 52.0427 98.0016 51.9832 97.9675C51.6572 98.0594 51.3389 98.1779 51.0088 98.2342C48.5541 98.6498 46.1351 98.3859 43.7487 97.7648C42.8369 97.527 42.5167 96.8442 43.0185 96.1991C43.9293 95.031 44.9464 94.0147 46.6709 94.2942C47.8188 94.4825 49.0002 94.4885 50.1549 94.6664Z" fill="white"/>
<path d="M83.1158 56.9327C82.6182 55.9421 82.5624 54.8768 82.8498 53.8205C83.0943 52.9243 83.5143 52.8516 84.3769 53.2001C85.4736 53.6417 86.6205 53.9573 87.7606 54.2833C88.1517 54.3946 88.5925 54.3353 88.9957 54.4228C89.6749 54.5705 89.9489 55.1202 89.5418 55.6388C88.9906 56.3424 88.3159 56.9501 87.8067 57.4827C87.3044 57.5722 87.0238 57.6744 86.7467 57.6632C85.765 57.6271 84.7774 57.5861 83.8019 57.4691C83.549 57.4363 83.2372 57.1714 83.1158 56.9327Z" fill="white"/>
<path d="M4.62599 60.825C4.72935 61.2729 4.79049 61.7613 4.73551 62.214C4.59714 63.3479 4.42054 64.4797 4.18497 65.5958C4.00118 66.477 3.47238 67.1375 2.63045 67.5299C2.00294 67.8225 1.5798 67.6802 1.32624 67.0135C0.814574 65.1411 0.735693 63.2688 1.64625 61.4853C1.90718 60.9737 2.3657 60.5226 2.8325 60.1686C3.75622 59.4724 4.37029 59.7115 4.62599 60.825Z" fill="white"/>
<path d="M21.4789 93.721C21.8857 93.7994 22.3037 93.8432 22.6989 93.964C23.8638 94.3128 24.4627 94.8458 24.3971 95.4299C24.3311 96.0216 23.4838 96.6961 22.4871 96.8157C20.4492 97.0555 18.702 96.3941 17.2446 94.9589C17.0819 94.7976 16.9825 94.5756 16.7434 94.2197C16.7938 93.9555 16.7516 93.4589 16.9783 93.2232C17.1759 93.015 17.6915 93.0168 18.0443 93.0738C19.1945 93.2499 20.3345 93.4976 21.4789 93.721Z" fill="white"/>
</g>
</svg>
