<svg width="21" height="16" viewBox="0 0 21 16" fill="none" xmlns="http://www.w3.org/2000/svg">
<path d="M13.2949 14.4899C12.1358 13.2148 11.4402 11.8238 11.4402 9.50537C11.4402 5.4482 14.3382 1.85471 18.3954 0L19.4387 1.50695C15.6133 3.59349 14.8019 6.25963 14.5701 7.99842C15.1497 7.65066 15.9611 7.53474 16.7725 7.65066C18.8591 7.8825 20.4819 9.62129 20.4819 11.7078C20.4819 12.7511 20.0183 13.7944 19.3227 14.6058C18.5113 15.4172 17.584 15.765 16.4248 15.765C15.1497 15.765 13.9905 15.1854 13.2949 14.4899Z" fill="#D61942"/>
<path d="M2.33664 14.4899C1.17745 13.2148 0.481934 11.8238 0.481934 9.50537C0.481934 5.4482 3.37991 1.85471 7.43708 0L8.48035 1.50695C4.65502 3.59349 3.84359 6.25963 3.61175 7.99842C4.19135 7.65066 5.00278 7.53474 5.81421 7.65066C7.90076 7.8825 9.52363 9.62129 9.52363 11.7078C9.52363 12.7511 9.05995 13.7944 8.36444 14.6058C7.553 15.4172 6.62565 15.765 5.46646 15.765C4.19135 15.765 3.03215 15.1854 2.33664 14.4899Z" fill="#D61942"/>
</svg>
