<svg width="26" height="25" viewBox="0 0 26 25" fill="none" xmlns="http://www.w3.org/2000/svg">
<path d="M21.1943 10.0916L22.5159 5.8627L18.3223 4.12388L18.7478 2.63467L18.3506 2.33159C17.8753 1.96885 17.2956 1.64805 16.6274 1.37798C15.4633 0.907471 14.2343 0.668945 12.9746 0.668945C11.7149 0.668945 10.4859 0.907471 9.32183 1.37798C8.65361 1.64805 8.07388 1.9689 7.59858 2.33159L7.20147 2.63467L7.64761 4.19624L3.62866 5.8627L4.9502 10.0916H0.572266V24.0564H25.5723V10.0916H21.1943ZM5.42603 6.70327L8.05273 5.61411L8.80356 8.24199L10.2121 7.83955L8.89233 3.22046C9.18008 3.04507 9.50747 2.88291 9.8708 2.73608C11.8433 1.93882 14.106 1.93882 16.0785 2.73608C16.4418 2.88291 16.7692 3.04507 17.0569 3.22046L15.7372 7.83955L17.1457 8.24199L17.9172 5.5417L20.7186 6.70322L19.6597 10.0916H6.48486L5.42603 6.70327ZM24.1074 22.5916H2.03711V11.5564H24.1074V22.5916Z" fill="black"/>
<path d="M10.875 21.1267H15.2695V19.2712H17.1738V14.8767H15.2695V13.0212H10.875V14.8767H8.9707V19.2712H10.875V21.1267ZM10.4355 17.8064V16.3416H12.3398V14.4861H13.8047V16.3416H15.709V17.8064H13.8047V19.6619H12.3398V17.8064H10.4355Z" fill="black"/>
</svg>
