<svg width="26" height="26" viewBox="0 0 26 26" fill="none" xmlns="http://www.w3.org/2000/svg">
<path d="M25.1372 13.0175C24.8046 7.24493 20.5734 2.4345 14.8159 1.4376C14.5839 1.39765 14.4352 1.21841 14.3498 1.07416C13.9913 0.470436 13.3632 0.110352 12.6697 0.110352C11.9761 0.110352 11.348 0.470436 10.9884 1.07528C10.9041 1.21846 10.7554 1.39765 10.5246 1.4376C4.76603 2.4345 0.534716 7.24493 0.202117 13.0175C0.186457 13.0695 0.169678 13.1213 0.169678 13.1785V14.3148C0.169678 14.6289 0.423814 14.883 0.737876 14.883H1.36371C1.9359 20.6175 6.78773 25.1103 12.6697 25.1103C18.5516 25.1103 23.4035 20.6175 23.9756 14.883H24.6015C24.9155 14.883 25.1697 14.6289 25.1697 14.3148V13.1785C25.1696 13.1213 25.1528 13.0695 25.1372 13.0175ZM22.8969 13.7467C22.8969 19.3858 18.3093 23.974 12.6697 23.974C7.03004 23.974 2.44242 19.3858 2.44242 13.7467V13.7258C5.00552 14.8107 11.1755 14.883 12.6697 14.883C14.1639 14.883 20.3338 14.8107 22.8969 13.7258V13.7467ZM2.58997 12.6104C3.51772 12.1038 7.24417 11.474 12.6696 11.474C18.0951 11.474 21.8215 12.1038 22.7493 12.6104C21.8216 13.1169 18.0951 13.7467 12.6697 13.7467C7.24422 13.7467 3.51772 13.1169 2.58997 12.6104ZM12.6697 10.3376C10.8929 10.3376 2.48274 10.4339 1.41858 12.2219C2.06939 7.36393 5.7739 3.41296 10.7188 2.55728C11.2326 2.46795 11.6753 2.14669 11.9661 1.65451C12.2702 1.14405 13.0703 1.14512 13.3722 1.65339C13.664 2.14664 14.1068 2.46795 14.6217 2.55728C19.5656 3.41296 23.27 7.36393 23.9208 12.2219C22.8566 10.4339 14.4465 10.3376 12.6697 10.3376Z" fill="black"/>
</svg>
