<svg width="26" height="24" viewBox="0 0 26 24" fill="none" xmlns="http://www.w3.org/2000/svg">
<path d="M24.4624 6.66202L13.3556 0.256193C13.1116 0.11637 12.8321 0.0509106 12.5515 0.0677892C12.3283 0.0767911 12.1107 0.139853 11.9173 0.251594L0.824341 6.66202C0.159669 7.0924 -0.0302518 7.98006 0.400078 8.64474C0.799097 9.26097 1.59909 9.47624 2.25344 9.14346L2.62565 8.92746V22.4329C2.62565 23.2933 3.3231 23.9907 4.18342 23.9907H21.0894C21.9497 23.9907 22.6471 23.2933 22.6471 22.4329V8.92746C22.962 9.16411 23.3387 9.30456 23.7316 9.33186C24.5234 9.33426 25.1673 8.69429 25.1697 7.90247C25.1713 7.39259 24.902 6.92029 24.4624 6.66202ZM21.4984 22.4329C21.4936 22.6568 21.3132 22.8371 21.0894 22.8419H4.18347C3.96321 22.8323 3.78831 22.6533 3.78367 22.4329V8.26573L12.6342 3.14663L21.4985 8.26573V22.4329H21.4984ZM24.0028 8.04518C23.9232 8.17801 23.7531 8.22458 23.6168 8.15085L22.3578 7.42018L12.9237 1.98862C12.7465 1.88407 12.5265 1.88407 12.3493 1.98862L2.91518 7.42023L1.67903 8.1509C1.54283 8.22458 1.37272 8.17801 1.29303 8.04523C1.21597 7.91049 1.26088 7.73887 1.3941 7.65922C1.67443 7.53515 12.2803 1.30398 12.6111 1.22585H12.6525C12.8685 1.22585 23.6811 7.60409 23.8787 7.65922C24.0191 7.73021 24.0754 7.90159 24.0044 8.04205C24.0039 8.04303 24.0034 8.0441 24.0028 8.04518Z" fill="black"/>
<path d="M14.1874 17.0703C15.0459 17.0627 15.7365 16.3619 15.7314 15.5033V12.4061C15.7314 11.5476 15.0367 10.8508 14.1782 10.8483H11.0856C10.227 10.8509 9.53235 11.5476 9.53235 12.4061V15.5033C9.52726 16.3636 10.2206 17.0652 11.0809 17.0703C11.0825 17.0703 11.084 17.0703 11.0856 17.0703H14.1874ZM14.1874 15.926H13.2086V14.5888H14.5871V15.5079C14.5872 15.7302 14.4096 15.9119 14.1873 15.9169V15.926H14.1874ZM14.5964 12.4153V13.44H13.2178V12.0155H14.1966C14.4101 12.0244 14.5825 12.1929 14.5964 12.4061L14.5964 12.4153ZM11.0856 12.0155H12.0552V13.44H10.6766V12.4061C10.6909 12.1894 10.8685 12.0198 11.0856 12.0155ZM10.6766 15.5033V14.5842H12.0551V15.9122H11.0855C10.8597 15.9122 10.6766 15.7291 10.6766 15.5033Z" fill="black"/>
<path d="M10.1298 6.68037C10.1323 6.99582 10.3887 7.25018 10.7042 7.25018H14.5688C14.8847 7.2785 15.1639 7.04538 15.1922 6.72939C15.2205 6.41344 14.9874 6.13428 14.6714 6.10596C14.6373 6.10287 14.6029 6.10287 14.5688 6.10596H10.7042C10.3869 6.10596 10.1298 6.36315 10.1298 6.68037Z" fill="black"/>
<path d="M5.13013 9.33186C5.13013 9.64908 5.38732 9.90627 5.70454 9.90627H19.5684C19.8844 9.9346 20.1635 9.70148 20.1919 9.38548C20.2202 9.06954 19.9871 8.79038 19.6711 8.76205C19.6369 8.75897 19.6026 8.75897 19.5684 8.76205H5.70454C5.38987 8.75951 5.13268 9.01254 5.13013 9.32726C5.13013 9.32878 5.13013 9.3303 5.13013 9.33186Z" fill="black"/>
<path d="M19.5684 11.6478H16.7515C16.4343 11.6478 16.1771 11.905 16.1771 12.2223C16.1771 12.5395 16.4343 12.7967 16.7515 12.7967H19.5684C19.8752 12.7162 20.0539 12.3835 19.9734 12.0766C19.9209 11.8759 19.7641 11.7192 19.5684 11.6478Z" fill="black"/>
<path d="M5.70454 12.7967H8.34224C8.65946 12.7967 8.91665 12.5395 8.91665 12.2223C8.91665 11.905 8.65946 11.6478 8.34224 11.6478H5.70454C5.38732 11.6478 5.13013 11.905 5.13013 12.2223C5.13013 12.5395 5.38727 12.7967 5.70454 12.7967Z" fill="black"/>
<path d="M19.5684 14.7726H16.871C16.5537 14.7726 16.2965 15.0298 16.2965 15.347C16.2965 15.6643 16.5537 15.9214 16.871 15.9214H19.5684C19.8856 15.9214 20.1428 15.6643 20.1428 15.347C20.1428 15.0298 19.8857 14.7726 19.5684 14.7726Z" fill="black"/>
<path d="M5.70454 15.9306H8.34224C8.65946 15.9306 8.91665 15.6735 8.91665 15.3562C8.91665 15.039 8.65946 14.7818 8.34224 14.7818H5.70454C5.38732 14.7818 5.13013 15.039 5.13013 15.3562C5.13013 15.6735 5.38727 15.9306 5.70454 15.9306Z" fill="black"/>
<path d="M19.5684 17.7549H5.70449C5.38855 17.7833 5.15538 18.0624 5.1837 18.3784C5.20851 18.6551 5.42778 18.8744 5.70449 18.8992H19.5684C19.8843 18.8708 20.1175 18.5917 20.0892 18.2757C20.0644 17.999 19.8451 17.7798 19.5684 17.7549Z" fill="black"/>
<path d="M19.5684 20.3145H5.70449C5.38727 20.3145 5.13008 20.5717 5.13008 20.8889C5.13008 21.2061 5.38727 21.4633 5.70449 21.4633H19.5684C19.8856 21.4633 20.1428 21.2061 20.1428 20.8889C20.1428 20.5717 19.8857 20.3145 19.5684 20.3145Z" fill="black"/>
</svg>
