<svg width="26" height="26" viewBox="0 0 26 26" fill="none" xmlns="http://www.w3.org/2000/svg">
<path d="M23.7374 5.76606H22.4441C22.2672 4.45166 21.8482 3.24082 21.2201 2.26396C20.3368 0.890479 19.1458 0.134033 17.8664 0.134033H15.178C14.9757 0.134033 14.8118 0.297949 14.8118 0.500244C14.8118 0.702539 14.9757 0.866455 15.178 0.866455H17.8664C18.8879 0.866455 19.8602 1.50347 20.604 2.66011C21.38 3.86689 21.8074 5.47856 21.8074 7.19829V14.7719C21.6402 14.8059 21.5144 14.9536 21.5144 15.1308C21.5144 15.3079 21.6402 15.4557 21.8074 15.4896V20.2664C21.8074 20.4687 21.9713 20.6326 22.1736 20.6326C22.3759 20.6326 22.5398 20.4687 22.5398 20.2664V8.63066H23.7374C24.5271 8.63066 25.1697 7.98813 25.1697 7.19834C25.1697 6.40859 24.5271 5.76606 23.7374 5.76606ZM23.7374 7.89824H22.5398V7.19834C22.5398 6.96313 22.5322 6.72964 22.5173 6.49849H23.7375C24.1233 6.49849 24.4373 6.8125 24.4373 7.19839C24.4373 7.58428 24.1233 7.89824 23.7374 7.89824Z" fill="black"/>
<path d="M22.1736 21.4133C21.9713 21.4133 21.8074 21.5772 21.8074 21.7795V24.1385L20.7983 23.4229C20.5503 23.2471 20.2167 23.247 19.9685 23.4229L18.5933 24.3982L17.218 23.4229C16.9699 23.2471 16.6363 23.247 16.3881 23.4229L15.0129 24.3983L13.6375 23.4229C13.3893 23.247 13.0559 23.2469 12.8076 23.4229L11.7983 24.1386V15.4896C11.9655 15.4557 12.0913 15.308 12.0913 15.1308C12.0913 14.9537 11.9655 14.8059 11.7983 14.772V7.19834C11.7983 5.33984 11.3296 3.58745 10.4786 2.26396C10.1061 1.68472 9.67871 1.21572 9.21318 0.866455H13.665C13.8673 0.866455 14.0312 0.702539 14.0312 0.500244C14.0312 0.297949 13.8673 0.134033 13.665 0.134033H7.12485C4.88677 0.134033 2.98853 2.48726 2.54697 5.76606H1.60195C0.812207 5.76606 0.169678 6.40859 0.169678 7.19834C0.169678 7.98813 0.812207 8.63066 1.60195 8.63066H2.54756C2.75864 10.1912 3.31362 11.6028 4.12358 12.6263C4.19585 12.7176 4.30288 12.7653 4.41099 12.7653C4.49058 12.7653 4.5707 12.7395 4.63799 12.6862C4.79658 12.5607 4.82339 12.3304 4.6979 12.1718C3.98506 11.271 3.48955 10.0229 3.28682 8.63071H4.96567C5.34331 9.87886 6.175 10.674 7.12485 10.674C7.78784 10.674 8.39937 10.2908 8.84668 9.59512C9.29028 8.90532 9.49053 8.02837 9.49053 7.19839C9.49053 6.37036 9.29092 5.49248 8.84668 4.80171C8.39937 4.10596 7.78789 3.7228 7.12485 3.7228C6.17446 3.7228 5.34321 4.51768 4.96562 5.76606H3.28706C3.48271 4.42437 3.95234 3.20957 4.62607 2.31733C5.33257 1.38174 6.22002 0.866455 7.1249 0.866455C8.14648 0.866455 9.1187 1.50347 9.8625 2.66011C10.6385 3.86689 11.0659 5.47856 11.0659 7.19829C11.0659 8.91802 10.6385 10.5298 9.8625 11.7365C9.1187 12.8932 8.14644 13.5302 7.1249 13.5302C6.66645 13.5302 6.21597 13.4017 5.78574 13.1484C5.61157 13.0459 5.38706 13.1039 5.28433 13.2781C5.18169 13.4524 5.23979 13.6769 5.41406 13.7795C5.95835 14.1 6.53398 14.2626 7.12485 14.2626H11.0658V24.1677C11.0658 24.4371 11.2145 24.6813 11.4538 24.805C11.693 24.9286 11.9783 24.9087 12.198 24.7529L13.2224 24.0265L14.5979 25.0019C14.8461 25.1777 15.1796 25.1779 15.4278 25.0019L16.803 24.0265L18.1783 25.0019C18.3024 25.0898 18.4478 25.1338 18.5932 25.1338C18.7386 25.1338 18.884 25.0898 19.0082 25.0019L20.3834 24.0265L21.4074 24.7528C21.6272 24.9086 21.9124 24.9287 22.1517 24.8049C22.391 24.6812 22.5397 24.4371 22.5397 24.1677V21.7795C22.5398 21.5772 22.3758 21.4133 22.1736 21.4133ZM0.9021 7.19834C0.9021 6.81245 1.21606 6.49849 1.60195 6.49849H8.70151C8.7397 6.73223 8.75806 6.97314 8.75806 7.19834C8.75806 7.42383 8.7397 7.66436 8.70151 7.89824H1.60195C1.21606 7.89824 0.9021 7.58423 0.9021 7.19834ZM7.12485 9.94145C6.56577 9.94145 6.03618 9.42847 5.73823 8.63062H8.50913C8.21743 9.4105 7.70029 9.94145 7.12485 9.94145ZM7.12485 4.45522C7.70029 4.45522 8.21743 4.98623 8.50913 5.76606H5.73823C6.03613 4.96802 6.56538 4.45522 7.12485 4.45522ZM9.21313 13.5302C9.67861 13.1809 10.106 12.7119 10.4785 12.1327C10.7012 11.7863 10.897 11.41 11.0658 11.0107V13.5302H9.21313Z" fill="black"/>
<path d="M13.2984 14.7646C13.0961 14.7646 12.9322 14.9285 12.9322 15.1308C12.9322 15.3331 13.0961 15.497 13.2984 15.497H13.8706C14.0729 15.497 14.2368 15.3331 14.2368 15.1308C14.2368 14.9285 14.0729 14.7646 13.8706 14.7646H13.2984Z" fill="black"/>
<path d="M18.1617 15.497C18.364 15.497 18.5279 15.3331 18.5279 15.1308C18.5279 14.9285 18.364 14.7646 18.1617 14.7646H17.5896C17.3873 14.7646 17.2233 14.9285 17.2233 15.1308C17.2233 15.3331 17.3873 15.497 17.5896 15.497H18.1617Z" fill="black"/>
<path d="M20.3072 15.497C20.5095 15.497 20.6734 15.3331 20.6734 15.1308C20.6734 14.9285 20.5095 14.7646 20.3072 14.7646H19.7351C19.5328 14.7646 19.3688 14.9285 19.3688 15.1308C19.3688 15.3331 19.5328 15.497 19.7351 15.497H20.3072Z" fill="black"/>
<path d="M16.0161 15.497C16.2184 15.497 16.3823 15.3331 16.3823 15.1308C16.3823 14.9285 16.2184 14.7646 16.0161 14.7646H15.4439C15.2416 14.7646 15.0777 14.9285 15.0777 15.1308C15.0777 15.3331 15.2416 15.497 15.4439 15.497H16.0161Z" fill="black"/>
</svg>
