<svg width="26" height="26" viewBox="0 0 26 26" fill="none" xmlns="http://www.w3.org/2000/svg">
<path d="M23.92 2.45986C23.8419 1.32738 22.9047 0.468262 21.8113 0.468262H8.76828C7.67486 0.468262 6.73764 1.32738 6.65953 2.45986L6.22997 8.98137H2.63729C2.01247 8.98137 1.46576 9.44998 1.42671 10.0748L0.177078 23.8207C0.138027 24.1722 0.25518 24.4846 0.489485 24.7579C0.723791 24.9922 1.0362 25.1485 1.38766 25.1485H22.5142C23.9982 25.1485 25.1697 23.9379 25.1697 22.493C25.1697 22.4539 23.92 2.49891 23.92 2.45986ZM7.4015 2.49891C7.44055 1.79599 8.02632 1.24928 8.76828 1.24928H21.8113C22.5142 1.24928 23.139 1.79599 23.1781 2.53796L24.3106 20.5404C23.8419 20.1109 23.2171 19.8375 22.5533 19.8375H6.93289C6.69858 19.8375 6.46428 19.9156 6.26902 19.9937L7.4015 2.49891ZM1.07525 24.2112C0.958097 24.1331 0.919046 24.016 0.958097 23.8598L2.20773 10.1529C2.24678 9.91859 2.44203 9.72333 2.67634 9.72333H3.22305L1.85627 24.3674H1.38766C1.2705 24.3674 1.15335 24.3284 1.07525 24.2112ZM22.5142 24.3674H2.20773L3.53546 9.72333H6.15187L5.4099 21.2824C5.4099 22.1025 6.07377 22.8054 6.93289 22.8054H21.4208C21.616 22.8054 21.8113 22.6492 21.8113 22.4149C21.8113 22.2196 21.6551 22.0244 21.4208 22.0244H6.93289C6.50333 22.0244 6.19092 21.6729 6.19092 21.2824V21.2434C6.19092 20.8528 6.54238 20.5014 6.93289 20.5014H22.5142C23.5686 20.5014 24.3887 21.3605 24.4277 22.3758V22.4149C24.3887 23.5474 23.5686 24.3674 22.5142 24.3674Z" fill="black"/>
<path d="M7.59676 17.104C7.71391 17.104 7.79201 17.0259 7.79201 16.9478V16.9087C7.79201 16.7916 7.71391 16.7135 7.63581 16.7135C7.51865 16.7135 7.44055 16.7916 7.44055 16.8697V16.9087C7.4015 16.9868 7.4796 17.104 7.59676 17.104Z" fill="black"/>
<path d="M7.67486 15.8543C7.79201 15.8543 7.87011 15.7762 7.87011 15.6591L8.57303 5.03722C8.57303 4.92007 8.49493 4.84197 8.37777 4.84197C8.29967 4.84197 8.18252 4.92007 8.18252 5.03722L7.4796 15.6591C7.4796 15.7762 7.59676 15.8543 7.67486 15.8543Z" fill="black"/>
<path d="M10.057 2.57701L21.8503 2.61606L22.1628 7.73174C22.1628 7.84889 22.2409 7.92699 22.358 7.92699C22.4752 7.92699 22.5533 7.84889 22.5533 7.73174L22.2409 2.57701C22.2409 2.38176 22.0456 2.1865 21.8503 2.1865H10.057C9.93981 2.1865 9.86171 2.2646 9.86171 2.38176C9.86171 2.49891 9.93981 2.57701 10.057 2.57701Z" fill="black"/>
<path d="M8.76828 2.57701H8.88544C9.00259 2.57701 9.08069 2.49891 9.08069 2.38176C9.08069 2.2646 9.00259 2.1865 8.88544 2.1865H8.76828C8.65113 2.1865 8.57303 2.2646 8.57303 2.38176C8.57303 2.49891 8.65113 2.57701 8.76828 2.57701Z" fill="black"/>
<path d="M21.6551 18.4707H21.3427C21.2255 18.4707 21.1474 18.5488 21.1474 18.666C21.1474 18.7832 21.2255 18.8613 21.3427 18.8613H21.6551C21.7722 18.8613 21.8503 18.7832 21.8503 18.666C21.8503 18.5488 21.7332 18.4707 21.6551 18.4707Z" fill="black"/>
<path d="M9.82266 18.8613H20.3274C20.4445 18.8613 20.5226 18.7832 20.5226 18.666C20.5226 18.5488 20.4445 18.4707 20.3274 18.4707H9.82266C9.70551 18.4707 9.6274 18.5488 9.6274 18.666C9.6274 18.7832 9.70551 18.8613 9.82266 18.8613Z" fill="black"/>
</svg>
