<svg width="20" height="20" viewBox="0 0 20 20" fill="none" xmlns="http://www.w3.org/2000/svg">
<path fill-rule="evenodd" clip-rule="evenodd" d="M3.09499 0.378954H17.2995C18.7705 0.378954 19.9629 1.57138 19.9629 3.04231V17.2469C19.9629 18.7178 18.7705 19.9102 17.2995 19.9102H3.09499C1.62406 19.9102 0.431641 18.7178 0.431641 17.2469V3.04231C0.431641 1.57138 1.62406 0.378954 3.09499 0.378954ZM15.3153 5.50148L15.5173 5.42824C15.9423 5.2762 16.3818 5.61911 16.2886 6.03637L14.382 14.4603C14.2922 14.8554 13.7906 15.0329 13.4388 14.7932L12.2293 13.9731C11.2542 13.3119 9.95057 13.4171 9.09418 14.2262C9.03433 14.2822 8.96169 14.3228 8.88259 14.3445C8.80348 14.3661 8.7203 14.3681 8.64025 14.3502C8.5602 14.3324 8.48572 14.2953 8.42326 14.2422C8.3608 14.189 8.31226 14.1215 8.28186 14.0453L7.75251 12.4917L7.73627 12.444C7.41537 11.5021 6.64838 10.7807 5.68869 10.518L4.38559 10.1612C4.30606 10.1443 4.23438 10.1015 4.18178 10.0395C4.12919 9.9775 4.09866 9.89979 4.09498 9.81856C4.0913 9.73733 4.11468 9.65718 4.16145 9.59066C4.20821 9.52415 4.27573 9.47503 4.35341 9.45101L15.3153 5.50148ZM9.1652 11.3464L14.1179 7.29813C14.2422 7.19604 14.098 7.01737 13.957 7.09949L12.9871 7.65436L7.83352 10.6085C7.78221 10.6362 7.74216 10.681 7.72029 10.735C7.69841 10.7891 7.69607 10.8491 7.71367 10.9048L8.12982 12.1421L8.51883 13.3091C8.52128 13.3165 8.52321 13.3242 8.52515 13.332C8.53048 13.3533 8.53583 13.3747 8.55205 13.3885C8.56328 13.3981 8.57786 13.4028 8.59258 13.4016C8.6073 13.4005 8.62094 13.3935 8.63052 13.3823C8.64473 13.3656 8.64594 13.3427 8.64714 13.3201C8.64754 13.3128 8.64793 13.3054 8.64877 13.2983L8.78678 12.1321L8.83894 11.7015C8.84754 11.6368 8.88096 11.5779 8.93216 11.5373L9.1652 11.3464Z" fill="#D61942"/>
</svg>
