<svg width="24" height="26" viewBox="0 0 24 26" fill="none" xmlns="http://www.w3.org/2000/svg">
<path d="M22.0683 4.99531C21.6278 4.52628 21.0376 4.26769 20.4063 4.26725C19.7748 4.26554 19.1823 4.5252 18.74 4.99492L17.5613 6.29456L16.3097 4.99482C15.8676 4.52564 15.2762 4.26725 14.6445 4.26725C14.0129 4.26725 13.4215 4.52564 12.9789 4.99531C12.0815 5.95091 12.0815 7.50577 12.9793 8.46181L13.104 8.59418C12.9329 8.70077 12.7743 8.82938 12.6344 8.97816L11.4565 10.2775L10.2048 8.97772C10.1398 8.90887 10.0713 8.84467 9.99979 8.78476L10.3863 8.37407C11.2864 7.41827 11.2864 5.86302 10.3866 4.90752C9.94584 4.43853 9.35557 4.17999 8.72447 4.17955H8.72281C8.09138 4.17955 7.50008 4.43795 7.058 4.90713L5.87969 6.20682L4.62766 4.90728C4.18582 4.43805 3.59448 4.1796 2.96265 4.1796C2.33082 4.1796 1.73957 4.438 1.29739 4.90757C0.399311 5.86322 0.399311 7.41813 1.29759 8.37412L4.17772 11.4334L5.48141 12.7029C5.44342 13.061 5.27643 13.2546 5.05559 13.5104C4.77581 13.8344 4.42767 14.2377 4.42767 15.0011C4.42767 15.7649 4.77576 16.1684 5.05549 16.4927C5.30753 16.7849 5.48961 16.996 5.48961 17.4632C5.48961 17.9308 5.30749 18.142 5.05544 18.4344C4.77571 18.7587 4.42767 19.1624 4.42767 19.9264C4.42767 20.6908 4.77576 21.0945 5.05549 21.419C5.30753 21.7114 5.48961 21.9226 5.48961 22.3902H6.28726C6.28726 21.6263 5.93926 21.2226 5.65958 20.8981C5.40748 20.6057 5.22526 20.3943 5.22526 19.9264C5.22526 19.4589 5.40739 19.2476 5.65943 18.9553C5.93917 18.6309 6.28721 18.2272 6.28721 17.4632C6.28721 16.6994 5.93912 16.2959 5.65939 15.9717C5.40734 15.6795 5.22526 15.4684 5.22526 15.0011C5.22526 14.5344 5.40729 14.3236 5.65929 14.0317C5.91749 13.7327 6.23335 13.3654 6.28062 12.7103L6.71606 12.2575C6.76567 12.3223 6.81816 12.385 6.87431 12.445L9.75444 15.5043L11.0383 16.7548C10.9822 16.9947 10.8352 17.1473 10.6444 17.3447C10.3581 17.6412 10.0017 18.0102 10.0017 18.7203C10.0017 19.4317 10.3582 19.8009 10.6447 20.0977C10.888 20.3496 11.0637 20.5316 11.0637 20.9203C11.0637 21.3097 10.8878 21.492 10.6445 21.7442C10.3581 22.041 10.0017 22.4104 10.0017 23.1218C10.0017 23.8329 10.3581 24.2022 10.6445 24.499C10.8879 24.7512 11.0637 24.9334 11.0637 25.3228H11.8613C11.8613 24.6113 11.5048 24.2419 11.2184 23.9451C10.9751 23.693 10.7994 23.5107 10.7994 23.1218C10.7994 22.7325 10.9753 22.5502 11.2186 22.298C11.5049 22.0012 11.8613 21.6318 11.8613 20.9203C11.8613 20.2094 11.5049 19.8402 11.2186 19.5436C10.9752 19.2915 10.7994 19.1094 10.7994 18.7203C10.7994 18.3325 10.975 18.1506 11.2182 17.8989C11.4634 17.645 11.7623 17.3339 11.8407 16.7984L13.0851 15.5042L15.9625 12.4454C16.0989 12.3011 16.2167 12.139 16.3145 11.9646L17.1536 12.7816C17.1038 13.1669 16.9323 13.3869 16.7218 13.6568C16.4476 14.0081 16.1065 14.4453 16.1065 15.2627C16.1065 16.0808 16.4477 16.5183 16.7218 16.8699C16.9713 17.1899 17.1684 17.4427 17.1684 17.9865C17.1684 18.5309 16.9712 18.784 16.7216 19.1043C16.4475 19.4561 16.1064 19.8939 16.1064 20.7124C16.1064 21.531 16.4476 21.9688 16.7217 22.3205C16.9712 22.6408 17.1683 22.8937 17.1683 23.4377H17.966C17.966 22.6195 17.6249 22.1819 17.3509 21.8303C17.1012 21.5099 16.904 21.2569 16.904 20.7124C16.904 20.168 17.1012 19.915 17.3508 19.5946C17.6249 19.2428 17.966 18.805 17.966 17.9865C17.966 17.1685 17.6248 16.7309 17.3508 16.3794C17.1012 16.0593 16.9041 15.8065 16.9041 15.2627C16.9041 14.7197 17.1012 14.4671 17.3506 14.1474C17.5927 13.8372 17.8888 13.4563 17.9528 12.8076L19.1899 11.5209L22.0677 8.46191C22.9686 7.50597 22.9686 5.95067 22.0683 4.99531ZM6.87421 8.97821C6.24707 9.64563 6.04126 10.6343 6.32607 11.5121L5.87925 11.9768L4.75266 10.8802L1.87873 7.8275C1.26375 7.17301 1.26375 6.10819 1.87849 5.45405C2.16803 5.14658 2.55313 4.9772 2.9628 4.9772C3.37246 4.9772 3.75756 5.14658 4.05023 5.45732L5.89752 7.37487L7.64104 5.45151C7.93064 5.14551 8.31467 4.97715 8.72296 4.97715H8.72403C9.13287 4.97739 9.51689 5.14668 9.80571 5.454C10.4218 6.10828 10.4218 7.17287 9.80556 7.82735L9.28789 8.37768C8.44753 8.08071 7.50926 8.3043 6.87421 8.97821ZM15.7833 11.1662C15.7116 11.4432 15.5731 11.6961 15.3823 11.898L12.5073 14.9542L11.4559 16.0477L10.3295 14.9509L7.45594 11.8986C7.3306 11.7648 7.2286 11.6114 7.15272 11.4425C6.86254 10.7969 6.98427 10.026 7.45521 9.52483C7.91614 9.03558 8.61979 8.90863 9.20581 9.20848C9.3604 9.28773 9.50132 9.39417 9.62744 9.52796L11.4742 11.4457L13.2181 9.522C13.3916 9.33812 13.5973 9.20482 13.8299 9.12567C14.3801 8.93773 14.9748 9.09051 15.3825 9.52483C15.7828 9.94963 15.9364 10.5784 15.7833 11.1662ZM21.4871 7.91509L18.6121 10.9713L17.5609 12.0646L16.6036 11.1325C16.7312 10.3514 16.4964 9.54397 15.9636 8.97845C15.4205 8.4 14.6567 8.14873 13.9076 8.28393L13.5604 7.91543C12.9458 7.26081 12.9458 6.19588 13.5599 5.54189C13.8498 5.23432 14.2349 5.06494 14.6445 5.06494C15.0542 5.06494 15.4394 5.23432 15.7322 5.54501L17.5789 7.46266L19.3232 5.5392C19.6125 5.23335 19.9964 5.06494 20.4048 5.06494H20.4058C20.8147 5.06519 21.1986 5.23442 21.4873 5.54189C22.1038 6.19617 22.1038 7.26061 21.4871 7.91509Z" fill="#D61942"/>
<path d="M6.28638 1.43311C5.31217 1.43311 4.95852 2.22724 4.95852 2.76097L5.75621 2.76498C5.75953 2.60433 5.81793 2.23081 6.28638 2.23081C6.75478 2.23081 6.81322 2.60434 6.81654 2.76097H7.61419C7.61424 2.22724 7.26058 1.43311 6.28638 1.43311Z" fill="#D61942"/>
<path d="M2.03952 17.8901C1.06532 17.8901 0.711659 18.6842 0.711659 19.2179H1.5093C1.5093 19.2179 1.51482 19.0688 1.58333 18.9318C1.64011 18.8182 1.74333 18.6878 2.03947 18.6878C2.50787 18.6878 2.56632 19.0613 2.56964 19.2179H3.36733C3.36738 18.6842 3.01382 17.8901 2.03952 17.8901Z" fill="#D61942"/>
<path d="M21.6819 12.7138C20.7077 12.7137 20.354 13.5078 20.354 14.0416L21.1517 14.0456C21.1551 13.885 21.2136 13.5115 21.6819 13.5115C22.1503 13.5115 22.2087 13.885 22.2121 14.0417H23.0097C23.0097 13.5079 22.6561 12.7138 21.6819 12.7138Z" fill="#D61942"/>
<path d="M19.0267 1.9604C19.0233 2.12104 18.9648 2.49457 18.4964 2.49457C18.028 2.49457 17.9696 2.12104 17.9663 1.9644H17.1686C17.1686 2.49814 17.5223 3.29226 18.4965 3.29226C19.4707 3.29226 19.8243 2.49814 19.8243 1.9644L19.0267 1.9604Z" fill="#D61942"/>
<path d="M21.1501 16.8286C21.1501 16.8286 21.1445 16.9778 21.076 17.1148C21.0193 17.2284 20.916 17.3588 20.6199 17.3588C20.1515 17.3588 20.093 16.9853 20.0897 16.8286H19.292C19.292 17.3624 19.6457 18.1565 20.6199 18.1565C21.5941 18.1565 21.9478 17.3624 21.9478 16.8286H21.1501Z" fill="#D61942"/>
<path d="M2.03898 14.1706C2.03561 14.3312 1.97712 14.7047 1.50877 14.7047C1.04037 14.7047 0.981919 14.3312 0.978599 14.1746H0.180906C0.180906 14.7083 0.534514 15.5024 1.50877 15.5024C2.48307 15.5024 2.83668 14.7083 2.83668 14.1746L2.03898 14.1706Z" fill="#D61942"/>
<path d="M12.0089 0.853971L10.8827 1.98024L11.4467 2.54425L12.5729 1.41798L12.0089 0.853971Z" fill="#D61942"/>
<path d="M21.7982 0.323059L21.2342 0.887073L22.3605 2.01334L22.9245 1.44933L21.7982 0.323059Z" fill="#D61942"/>
<path d="M1.09473 1.385L0.530878 1.94917L1.65722 3.07488L2.22108 2.5107L1.09473 1.385Z" fill="#D61942"/>
<path d="M22.0641 19.4361L21.5 19.9999L22.6257 21.1263L23.1899 20.5624L22.0641 19.4361Z" fill="#D61942"/>
<path d="M22.0949 9.87872L20.9686 11.005L21.5326 11.569L22.6589 10.4427L22.0949 9.87872Z" fill="#D61942"/>
<path d="M1.12634 10.4092L0 11.5349L0.563855 12.099L1.6902 10.9733L1.12634 10.4092Z" fill="#D61942"/>
</svg>
