<svg width="26" height="27" viewBox="0 0 26 27" fill="none" xmlns="http://www.w3.org/2000/svg">
<path d="M9.13077 23.4292C9.07461 23.4292 9.01786 23.4156 8.96524 23.3878C7.94371 22.8463 6.9748 22.1215 6.08628 21.233C5.19776 20.3445 4.47299 19.3762 3.93149 18.354C3.83986 18.1808 3.90547 17.9662 4.07869 17.8746C4.2519 17.783 4.46649 17.8486 4.55812 18.0218C5.05943 18.9677 5.76114 19.9046 6.58818 20.7311C7.41462 21.5575 8.35162 22.2598 9.29748 22.7606C9.47069 22.8522 9.53631 23.0668 9.44468 23.24C9.38083 23.3606 9.25787 23.4292 9.13077 23.4292Z" fill="#D61942"/>
<path d="M12.9337 21.8525C12.8805 21.8525 12.8261 21.8407 12.7747 21.8147C11.3051 21.0763 9.85495 20.0122 8.5804 18.7383C7.30585 17.4637 6.24234 16.0136 5.50398 14.544C5.4159 14.369 5.48684 14.1556 5.66182 14.0681C5.83681 13.98 6.05022 14.0509 6.1383 14.2259C6.84297 15.6288 7.86154 17.0156 9.08289 18.237C10.3042 19.4583 11.6917 20.4763 13.0939 21.1816C13.2689 21.2696 13.3393 21.4831 13.2518 21.658C13.1891 21.781 13.0638 21.8525 12.9337 21.8525Z" fill="#D61942"/>
<path d="M5.2687 25.0294C5.19539 25.0294 5.12209 25.007 5.05824 24.9603C4.55516 24.5896 4.06745 24.1687 3.60871 23.71C3.14997 23.2512 2.72906 22.7635 2.3584 22.2604C2.24194 22.1026 2.27564 21.8809 2.43348 21.7645C2.59132 21.6486 2.813 21.6817 2.92946 21.8395C3.27943 22.3142 3.67669 22.7747 4.11002 23.2087C4.54334 23.6426 5.00445 24.0398 5.47915 24.3892C5.63699 24.5057 5.67069 24.7274 5.55423 24.8852C5.48506 24.9792 5.37747 25.0294 5.2687 25.0294Z" fill="#D61942"/>
<path d="M7.97327 9.43751C7.93603 9.43751 7.89879 9.4316 7.86154 9.41918C7.67533 9.3577 7.57483 9.1567 7.6369 8.97108C7.64281 8.95275 7.6505 8.93324 7.65818 8.91669C7.73917 8.73816 7.94963 8.65954 8.12757 8.74053C8.30314 8.82033 8.38236 9.02547 8.30728 9.20163C8.25585 9.34647 8.11929 9.43751 7.97327 9.43751Z" fill="#D61942"/>
<path d="M18.2347 19.7013C18.0964 19.7013 17.9651 19.6197 17.9078 19.4843C17.8315 19.304 17.9161 19.0959 18.0969 19.0197L18.1176 19.0108C18.2985 18.9346 18.506 19.0191 18.5823 19.2C18.6586 19.3803 18.574 19.5884 18.3931 19.6646L18.3724 19.6735C18.3275 19.6924 18.2808 19.7013 18.2347 19.7013Z" fill="#D61942"/>
<path d="M0.786496 26.8875C0.694274 26.8875 0.603235 26.8514 0.535843 26.7834C0.434162 26.6818 0.404013 26.5292 0.458991 26.3968L2.86562 20.5898C3.20436 19.7734 3.55905 18.9168 3.91671 18.0519L4.68108 16.2075C4.95775 15.5401 5.23027 14.8821 5.49334 14.2484C6.06677 12.8651 6.58758 11.5687 7.00613 10.5264C7.20949 10.0198 7.38625 9.58057 7.52753 9.23296C7.54527 9.18567 7.57305 9.14252 7.60912 9.10646C7.74745 8.96812 7.97209 8.96812 8.11101 9.10646C8.2121 9.20755 8.2393 9.35415 8.19318 9.48007C8.19141 9.4848 8.18964 9.48953 8.18786 9.49426C8.04599 9.84127 7.86923 10.2817 7.66528 10.7901C7.24614 11.8335 6.72473 13.1323 6.14953 14.5186C5.88706 15.1529 5.61394 15.8108 5.33727 16.4783L4.5729 18.3221C4.21525 19.187 3.85996 20.0436 3.52122 20.86L1.4421 25.8766L12.7978 21.1697L17.7097 19.1793L17.8357 19.1273C18.0166 19.0528 18.224 19.1391 18.2985 19.32C18.373 19.5009 18.2867 19.7084 18.1058 19.7829L17.9781 19.8355L13.0673 21.8253L0.922464 26.8603C0.878718 26.8786 0.832607 26.8875 0.786496 26.8875Z" fill="#D61942"/>
<path d="M17.4011 19.8863C16.8348 19.8863 16.1627 19.7232 15.4119 19.3968C14.0114 18.7885 12.4637 17.6766 11.0526 16.266C9.64213 14.8555 8.53015 13.3073 7.92184 11.9068C7.2686 10.4035 7.2692 9.21523 7.92361 8.5614C8.57803 7.90698 9.76627 7.90639 11.269 8.55963C12.6695 9.16794 14.2171 10.2799 15.6282 11.6904C17.0388 13.1009 18.1507 14.6492 18.7591 16.0497C19.4123 17.553 19.4117 18.7412 18.7573 19.3951C18.4298 19.7226 17.9687 19.8863 17.4011 19.8863ZM9.27206 8.78368C8.90199 8.78368 8.61173 8.87649 8.42492 9.0633C7.58015 9.90807 8.65725 12.868 11.5539 15.7647C12.903 17.1138 14.3732 18.1725 15.6939 18.7466C16.8939 19.268 17.8274 19.3212 18.2554 18.8938C19.1002 18.049 18.0231 15.089 15.1264 12.1923C12.8705 9.93645 10.5756 8.78368 9.27206 8.78368Z" fill="#D61942"/>
<path d="M13.1128 14.2655C13.0218 14.2655 12.9314 14.2307 12.8622 14.1615C12.7239 14.0232 12.7239 13.7985 12.8622 13.6596L19.54 6.98181C19.6783 6.84348 19.903 6.84348 20.0413 6.98181C20.1796 7.12015 20.1796 7.34479 20.0413 7.48371L13.3635 14.1615C13.2943 14.2307 13.2033 14.2655 13.1128 14.2655Z" fill="#D61942"/>
<path d="M16.3175 17.4708C16.2366 17.4708 16.155 17.443 16.0888 17.3869C15.9392 17.2604 15.9203 17.0363 16.0474 16.8868C17.1251 15.6134 18.4002 14.5511 19.8367 13.7299C21.275 12.9082 22.8056 12.3679 24.3857 12.1243C24.5791 12.0948 24.7605 12.2272 24.7901 12.4211C24.8203 12.6144 24.6872 12.7959 24.4933 12.8255C21.5115 13.2848 18.6302 14.9324 16.5889 17.3449C16.5185 17.4283 16.4186 17.4708 16.3175 17.4708Z" fill="#D61942"/>
<path d="M9.90756 11.0603C9.80706 11.0603 9.70656 11.0177 9.63681 10.9349C9.5103 10.7854 9.52921 10.5613 9.67819 10.4348C12.0907 8.39351 13.7383 5.51218 14.1976 2.53035C14.2278 2.33645 14.4093 2.20403 14.602 2.23359C14.7953 2.26374 14.9283 2.44463 14.8988 2.63794C14.6552 4.21812 14.1149 5.74865 13.2932 7.18695C12.472 8.62347 11.4103 9.89862 10.1363 10.9763C10.0701 11.0325 9.98855 11.0603 9.90756 11.0603Z" fill="#D61942"/>
<path d="M15.9504 8.51825C15.6655 8.51825 15.3811 8.41007 15.1642 8.19311C14.7309 7.75979 14.7309 7.05453 15.1642 6.6212C15.5975 6.18788 16.3028 6.18788 16.7361 6.6212C17.1694 7.05453 17.1694 7.75979 16.7361 8.19311C16.5197 8.41007 16.2348 8.51825 15.9504 8.51825ZM15.9504 7.00546C15.8476 7.00546 15.7447 7.04448 15.6661 7.1231C15.5094 7.27976 15.5094 7.53514 15.6661 7.6918C15.8227 7.84846 16.0781 7.84846 16.2348 7.6918C16.3914 7.53514 16.3914 7.27976 16.2348 7.1231C16.1562 7.04448 16.0533 7.00546 15.9504 7.00546Z" fill="#D61942"/>
<path d="M24.3538 9.62668C24.0777 9.62668 23.8017 9.52145 23.5912 9.31159C23.1709 8.89127 23.1709 8.2073 23.5912 7.78639C24.0115 7.36607 24.6955 7.36607 25.1164 7.78639C25.5373 8.2067 25.5367 8.89068 25.1164 9.311C24.906 9.52204 24.6299 9.62668 24.3538 9.62668ZM24.3538 8.18069C24.2592 8.18069 24.1646 8.21676 24.0931 8.28829C23.9495 8.43194 23.9495 8.66604 24.0931 8.80969C24.2368 8.95334 24.4709 8.95334 24.6151 8.80969C24.7594 8.66604 24.7588 8.43194 24.6151 8.28769C24.5424 8.21616 24.4484 8.18069 24.3538 8.18069Z" fill="#D61942"/>
<path d="M21.8349 17.6937C21.5588 17.6937 21.2827 17.5885 21.0723 17.3786C20.652 16.9583 20.652 16.2743 21.0723 15.8534C21.4926 15.4331 22.1766 15.4331 22.5975 15.8534C23.0178 16.2737 23.0178 16.9577 22.5975 17.3786C22.387 17.5885 22.1109 17.6937 21.8349 17.6937ZM21.8349 16.2471C21.7403 16.2471 21.6457 16.2832 21.5742 16.3547C21.4305 16.4984 21.4305 16.7325 21.5742 16.8767C21.7178 17.0204 21.9519 17.0204 22.0962 16.8767C22.2404 16.7331 22.2398 16.499 22.0962 16.3547C22.0235 16.2826 21.9289 16.2471 21.8349 16.2471Z" fill="#D61942"/>
<path d="M21.4713 11.4936H20.1648C19.9692 11.4936 19.8101 11.3346 19.8101 11.1389V9.83241C19.8101 9.63673 19.9692 9.47771 20.1648 9.47771H21.4713C21.667 9.47771 21.826 9.63673 21.826 9.83241V11.1389C21.826 11.3351 21.6676 11.4936 21.4713 11.4936ZM20.5195 10.7842H21.1166V10.1871H20.5195V10.7842Z" fill="#D61942"/>
<path d="M18.7301 5.85269C18.7118 5.85269 18.6928 5.85151 18.6745 5.84855C18.5226 5.82432 18.4038 5.70549 18.3795 5.55356L18.1543 4.133L16.7337 3.90776C16.5818 3.88352 16.463 3.7647 16.4387 3.61277C16.4145 3.46084 16.4913 3.31128 16.6279 3.24152L17.909 2.58888L17.6843 1.16831C17.6601 1.01638 17.7369 0.866817 17.8735 0.79706C18.0106 0.727302 18.1768 0.753905 18.2855 0.862088L19.3023 1.87889L20.584 1.22624C20.7205 1.15649 20.8872 1.18309 20.996 1.29127C21.1048 1.40005 21.1308 1.56616 21.061 1.70331L20.4078 2.98436L21.4246 4.00117C21.5334 4.10994 21.5594 4.27606 21.4896 4.41321C21.4199 4.55036 21.2697 4.62662 21.1184 4.60238L19.6978 4.37715L19.0446 5.65879C18.9843 5.7788 18.8613 5.85269 18.7301 5.85269ZM17.9231 3.37808L18.5196 3.47267C18.6716 3.4969 18.7904 3.61573 18.8146 3.76766L18.9092 4.36414L19.1835 3.82559C19.2533 3.68844 19.4034 3.61218 19.5548 3.63642L20.1512 3.731L19.7238 3.30359C19.6151 3.19482 19.589 3.0287 19.6588 2.89155L19.9331 2.35359L19.3946 2.62789C19.258 2.69765 19.0913 2.67105 18.9825 2.56287L18.5551 2.13545L18.6497 2.73194C18.6739 2.88387 18.5971 3.03343 18.4605 3.10319L17.9231 3.37808Z" fill="#D61942"/>
<path d="M10.1186 6.58751C10.0246 6.58751 9.93416 6.55026 9.86795 6.48346L8.94396 5.55947C8.80563 5.42114 8.80563 5.1965 8.94396 5.05758L9.86795 4.13359C9.93475 4.06679 10.0246 4.02954 10.1186 4.02954C10.2126 4.02954 10.303 4.06679 10.3693 4.13359L11.2932 5.05758C11.4316 5.19591 11.4316 5.42055 11.2932 5.55947L10.3693 6.48346C10.3025 6.54967 10.2126 6.58751 10.1186 6.58751ZM9.69592 5.30882L10.118 5.73091L10.5401 5.30882L10.118 4.88673L9.69592 5.30882Z" fill="#D61942"/>
</svg>
