<svg width="26" height="27" viewBox="0 0 26 27" fill="none" xmlns="http://www.w3.org/2000/svg">
<path d="M15.4039 2.48139C9.79705 2.48139 5.23545 7.043 5.23545 12.6501C5.23545 18.2569 9.79705 22.8185 15.4039 22.8185C21.0107 22.8185 25.5723 18.2569 25.5723 12.6501C25.5723 7.04327 21.0107 2.48139 15.4039 2.48139ZM15.4039 21.7206C10.4024 21.7206 6.33364 17.6518 6.33364 12.6504C6.33364 7.64892 10.4024 3.57986 15.4039 3.57986C20.4053 3.57986 24.4741 7.64892 24.4741 12.6504C24.4741 17.6515 20.4053 21.7206 15.4039 21.7206Z" fill="black"/>
<path d="M15.4039 5.89841C11.681 5.89841 8.65219 8.92721 8.65219 12.6504C8.65219 16.3732 11.681 19.402 15.4039 19.402C19.1267 19.402 22.1555 16.3732 22.1555 12.6504C22.1555 8.92721 19.1267 5.89841 15.4039 5.89841ZM15.4039 18.3036C12.2866 18.3036 9.75038 15.7676 9.75038 12.6501C9.75038 9.53259 12.2864 6.99632 15.4039 6.99632C18.5213 6.99632 21.0573 9.53259 21.0573 12.6501C21.0573 15.7676 18.5213 18.3036 15.4039 18.3036Z" fill="black"/>
<path d="M14.6063 8.69742C13.3025 8.69742 12.1112 9.5142 11.6417 10.7296C11.5325 11.0127 11.6733 11.3303 11.9561 11.4396C12.0212 11.4646 12.0879 11.4767 12.1538 11.4767C12.3742 11.4767 12.5821 11.3432 12.6661 11.1252C12.9733 10.3299 13.753 9.79533 14.606 9.79533C14.9091 9.79533 15.1551 9.54934 15.1551 9.24624C15.1551 8.94314 14.9094 8.69742 14.6063 8.69742Z" fill="black"/>
<path d="M0.858069 4.46308L2.39142 5.30182L3.22988 6.83489C3.32625 7.01115 3.51102 7.12069 3.71171 7.12069C3.91241 7.12069 4.09718 7.01115 4.19354 6.83516L5.03229 5.30182L6.56563 4.46308C6.74162 4.36671 6.85116 4.18194 6.85116 3.98124C6.85116 3.78055 6.74162 3.59578 6.56536 3.49941L5.03201 2.66095L4.19354 1.1276C4.09718 0.951341 3.91241 0.841797 3.71171 0.841797C3.51102 0.841797 3.32625 0.951616 3.22988 1.1276L2.39114 2.66095L0.858069 3.49941C0.68181 3.59578 0.572266 3.78055 0.572266 3.98124C0.572266 4.18194 0.682085 4.36671 0.858069 4.46308ZM3.05939 3.54746C3.15164 3.49694 3.22741 3.42144 3.27765 3.3292L3.71171 2.53548L4.14577 3.3292C4.19629 3.42144 4.27179 3.49722 4.36404 3.54746L5.15748 3.98152L4.36376 4.41558C4.27179 4.4661 4.19602 4.5416 4.1455 4.63384L3.71144 5.42756L3.27738 4.63412C3.22686 4.54187 3.15136 4.4661 3.05912 4.41585L2.2654 3.98179L3.05939 3.54746Z" fill="black"/>
<path d="M8.36749 22.2367L6.25155 21.0798L5.09461 18.9638C4.99824 18.7879 4.81347 18.6783 4.61278 18.6783C4.41208 18.6783 4.22731 18.7876 4.13095 18.9638L2.97373 21.0798L0.858069 22.2367C0.68181 22.3331 0.572266 22.5176 0.572266 22.7185C0.572266 22.9195 0.68181 23.104 0.857795 23.2004L2.97346 24.3576L4.13067 26.4735C4.22704 26.6498 4.41181 26.7591 4.6125 26.7591C4.8132 26.7591 4.99797 26.6498 5.09433 26.4735L6.25155 24.3576L8.36749 23.2004C8.54375 23.104 8.65329 22.9195 8.65329 22.7185C8.65329 22.5176 8.54347 22.3328 8.36749 22.2367ZM5.58358 23.4711C5.49133 23.5216 5.41555 23.5974 5.36531 23.6893L4.61278 25.0657L3.86024 23.6893C3.80973 23.5974 3.73423 23.5216 3.64198 23.4711L2.26595 22.7185L3.6417 21.9663C3.73395 21.9158 3.80973 21.84 3.85997 21.748L4.61278 20.3717L5.36531 21.748C5.41583 21.84 5.49133 21.9158 5.58358 21.9663L6.95961 22.7185L5.58358 23.4711Z" fill="black"/>
</svg>
