<svg width="40" height="26" viewBox="0 0 40 26" fill="none" xmlns="http://www.w3.org/2000/svg">
<path d="M31.9473 7.23096H28.8223V4.10596C28.8223 2.38293 27.4203 0.980957 25.6973 0.980957H23.1973C22.8524 0.980957 22.5723 1.26111 22.5723 1.60596V2.85596C22.5723 4.57898 23.9742 5.98096 25.6973 5.98096H27.5723V7.23096H8.19727C4.06152 7.23096 0.697266 11.4366 0.697266 16.606C0.697266 21.7753 4.06152 25.981 8.19727 25.981H31.9473C36.083 25.981 39.4473 21.7753 39.4473 16.606C39.4473 11.4366 36.083 7.23096 31.9473 7.23096ZM23.8223 2.85596V2.23096H25.6973C26.7309 2.23096 27.5723 3.07233 27.5723 4.10596V4.73096H25.6973C24.6636 4.73096 23.8223 3.88959 23.8223 2.85596ZM1.94727 16.606C1.94727 12.126 4.75092 8.48096 8.19727 8.48096C9.8324 8.48096 11.3802 9.30219 12.5573 10.7936C12.6696 10.9361 12.8384 11.0222 13.0197 11.0304L20.5523 11.3728L14.4134 12.6002C14.2379 12.6353 14.0859 12.744 13.9959 12.899C13.9059 13.054 13.8867 13.2396 13.9428 13.4099C14.2773 14.4221 14.4473 15.4979 14.4473 16.606C14.4473 17.2767 14.3762 17.9698 14.2355 18.6647C14.1711 18.9814 14.3591 19.2946 14.6679 19.3873L16.7336 20.0065L14.158 20.2217C13.9285 20.2403 13.7286 20.384 13.6373 20.5946C12.5247 23.1459 10.4403 24.731 8.19727 24.731C4.75092 24.731 1.94727 21.0859 1.94727 16.606ZM31.9473 24.731H11.9384C13.0273 23.9479 13.9593 22.8248 14.6261 21.4366L20.1241 20.9785C20.4235 20.9541 20.6628 20.7197 20.6942 20.4203C20.7253 20.1216 20.5398 19.8436 20.2523 19.7566L15.5612 18.3491C15.6515 17.7623 15.6973 17.1772 15.6973 16.606C15.6973 15.6065 15.5734 14.6296 15.3286 13.6921L25.8196 11.5941C26.1297 11.5321 26.3442 11.2492 26.3204 10.934C26.296 10.619 26.0409 10.3715 25.7253 10.3572L13.3553 9.79535C12.9211 9.28021 12.4417 8.84717 11.9341 8.48157H27.5723V9.73157C27.5723 11.7997 29.2541 13.4816 31.3223 13.4816V12.2316C30.0521 12.2316 29.0118 11.2761 28.854 10.0477C29.5147 10.6266 30.3765 10.981 31.3223 10.981V9.73096C30.4009 9.73096 29.6035 9.22467 29.1699 8.48096H31.9473C35.3936 8.48096 38.1973 12.126 38.1973 16.606C38.1973 21.0859 35.3936 24.731 31.9473 24.731Z" fill="black"/>
<path d="M9.42346 16.0334C9.43903 16.2196 9.44727 16.4109 9.44727 16.606C9.44727 18.5133 8.7066 19.731 8.19727 19.731C7.89301 19.731 7.44348 19.2421 7.1734 18.3079L5.97284 18.6546C6.39429 20.1109 7.22528 20.981 8.19727 20.981C9.62213 20.981 10.6973 19.0999 10.6973 16.606C10.6973 16.3752 10.6872 16.1491 10.6692 15.9285L9.42346 16.0334Z" fill="black"/>
<path d="M8.19727 13.481C8.50153 13.481 8.95105 13.9698 9.22113 14.904L10.4217 14.5573C10.0002 13.101 9.16925 12.231 8.19727 12.231C6.7724 12.231 5.69727 14.1121 5.69727 16.606C5.69727 16.8367 5.70734 17.0628 5.72534 17.2834L6.97107 17.1785C6.95551 16.9923 6.94727 16.801 6.94727 16.606C6.94727 14.6986 7.68793 13.481 8.19727 13.481Z" fill="black"/>
<path d="M8.19727 22.231C6.12909 22.231 4.44727 19.7078 4.44727 16.606C4.44727 16.0115 4.50983 15.4258 4.63281 14.8652L3.41241 14.5967C3.2699 15.2461 3.19727 15.9214 3.19727 16.606C3.19727 20.3965 5.44031 23.481 8.19727 23.481C8.70721 23.481 9.21045 23.3772 9.69232 23.1721L9.20343 22.0222C8.87659 22.1611 8.53845 22.231 8.19727 22.231Z" fill="black"/>
<path d="M8.19727 9.73096C7.06415 9.73096 5.99786 10.2321 5.11469 11.1796L6.02899 12.0317C6.66986 11.3447 7.41968 10.981 8.19727 10.981C10.2654 10.981 11.9473 13.5048 11.9473 16.606C11.9473 18.1266 11.5423 19.554 10.8071 20.6266L11.838 21.3334C12.7148 20.0554 13.1973 18.376 13.1973 16.606C13.1973 12.8154 10.9542 9.73096 8.19727 9.73096Z" fill="black"/>
<path d="M32.0611 18.1083C30.6109 19.5579 28.684 20.356 26.6348 20.356C24.2516 20.356 22.011 21.284 20.3234 22.971L20.2542 23.0403L21.1398 23.9216L21.2078 23.8536C22.6586 22.404 24.5855 21.606 26.6348 21.606C29.0179 21.606 31.2585 20.6779 32.9461 18.9909L33.0154 18.9216L32.1298 18.0403L32.0611 18.1083Z" fill="black"/>
<path d="M32.9986 14.9724C32.2341 15.2266 31.4379 15.356 30.631 15.356H29.7598C28.8036 15.356 27.868 15.1759 26.9778 14.8204L26.7547 14.731C24.6804 13.9021 22.3391 13.9021 20.2642 14.731L18.5897 15.4002L19.0536 16.5611L20.7278 15.8915C22.5067 15.1796 24.5117 15.1796 26.2911 15.8915L26.5148 15.981C27.5521 16.3954 28.644 16.606 29.7598 16.606H30.631C31.5722 16.606 32.5024 16.4552 33.3941 16.1573L35.8947 15.3236L35.4992 14.1383L32.9986 14.9724Z" fill="black"/>
</svg>
