<svg width="26" height="32" viewBox="0 0 26 32" fill="none" xmlns="http://www.w3.org/2000/svg">
<path d="M24.2755 12.8525C23.3259 10.0225 22.2088 7.93197 22.1617 7.84439C22.0477 7.63218 21.8187 7.50626 21.5797 7.52341C21.3394 7.54013 21.1313 7.69618 21.0478 7.92205L19.9916 10.7802C19.829 9.86138 19.5428 8.78037 19.0519 7.59488C17.3607 3.5108 13.6134 0.484942 13.4546 0.358107C13.2311 0.179459 12.9136 0.179459 12.6901 0.358107C12.5313 0.484942 8.78395 3.5108 7.09265 7.59494C6.60172 8.78037 6.31559 9.86138 6.15293 10.7802L5.09679 7.92205C5.01331 7.69618 4.80515 7.54013 4.56489 7.52341C4.32573 7.50645 4.0968 7.63224 3.98283 7.84439C3.93573 7.93203 2.81871 10.0225 1.86907 12.8525C0.577814 16.7002 0.248875 19.9105 0.891136 22.3935L0.916674 22.4919C2.31149 27.8433 7.17245 31.5808 12.7376 31.5808H13.407C18.9722 31.5808 23.8331 27.8433 25.2278 22.4923L25.2533 22.3943C25.8957 19.9105 25.5668 16.7002 24.2755 12.8525ZM9.6609 20.1952C9.65882 20.1813 9.45898 18.7743 10.2713 16.8127C10.9817 15.0973 12.3938 13.665 13.0727 13.0421C13.7514 13.6635 15.1607 15.0918 15.8733 16.8126C16.6756 18.7501 16.4853 20.1839 16.4837 20.1952C16.4368 20.5058 16.6324 20.8016 16.9366 20.8799C17.2411 20.9583 17.5549 20.7937 17.6638 20.4991L18.458 18.3499C19.1947 20.063 20.2694 23.1317 19.6863 25.3865L19.6707 25.4464C19.1908 27.2877 17.9504 28.7753 16.3354 29.6127C16.6028 29.1052 16.7542 28.528 16.7542 27.9163C16.7542 26.0678 13.8771 22.4488 13.549 22.0422C13.4328 21.8981 13.2575 21.8143 13.0724 21.8143C12.8873 21.8143 12.712 21.8981 12.5958 22.0422C12.2677 22.4488 9.39063 26.0678 9.39063 27.9163C9.39063 28.528 9.54202 29.1053 9.80941 29.6127C8.19442 28.7754 6.95406 27.288 6.47428 25.4472L6.45878 25.3875C5.87648 23.1363 6.95075 20.0656 7.6872 18.351L8.48098 20.4991C8.58987 20.7937 8.90411 20.9582 9.20812 20.8799C9.51226 20.8016 9.70787 20.5058 9.6609 20.1952ZM10.6154 27.9163C10.6154 26.9878 11.9724 24.8826 13.0723 23.4236C14.1722 24.8826 15.5292 26.9878 15.5292 27.9163C15.5292 29.2615 14.4271 30.3559 13.0723 30.3559C11.7175 30.3559 10.6154 29.2615 10.6154 27.9163ZM24.0675 22.0873L24.0426 22.183C23.3469 24.8524 21.6911 27.0753 19.4998 28.5255C20.1199 27.7195 20.5879 26.7836 20.8561 25.7546L20.8718 25.6941C21.8388 21.9556 19.0483 16.7 18.929 16.4781C18.815 16.2659 18.5866 16.1402 18.3469 16.1571C18.1067 16.1738 17.8986 16.3299 17.815 16.5557L17.4305 17.5965C17.3264 17.2061 17.1881 16.7861 17.005 16.3439C15.9307 13.7496 13.5553 11.8315 13.4546 11.7511C13.2311 11.5725 12.9136 11.5725 12.6901 11.7511C12.5894 11.8315 10.214 13.7495 9.13965 16.3439C8.9566 16.7861 8.81825 17.206 8.7142 17.5964L8.32965 16.5557C8.24617 16.3298 8.03801 16.1738 7.79775 16.157C7.55816 16.1401 7.32973 16.2659 7.21569 16.478C7.09645 16.7 4.30589 21.9555 5.27317 25.6951L5.28879 25.7552C5.55685 26.7838 6.02475 27.7194 6.64459 28.5253C4.4533 27.075 2.79771 24.8521 2.10192 22.1825L2.0773 22.0874C1.00891 17.957 3.28937 12.2104 4.44491 9.69155L6.03865 14.0046C6.14724 14.2985 6.46025 14.4622 6.76396 14.3849C7.06766 14.3077 7.26395 14.0127 7.21894 13.7025C7.21551 13.6787 6.88926 11.2875 8.22437 8.06334C9.48966 5.00765 12.0947 2.50837 13.0727 1.64171C14.0506 2.50714 16.6525 5.00147 17.9203 8.06327C19.2554 11.2875 18.9292 13.6786 18.926 13.7006C18.879 14.0112 19.0747 14.3069 19.3789 14.3853C19.6833 14.4638 19.9972 14.2991 20.106 14.0044L21.6998 9.69143C22.8553 12.2106 25.1358 17.957 24.0675 22.0873Z" fill="black"/>
</svg>
