<svg width="26" height="26" viewBox="0 0 26 26" fill="none" xmlns="http://www.w3.org/2000/svg">
<path d="M5.67046 19.0543C4.67607 18.0627 4.00684 16.8103 3.73511 15.4324L2.93091 11.3542C2.87422 11.0667 2.93418 10.7753 3.0998 10.5336C3.26543 10.2919 3.51558 10.1308 3.8041 10.0799C4.36318 9.98135 4.90708 10.336 5.04219 10.8875L5.76768 13.8468C5.83486 14.1204 6.09692 14.3011 6.37588 14.2673C6.65552 14.2334 6.86631 13.9956 6.86631 13.714V9.3832C6.86631 9.11353 6.64766 8.89492 6.37803 8.89492C6.1084 8.89492 5.88975 9.11353 5.88975 9.3832V10.3492C5.52422 9.47817 4.59121 8.94946 3.63447 9.11821C3.08535 9.21504 2.60938 9.52163 2.29419 9.98159C1.979 10.4416 1.86484 10.9961 1.97271 11.5431L2.77695 15.6213C3.08638 17.1904 3.84844 18.6166 4.98086 19.7458L6.4978 21.2584V24.5742C6.4978 24.8438 6.71646 25.0625 6.98608 25.0625C7.25571 25.0625 7.47437 24.8438 7.47437 24.5742V21.0558C7.47437 20.9261 7.42271 20.8017 7.33091 20.7101L5.67046 19.0543Z" fill="black"/>
<path d="M6.37813 7.67773C6.50659 7.67773 6.63252 7.62549 6.72334 7.53467C6.81416 7.44336 6.86641 7.31738 6.86641 7.18945C6.86641 7.06104 6.81421 6.93506 6.72334 6.84375C6.63252 6.75293 6.50659 6.70117 6.37813 6.70117C6.24971 6.70117 6.12373 6.75293 6.03296 6.84375C5.94214 6.93506 5.88984 7.06055 5.88984 7.18945C5.88984 7.31787 5.94209 7.44385 6.03296 7.53467C6.12373 7.62549 6.24976 7.67773 6.37813 7.67773Z" fill="black"/>
<path d="M19.1211 15.1737V7.95532C19.1211 6.84126 18.2147 5.93486 17.1006 5.93486C16.7201 5.93486 16.3638 6.04077 16.0596 6.22446V3.99575C16.0596 2.88169 15.1532 1.97529 14.0391 1.97529C13.6574 1.97529 13.3001 2.08179 12.9952 2.2665V2.08296C12.9952 0.968897 12.0888 0.0625 10.9748 0.0625C9.86069 0.0625 8.9543 0.968897 8.9543 2.08296V2.2665C8.64946 2.08179 8.29214 1.97529 7.9104 1.97529C6.79634 1.97529 5.88994 2.88169 5.88994 3.99575V4.99565C5.88994 5.26533 6.10859 5.48394 6.37822 5.48394C6.64785 5.48394 6.8665 5.26533 6.8665 4.99565V3.99575C6.8665 3.42012 7.33481 2.95186 7.9104 2.95186C8.48599 2.95186 8.9543 3.42012 8.9543 3.99575V11.4395C8.9543 11.7091 9.17295 11.9277 9.44258 11.9277C9.71221 11.9277 9.93086 11.7091 9.93086 11.4395V2.08296C9.93086 1.50732 10.3992 1.03906 10.9748 1.03906C11.5503 1.03906 12.0187 1.50732 12.0187 2.08296V11.4395C12.0187 11.7091 12.2373 11.9277 12.5069 11.9277C12.7766 11.9277 12.9952 11.7091 12.9952 11.4395V3.99575C12.9952 3.42012 13.4635 2.95186 14.0391 2.95186C14.6147 2.95186 15.083 3.42012 15.083 3.99575L15.0802 11.4395C15.0802 11.7091 15.2988 11.9277 15.5685 11.9277C15.8381 11.9277 16.0567 11.7091 16.0567 11.4395L16.0596 7.8998C16.0887 7.35005 16.5438 6.91143 17.1006 6.91143C17.6762 6.91143 18.1445 7.37969 18.1445 7.95532V14.5255C17.3733 14.1228 16.4971 13.8947 15.5685 13.8947C12.4895 13.8947 9.98452 16.3996 9.98452 19.4786C9.98452 22.5575 12.4895 25.0625 15.5685 25.0625C18.6474 25.0625 21.1524 22.5575 21.1524 19.4786C21.1524 17.7479 20.361 16.1987 19.1211 15.1737ZM15.5685 24.0859C13.0279 24.0859 10.9611 22.0191 10.9611 19.4786C10.9611 16.9381 13.0279 14.8712 15.5685 14.8712C18.109 14.8712 20.1758 16.9381 20.1758 19.4786C20.1759 22.0191 18.109 24.0859 15.5685 24.0859Z" fill="black"/>
<path d="M17.1879 16.8785C16.9972 16.688 16.6881 16.6879 16.4973 16.8785L15.0951 18.2808L14.563 17.7486C14.3723 17.558 14.0632 17.558 13.8724 17.7486L12.4914 19.1297C12.3007 19.3204 12.3007 19.6295 12.4914 19.8203L14.7498 22.0787C14.8452 22.174 14.9701 22.2217 15.0951 22.2217C15.22 22.2217 15.345 22.174 15.4403 22.0787L18.5689 18.9502C18.6604 18.8586 18.7119 18.7344 18.7119 18.6049C18.7119 18.4754 18.6604 18.3513 18.5689 18.2597L17.1879 16.8785ZM15.0951 21.0429L13.5272 19.475L14.2178 18.7844L14.7499 19.3165C14.9405 19.5071 15.2496 19.5072 15.4404 19.3165L16.8427 17.9143L17.5332 18.6048L15.0951 21.0429Z" fill="black"/>
<path d="M2.70874 1.82031C2.97837 1.82031 3.19702 1.60171 3.19702 1.33203V0.550781C3.19702 0.281104 2.97837 0.0625 2.70874 0.0625C2.43911 0.0625 2.22046 0.281104 2.22046 0.550781V1.33203C2.22046 1.60171 2.43911 1.82031 2.70874 1.82031Z" fill="black"/>
<path d="M2.70874 5.14062C2.97837 5.14062 3.19702 4.92202 3.19702 4.65234V3.87109C3.19702 3.60142 2.97837 3.38281 2.70874 3.38281C2.43911 3.38281 2.22046 3.60142 2.22046 3.87109V4.65234C2.22046 4.92202 2.43911 5.14062 2.70874 5.14062Z" fill="black"/>
<path d="M3.97827 3.08984H4.75952C5.02915 3.08984 5.2478 2.87124 5.2478 2.60156C5.2478 2.33188 5.02915 2.11328 4.75952 2.11328H3.97827C3.70864 2.11328 3.48999 2.33188 3.48999 2.60156C3.48999 2.87124 3.70864 3.08984 3.97827 3.08984Z" fill="black"/>
<path d="M1.43921 2.11328H0.657959C0.38833 2.11328 0.169678 2.33188 0.169678 2.60156C0.169678 2.87124 0.38833 3.08984 0.657959 3.08984H1.43921C1.70884 3.08984 1.92749 2.87124 1.92749 2.60156C1.92749 2.33188 1.70884 2.11328 1.43921 2.11328Z" fill="black"/>
<path d="M22.6306 4.06641C22.361 4.06641 22.1423 4.28501 22.1423 4.55469V5.33594C22.1423 5.60562 22.361 5.82422 22.6306 5.82422C22.9002 5.82422 23.1189 5.60562 23.1189 5.33594V4.55469C23.1189 4.28501 22.9002 4.06641 22.6306 4.06641Z" fill="black"/>
<path d="M22.6306 7.38672C22.361 7.38672 22.1423 7.60532 22.1423 7.875V8.65625C22.1423 8.92593 22.361 9.14453 22.6306 9.14453C22.9002 9.14453 23.1189 8.92593 23.1189 8.65625V7.875C23.1189 7.60532 22.9002 7.38672 22.6306 7.38672Z" fill="black"/>
<path d="M24.6814 6.11719H23.9001C23.6305 6.11719 23.4119 6.33579 23.4119 6.60547C23.4119 6.87515 23.6305 7.09375 23.9001 7.09375H24.6814C24.951 7.09375 25.1697 6.87515 25.1697 6.60547C25.1697 6.33579 24.951 6.11719 24.6814 6.11719Z" fill="black"/>
<path d="M21.3611 6.11719H20.5798C20.3102 6.11719 20.0916 6.33579 20.0916 6.60547C20.0916 6.87515 20.3102 7.09375 20.5798 7.09375H21.3611C21.6307 7.09375 21.8494 6.87515 21.8494 6.60547C21.8494 6.33579 21.6307 6.11719 21.3611 6.11719Z" fill="black"/>
</svg>
