<svg width="35" height="26" viewBox="0 0 35 26" fill="none" xmlns="http://www.w3.org/2000/svg">
<path d="M34.8884 12.6268C33.3341 9.87959 31.089 7.5862 28.3755 5.97387L27.9438 3.7109C27.7614 2.75897 27.2531 1.90028 26.5064 1.28237C25.7596 0.664473 24.821 0.325943 23.8517 0.324951H17.521C17.1735 0.325004 16.8303 0.401758 16.5159 0.549735C16.2014 0.697712 15.9236 0.913264 15.7021 1.18101C15.4805 1.44875 15.3209 1.76209 15.2344 2.09866C15.1479 2.43523 15.1368 2.78674 15.2019 3.12809L15.4512 4.43644C14.9655 4.5495 14.4904 4.67928 14.0274 4.82471V3.57626C14.0273 3.30195 13.9546 3.03255 13.8165 2.79551C13.6784 2.55848 13.48 2.3623 13.2414 2.22695C13.0028 2.09161 12.7326 2.02195 12.4583 2.02506C12.184 2.02818 11.9154 2.10397 11.6799 2.24471L9.04895 3.81856C8.50777 4.14271 8.1039 4.65369 7.91353 5.25512C7.72317 5.85655 7.75945 6.50685 8.01554 7.08336L8.386 7.91575C8.28407 7.95958 8.17249 7.97613 8.06222 7.96378C7.97935 7.95492 7.89943 7.92795 7.82814 7.88477C7.75684 7.84159 7.69592 7.78327 7.64967 7.71393C7.34189 7.24726 6.94439 6.84645 6.4803 6.5348C6.01621 6.22315 5.49479 6.00689 4.94636 5.89859L2.58707 5.42614C2.49583 5.40771 2.40118 5.41674 2.31507 5.45209C2.22896 5.48743 2.15526 5.54751 2.10328 5.62472C2.05661 5.69353 1.30759 6.83216 0.818949 8.97425V8.97937C0.535755 10.2458 0.395741 11.5401 0.40154 12.8378V12.8513C0.404778 17.4859 2.03313 19.9491 2.1014 20.0516C2.1535 20.1287 2.22721 20.1887 2.31329 20.224C2.39936 20.2594 2.49395 20.2685 2.58518 20.2502L4.94447 19.778C5.4929 19.6697 6.01431 19.4535 6.4784 19.1418C6.94249 18.8302 7.33999 18.4294 7.64778 17.9627C7.69403 17.8934 7.75495 17.835 7.82625 17.7919C7.89754 17.7487 7.97746 17.7217 8.06033 17.7129C8.15265 17.7015 8.24633 17.7104 8.33486 17.7389C8.42339 17.7674 8.50465 17.8149 8.57299 17.878C9.74252 18.9159 11.0849 19.7408 12.5393 20.3153L10.9566 21.8977C10.7626 22.0918 10.6235 22.3338 10.5536 22.5991C10.4836 22.8644 10.4853 23.1435 10.5584 23.408C10.6314 23.6724 10.7734 23.9128 10.9696 24.1045C11.1659 24.2962 11.4095 24.4325 11.6756 24.4993L14.6488 25.247C15.2606 25.4009 15.9077 25.3253 16.4676 25.0347C17.0276 24.744 17.4617 24.2583 17.688 23.6694L18.4394 21.7134C19.1229 21.775 19.8155 21.81 20.5187 21.81C30.394 21.81 34.8436 13.1373 34.8873 13.0496C34.9203 12.984 34.9376 12.9117 34.9378 12.8383C34.938 12.7649 34.9211 12.6925 34.8884 12.6268ZM25.3695 20.0551C24.1498 17.8562 23.5423 15.3702 23.6105 12.8566C23.6787 10.3429 24.42 7.89356 25.7572 5.76395C26.3102 5.97499 26.85 6.21945 27.3734 6.49597C26.126 8.39719 25.4306 10.6072 25.3644 12.8801C25.2982 15.1531 25.864 17.3998 26.9986 19.3703C26.47 19.6316 25.9259 19.8602 25.3695 20.0551ZM22.7438 14.7937H20.7391C20.5782 14.7935 20.4239 14.7295 20.3102 14.6157C20.1964 14.502 20.1323 14.3478 20.132 14.1869V11.4617C20.132 11.3685 20.1534 11.2766 20.1947 11.1931C20.2359 11.1095 20.2958 11.0366 20.3697 10.9799C20.4436 10.9232 20.5296 10.8843 20.621 10.8662C20.7124 10.8481 20.8067 10.8512 20.8967 10.8754L22.7778 11.381C22.6344 12.5132 22.623 13.6581 22.7438 14.7929V14.7937ZM16.1295 2.95082C16.0905 2.74603 16.0971 2.53514 16.149 2.33321C16.2009 2.13128 16.2967 1.9433 16.4296 1.78267C16.5625 1.62205 16.7293 1.49276 16.9179 1.40402C17.1066 1.31528 17.3125 1.26928 17.521 1.26932H23.8517C24.6012 1.27002 25.327 1.53163 25.9045 2.00922C26.482 2.48681 26.8753 3.15058 27.0167 3.88655L27.3059 5.40428C25.1909 4.38027 22.8695 3.85417 20.5197 3.86632C19.13 3.86541 17.7431 3.99185 16.3764 4.24406L16.1295 2.95082ZM16.7582 20.5411C14.962 15.5139 15.0996 9.99836 17.1443 5.06701C17.8021 4.96529 18.4767 4.89621 19.1617 4.85466C17.8942 7.48104 17.2431 10.3622 17.2582 13.2784C17.2507 15.8564 17.7543 18.4104 18.74 20.7926C18.0652 20.7397 17.4041 20.6536 16.7582 20.5411ZM13.5819 19.709C13.5562 19.6976 13.5296 19.6886 13.5023 19.682C12.4573 19.306 11.4599 18.8091 10.5303 18.2015C10.2456 16.5911 10.1021 14.9588 10.1015 13.3235C10.0991 11.3061 10.3186 9.29469 10.7561 7.32539C11.6838 6.75002 12.6729 6.28005 13.7049 5.92422C13.7188 5.92014 13.7325 5.91537 13.7459 5.90992C14.4984 5.64841 15.2668 5.43535 16.0464 5.27207C14.1966 10.0996 14.0695 15.4176 15.6865 20.3279C14.9732 20.1638 14.2704 19.9571 13.5819 19.709ZM9.53462 4.62909L12.1656 3.05524C12.2577 3.00047 12.3627 2.97106 12.4699 2.96999C12.577 2.96892 12.6825 2.99623 12.7757 3.04915C12.8689 3.10208 12.9464 3.17872 13.0004 3.2713C13.0544 3.36388 13.0829 3.4691 13.083 3.57626V5.14553C11.6665 5.65613 10.339 6.38627 9.14932 7.3092L8.87788 6.69914C8.71556 6.33358 8.69259 5.92125 8.81332 5.53993C8.93405 5.1586 9.19014 4.83462 9.53327 4.62909H9.53462ZM4.76046 18.8512L2.73196 19.2559C2.33146 18.479 2.02538 17.657 1.82025 16.8073L4.09131 16.3257C4.21308 16.299 4.31936 16.2253 4.38697 16.1206C4.45458 16.0158 4.47803 15.8886 4.45221 15.7667C4.42638 15.6447 4.35338 15.5379 4.24913 15.4696C4.14487 15.4012 4.01782 15.3769 3.89569 15.4019L1.61842 15.8867C1.46217 15.0316 1.37376 14.1655 1.354 13.2965L4.0055 13.229C4.06751 13.2274 4.1286 13.2137 4.18529 13.1885C4.24197 13.1633 4.29314 13.1272 4.33587 13.0822C4.3786 13.0373 4.41206 12.9843 4.43433 12.9264C4.4566 12.8685 4.46726 12.8068 4.46568 12.7448C4.4641 12.6828 4.45033 12.6217 4.42514 12.565C4.39996 12.5084 4.36385 12.4572 4.31889 12.4145C4.27393 12.3717 4.22099 12.3383 4.1631 12.316C4.10521 12.2937 4.0435 12.2831 3.98149 12.2846L1.35454 12.3521C1.37634 11.4401 1.47436 10.5315 1.64756 9.63584L3.89569 10.1126C3.92795 10.1197 3.96088 10.1232 3.9939 10.1231C4.11057 10.123 4.22307 10.0797 4.30971 10.0016C4.39634 9.92342 4.45098 9.81597 4.46308 9.69992C4.47518 9.58388 4.44389 9.46747 4.37524 9.37313C4.30659 9.27879 4.20545 9.2132 4.09131 9.18902L1.85856 8.71522C2.06097 7.91883 2.35373 7.14817 2.73115 6.41826L4.75992 6.82434C5.18631 6.9086 5.5917 7.07676 5.95253 7.31906C6.31337 7.56136 6.62244 7.87296 6.8618 8.23576C6.36537 11.3329 6.32692 14.4861 6.74767 17.5944C6.26378 18.245 5.55565 18.6928 4.76046 18.8512ZM8.13966 16.7631C7.95906 16.7628 7.7798 16.7941 7.61001 16.8556C7.29924 14.1954 7.33907 11.5059 7.72846 8.85607C7.80039 8.87632 7.87371 8.89129 7.94782 8.90086C8.17568 8.9288 8.40688 8.90683 8.6254 8.83647C8.84392 8.76612 9.04451 8.64906 9.21327 8.49343C9.34629 8.3712 9.48659 8.25302 9.62933 8.13619C9.31451 9.84732 9.15647 11.5836 9.15715 13.3235C9.15854 14.6817 9.2551 16.0381 9.44612 17.3829C9.36868 17.3162 9.28774 17.2512 9.21327 17.1829C8.92084 16.9131 8.53756 16.7632 8.13966 16.7631ZM16.8065 23.3297C16.6628 23.703 16.3875 24.0109 16.0325 24.1952C15.6774 24.3796 15.2672 24.4277 14.8792 24.3304L11.9058 23.5825C11.8018 23.5562 11.7066 23.5027 11.63 23.4277C11.5534 23.3526 11.498 23.2585 11.4696 23.1551C11.4411 23.0516 11.4406 22.9425 11.4681 22.8388C11.4956 22.7351 11.5501 22.6405 11.626 22.5647L13.5096 20.6809C14.7961 21.1189 16.1229 21.4281 17.4705 21.6039L16.8065 23.3297ZM19.7915 20.8514C18.7325 18.468 18.1909 15.8872 18.2025 13.2792C18.1837 10.3342 18.8838 7.42917 20.2421 4.81608C20.3349 4.81608 20.4269 4.81095 20.5197 4.81095C21.9839 4.80566 23.4407 5.01928 24.8417 5.44475C23.9093 6.98261 23.2599 8.675 22.9241 10.4418L21.1417 9.96313C20.9117 9.90135 20.6707 9.89332 20.4371 9.93966C20.2036 9.986 19.9839 10.0855 19.7949 10.2304C19.606 10.3752 19.453 10.5617 19.3477 10.7752C19.2424 10.9887 19.1876 11.2236 19.1876 11.4617V14.1869C19.1881 14.5982 19.3517 14.9926 19.6425 15.2834C19.9334 15.5743 20.3278 15.7379 20.7391 15.7383H22.8726C23.1448 17.3475 23.6768 18.9017 24.4478 20.3401C23.168 20.6911 21.8467 20.8676 20.5197 20.8649C20.2758 20.8649 20.0333 20.8589 19.7915 20.8514ZM27.8321 18.9278C26.7716 17.098 26.2437 15.0081 26.308 12.8941C26.3723 10.7801 27.0261 8.72618 28.1958 6.9641C30.5503 8.43361 32.5165 10.4482 33.9284 12.8378C32.4449 15.351 30.3475 17.4464 27.8329 18.9276L27.8321 18.9278Z" fill="black"/>
<path d="M28.4686 11.1528C28.3442 11.1624 28.2286 11.221 28.1473 11.3157C28.066 11.4103 28.0255 11.5334 28.0347 11.6579C28.045 11.7822 28.1036 11.8975 28.1979 11.9791C28.2922 12.0607 28.4148 12.1021 28.5393 12.0944C28.7146 12.0764 28.8916 12.1056 29.0519 12.1789C29.133 12.272 29.2474 12.3297 29.3705 12.3396C29.4937 12.3494 29.6157 12.3107 29.7106 12.2316C29.8056 12.1526 29.8657 12.0395 29.8783 11.9166C29.8908 11.7937 29.8547 11.6708 29.7777 11.5742C29.3889 11.1072 28.6183 11.1422 28.4686 11.1528Z" fill="black"/>
</svg>
