<svg width="26" height="26" viewBox="0 0 26 26" fill="none" xmlns="http://www.w3.org/2000/svg">
<path d="M19.5245 19.5367C18.4128 19.5367 17.5084 20.4412 17.5084 21.5529C17.5084 22.6645 18.4128 23.569 19.5245 23.569C20.6362 23.569 21.5406 22.6645 21.5406 21.5529C21.5406 20.4412 20.6362 19.5367 19.5245 19.5367ZM19.5245 22.7625C18.8576 22.7625 18.3148 22.2198 18.3148 21.5529C18.3148 20.8859 18.8576 20.3432 19.5245 20.3432C20.1915 20.3432 20.7342 20.8859 20.7342 21.5529C20.7342 22.2198 20.1915 22.7625 19.5245 22.7625Z" fill="black"/>
<path d="M6.62129 19.5367C5.5096 19.5367 4.60516 20.4412 4.60516 21.5529C4.60516 22.6645 5.5096 23.569 6.62129 23.569C7.73298 23.569 8.63742 22.6645 8.63742 21.5529C8.63742 20.4412 7.73298 19.5367 6.62129 19.5367ZM6.62129 22.7625C5.95436 22.7625 5.41161 22.2198 5.41161 21.5529C5.41161 20.8859 5.95436 20.3432 6.62129 20.3432C7.28823 20.3432 7.83097 20.8859 7.83097 21.5529C7.83097 22.2198 7.28823 22.7625 6.62129 22.7625Z" fill="black"/>
<path d="M23.5382 10.3016L23.1721 3.34479C23.8564 3.15769 24.3632 2.53753 24.3632 1.79479C24.3632 0.905272 23.6398 0.181885 22.7503 0.181885H5.41161C4.5221 0.181885 3.79871 0.905272 3.79871 1.79479C3.79871 2.37422 4.10798 2.87866 4.56766 3.16293L3.04186 11.173C1.32129 12.2408 0.169678 14.1416 0.169678 16.3109V21.1496C0.169678 21.8166 0.71242 22.3593 1.37936 22.3593H3.08581C3.45395 23.973 4.8975 25.1819 6.62129 25.1819C8.34508 25.1819 9.78863 23.973 10.1568 22.3593H15.989C16.3572 23.973 17.8007 25.1819 19.5245 25.1819C21.2483 25.1819 22.6919 23.973 23.06 22.3593H23.96C24.6269 22.3593 25.1697 21.8166 25.1697 21.1496V12.2787C25.1697 11.2988 24.4665 10.4819 23.5382 10.3016ZM5.41161 0.988336H22.7503C23.1947 0.988336 23.5568 1.35043 23.5568 1.79479C23.5568 2.23914 23.1947 2.60124 22.7503 2.60124H5.41161C4.96686 2.60124 4.60516 2.23914 4.60516 1.79479C4.60516 1.35043 4.96686 0.988336 5.41161 0.988336ZM22.7281 10.2625H21.5201L21.1592 3.40769H22.3673L22.7281 10.2625ZM9.07855 8.45084L9.70718 9.07987L7.01081 12.375L6.79226 11.3908L9.07855 8.45084ZM8.63742 6.68229C8.63742 6.43309 8.84024 6.23027 9.08944 6.23027C9.20839 6.23027 9.32492 6.27826 9.40919 6.36253L11.731 8.6843C11.8152 8.76858 11.8632 8.88511 11.8632 9.00406C11.8632 9.25326 11.6604 9.45608 11.4112 9.45608C11.2923 9.45608 11.1757 9.40809 11.0915 9.32382L8.76968 7.00205C8.6854 6.91777 8.63742 6.80124 8.63742 6.68229ZM10.2802 9.65285L10.5213 9.89358C10.7556 10.1283 11.0798 10.2625 11.4112 10.2625C12.1052 10.2625 12.6697 9.69801 12.6697 9.00406C12.6697 8.67261 12.5354 8.34842 12.3011 8.11414L9.97935 5.79237C9.74508 5.55809 9.42089 5.42382 9.08944 5.42382C8.39548 5.42382 7.83097 5.98834 7.83097 6.68229C7.83097 7.01374 7.96524 7.33793 8.19952 7.57221L8.50395 7.87664L6.56524 10.3694L6.54145 10.2625H6.21806C6.11242 10.2625 6.0096 10.273 5.90516 10.2783L7.35153 3.40769H20.3511L20.712 10.2625H20.4148C19.4624 10.2625 18.6531 10.9117 18.4467 11.8412L17.9915 13.8916H7.3479L7.23339 13.3766L10.2802 9.65285ZM5.34347 3.40084C5.36645 3.40164 5.38823 3.40769 5.41161 3.40769H6.52774L5.06081 10.3766C4.67694 10.4512 4.30637 10.5633 3.95194 10.7073L5.34347 3.40084ZM0.976129 16.3109C0.976129 15.7577 1.06565 15.2254 1.22532 14.7242C1.7729 14.8395 2.18581 15.3262 2.18581 15.9077C2.18581 16.5746 1.64306 17.1174 0.976129 17.1174V16.3109ZM6.62129 24.3754C5.06524 24.3754 3.79871 23.1089 3.79871 21.5529C3.79871 19.9968 5.06524 18.7303 6.62129 18.7303C8.17734 18.7303 9.44387 19.9968 9.44387 21.5529C9.44387 23.1089 8.17734 24.3754 6.62129 24.3754ZM19.5245 24.3754C17.9685 24.3754 16.7019 23.1089 16.7019 21.5529C16.7019 19.9968 17.9685 18.7303 19.5245 18.7303C21.0806 18.7303 22.3471 19.9968 22.3471 21.5529C22.3471 23.1089 21.0806 24.3754 19.5245 24.3754ZM24.3632 15.9077H23.5568C23.3342 15.9077 23.1535 15.727 23.1535 15.5045V13.8916C23.1535 13.669 23.3342 13.4883 23.5568 13.4883H24.3632V15.9077ZM24.3632 12.6819H23.5568C22.8898 12.6819 22.3471 13.2246 22.3471 13.8916V15.5045C22.3471 16.1714 22.8898 16.7141 23.5568 16.7141H24.3632V21.1496C24.3632 21.3722 24.1826 21.5529 23.96 21.5529H23.1535C23.1535 19.5516 21.5257 17.9238 19.5245 17.9238C17.5233 17.9238 15.8955 19.5516 15.8955 21.5529H14.2826V20.7464H13.4761V21.5529H10.2503C10.2503 19.5516 8.6225 17.9238 6.62129 17.9238C4.62008 17.9238 2.99226 19.5516 2.99226 21.5529H1.37936C1.15677 21.5529 0.976129 21.3722 0.976129 21.1496V17.9238C2.08782 17.9238 2.99226 17.0194 2.99226 15.9077C2.99226 14.9887 2.37048 14.2202 1.52815 13.9783C2.34306 12.3468 3.98137 11.1952 5.89669 11.0791L6.70113 14.698H11.46C12.5717 14.698 13.4761 15.6024 13.4761 16.7141V19.9399H14.2826V16.7141C14.2826 15.9246 13.956 15.2109 13.4314 14.698H18.6382L19.2346 12.0162C19.3584 11.4585 19.8439 11.069 20.4152 11.069H23.1535C23.8205 11.069 24.3632 11.6117 24.3632 12.2787V12.6819Z" fill="black"/>
<path d="M11.8632 15.9077H9.04065V16.7141H11.8632V15.9077Z" fill="black"/>
</svg>
