<svg width="26" height="26" viewBox="0 0 26 26" fill="none" xmlns="http://www.w3.org/2000/svg">
<path d="M21.163 4.74845C20.947 4.74845 20.7513 4.6007 20.6929 4.39274C20.6393 4.20212 20.7089 3.99333 20.8658 3.87273C21.0209 3.75359 21.2391 3.73943 21.4082 3.83767C21.582 3.93869 21.6776 4.14182 21.6448 4.34011C21.6064 4.57272 21.3989 4.74845 21.163 4.74845Z" fill="black"/>
<path d="M23.3499 6.25415C23.3493 6.25317 23.3485 6.25229 23.3479 6.25131C23.3476 6.25073 23.3473 6.25014 23.347 6.24956C23.2309 6.05923 23.108 5.86939 22.9817 5.68535C22.8291 5.46304 22.5251 5.40655 22.3028 5.55918C22.0805 5.71182 22.024 6.01582 22.1766 6.23808C22.255 6.35234 22.332 6.46899 22.4066 6.58652L21.5261 9.87573L17.4436 10.9693L14.4538 7.97957L15.5471 3.89665L18.8355 3.01581C18.9514 3.08929 19.0664 3.16512 19.1791 3.24241C19.4016 3.39485 19.7054 3.33821 19.8579 3.11585C20.0104 2.89344 19.9537 2.58954 19.7314 2.437C19.5475 2.31093 19.358 2.18837 19.1679 2.0727C19.1678 2.07265 19.1677 2.0726 19.1676 2.07255C17.1299 0.830284 14.7844 0.20241 12.3842 0.256658C10.3873 0.302116 8.41028 0.830821 6.66718 1.78564L6.66708 1.78569C5.63008 2.35351 4.6759 3.06976 3.83094 3.91467C2.98602 4.75963 2.26977 5.71382 1.70201 6.75077L1.70196 6.75087C0.747134 8.49401 0.218381 10.4709 0.172922 12.4678C0.118626 14.8683 0.746744 17.2145 1.9895 19.2527C1.99009 19.2537 1.99082 19.2545 1.99146 19.2555C1.99185 19.2561 1.99209 19.2567 1.99248 19.2573C2.50703 20.1012 3.12562 20.8868 3.83098 21.5922C4.53596 22.2971 5.32023 22.9148 6.16231 23.4284C6.16372 23.4293 6.16533 23.4299 6.1668 23.4308C6.16856 23.4319 6.17007 23.4332 6.17183 23.4343C8.12815 24.6271 10.3683 25.2534 12.6683 25.2534C12.7634 25.2534 12.8588 25.2524 12.954 25.2502H12.9553C14.9522 25.2048 16.9292 24.6761 18.6723 23.7212L18.6724 23.7212C19.7093 23.1534 20.6635 22.4372 21.5085 21.5922C22.3534 20.7473 23.0697 19.7931 23.6374 18.7561L23.6374 18.7561C24.5923 17.0129 25.121 15.036 25.1664 13.0391V13.0391C25.2208 10.6385 24.5926 8.29236 23.3499 6.25415ZM23.0872 7.82068C23.6814 9.07443 24.0427 10.4255 24.1551 11.8141L22.4693 10.1285L23.0872 7.82068ZM16.7531 11.6599L15.6604 15.7425L11.5761 16.8367L8.5863 13.8469L9.67896 9.76441L13.7632 8.67013L16.7531 11.6599ZM10.0448 22.5532L11.7303 24.2387C10.3418 24.1264 8.99123 23.7653 7.73797 23.1714L10.0448 22.5532ZM13.14 24.2673L10.7362 21.8636L11.8289 17.78L15.9118 16.6861L18.9015 19.6758L18.0207 22.9624C16.5201 23.7489 14.8413 24.1977 13.14 24.2673ZM2.25224 17.6862C1.65801 16.4324 1.29669 15.0814 1.18434 13.6927L2.87006 15.3784L2.25224 17.6862ZM15.2943 2.9534L13.6088 1.26793C14.9972 1.38008 16.3479 1.74136 17.6013 2.33544L15.2943 2.9534ZM12.1994 1.23956L14.6038 3.64392L13.5105 7.72683L9.42765 8.82077L6.43789 5.83106L7.31869 2.54442C8.81926 1.75801 10.4981 1.30914 12.1994 1.23956ZM4.5215 4.60524C5.01354 4.1132 5.54566 3.66868 6.11157 3.27606L5.49459 5.57832L3.19232 6.19531C3.58494 5.6294 4.02947 5.09728 4.5215 4.60524ZM2.46069 7.40238L5.74727 6.52157L8.73601 9.51031L7.643 13.5942L3.56053 14.6878L1.15582 12.2832C1.2254 10.5818 1.67427 8.90294 2.46069 7.40238ZM2.9328 18.9203L3.81331 15.6311L7.89583 14.5375L10.8856 17.5273L9.792 21.6099L6.50405 22.491C5.79107 22.039 5.12487 21.505 4.52146 20.9016C3.91887 20.2991 3.38509 19.6332 2.9328 18.9203ZM20.8179 20.9016C20.3259 21.3937 19.7937 21.8382 19.2278 22.2308L19.8448 19.9285L22.1471 19.3116C21.7545 19.8775 21.3099 20.4096 20.8179 20.9016ZM22.8787 18.1045L19.5921 18.9853L16.6034 15.9966L17.6964 11.9126L21.7789 10.819L24.1836 13.2237C24.114 14.925 23.6651 16.6039 22.8787 18.1045Z" fill="black"/>
</svg>
