<svg width="29" height="31" viewBox="0 0 29 31" fill="none" xmlns="http://www.w3.org/2000/svg">
<path d="M27.5617 10.6716C27.3918 10.6716 27.2512 10.8122 27.2512 10.982C27.2512 11.3393 26.8178 11.5268 26.5601 11.2749C26.2848 11.0113 25.9333 10.8356 25.5467 10.7477C25.5584 10.6482 25.5702 10.5544 25.5819 10.4549C25.6522 9.72854 25.0957 9.07251 24.3401 9.07251H4.36626C3.61065 9.07251 3.0542 9.72854 3.12448 10.4549C3.1362 10.5544 3.14791 10.654 3.15963 10.7536C2.77304 10.8473 2.42159 11.0289 2.14044 11.2866C1.89442 11.5268 1.45512 11.351 1.45512 10.9879C1.45512 10.818 1.31454 10.6774 1.14467 10.6774C0.974807 10.6774 0.834229 10.818 0.834229 10.9879C0.834229 11.9075 1.94128 12.3527 2.57389 11.7376C2.75547 11.5678 2.98976 11.4448 3.24749 11.3745C3.85666 14.8479 6.02391 17.7298 8.99363 19.323L8.03301 22.0526H6.10592C5.44403 22.0526 4.90514 22.5915 4.90514 23.2534C4.90514 23.9152 5.44403 24.4541 6.10592 24.4541H7.18368L5.66075 28.7886C5.44403 29.4037 5.76619 30.1007 6.39293 30.3233C7.01382 30.54 7.70499 30.212 7.92758 29.5852L9.72581 24.46H13.1348V29.1401C13.1348 29.802 13.6737 30.3408 14.3356 30.3408C14.9975 30.3408 15.5364 29.802 15.5364 29.1401V24.46H18.9454L20.7436 29.5911C20.9662 30.2237 21.6633 30.5459 22.2783 30.3291C22.905 30.1124 23.233 29.4212 23.0105 28.7945L21.4875 24.46H22.5653C23.2272 24.46 23.7661 23.9211 23.7661 23.2592C23.7661 22.5973 23.2272 22.0584 22.5653 22.0584H20.6675L19.7069 19.3289C22.6766 17.7415 24.8438 14.8597 25.453 11.3745C25.7107 11.4448 25.945 11.5678 26.1266 11.7376C26.7709 12.3644 27.8721 11.9075 27.8721 10.9937C27.8721 10.8063 27.7316 10.6716 27.5617 10.6716ZM9.55594 19.6042C9.90153 19.7682 10.2588 19.9146 10.6279 20.0376L9.9191 22.0467H8.6949L9.55594 19.6042ZM13.1465 20.5941V22.0467H10.581L11.2195 20.2251C11.8462 20.4008 12.4905 20.5296 13.1465 20.5941ZM17.4752 20.2251L18.1137 22.0467H15.5481V20.5941C16.2158 20.5296 16.8543 20.4008 17.4752 20.2251ZM14.9272 20.6468V22.0526H13.7733V20.6468C14.1716 20.6644 14.523 20.6644 14.9272 20.6468ZM7.34769 29.3744C7.24226 29.6731 6.90838 29.8371 6.60966 29.7317C6.31093 29.6262 6.15278 29.2924 6.25821 28.9936L7.85143 24.4541H9.07563L7.34769 29.3744ZM14.9272 29.1342C14.9272 29.4505 14.6695 29.7141 14.3473 29.7141C14.0252 29.7141 13.7674 29.4564 13.7674 29.1342V24.4541H14.9272V29.1342ZM22.4423 28.9936C22.5477 29.2924 22.3896 29.6204 22.0908 29.7317C21.8038 29.8312 21.4582 29.6672 21.3528 29.3744L19.6249 24.4541H20.8491L22.4423 28.9936ZM23.1686 23.2534C23.1686 23.5697 22.9109 23.8332 22.5887 23.8332H6.11177C5.79547 23.8332 5.53189 23.5755 5.53189 23.2534C5.53189 22.9312 5.78962 22.6735 6.11177 22.6735H22.5946C22.9109 22.6735 23.1686 22.9312 23.1686 23.2534ZM20.0056 22.0526H18.7814L18.0726 20.0435C18.4417 19.9146 18.799 19.7682 19.1446 19.61L20.0056 22.0526ZM14.0896 20.0318C8.68904 19.9029 4.24911 15.8144 3.73951 10.3963C3.70437 10.0273 3.98553 9.6934 4.3604 9.6934H24.3342C24.715 9.6934 24.9903 10.0273 24.9551 10.3963C24.428 16.037 19.6659 20.1665 14.0896 20.0318Z" fill="black"/>
<path d="M28.1943 6.38395H22.413C22.2666 5.64005 21.6105 5.07188 20.8198 5.07188H19.5546C18.7638 5.07188 18.1078 5.64005 17.9614 6.38395H16.948C16.9129 5.65763 16.3154 5.07188 15.5832 5.07188C15.1556 5.07188 14.7749 5.27689 14.523 5.58148C14.2712 5.27104 13.8904 5.07188 13.4628 5.07188C13.0353 5.07188 12.6545 5.27689 12.4027 5.58148C12.1508 5.27104 11.7701 5.07188 11.3425 5.07188C10.6044 5.07188 10.007 5.65763 9.97768 6.38395H9.08149V5.9505C9.08149 5.46433 8.68904 5.07188 8.20288 5.07188H7.21297C6.7268 5.07188 6.33436 5.46433 6.33436 5.9505V6.38395H5.41474C5.24487 6.38395 5.1043 6.52453 5.1043 6.69439C5.1043 6.86426 5.24487 7.00484 5.41474 7.00484H6.3285V7.43829C6.3285 7.92445 6.72095 8.3169 7.20711 8.3169H8.19702C8.68319 8.3169 9.07563 7.92445 9.07563 7.43829V7.00484H9.97182C10.007 7.73116 10.6044 8.31104 11.3366 8.31104C11.7642 8.31104 12.1449 8.10603 12.3968 7.80145C12.6487 8.11189 13.0294 8.31104 13.457 8.31104C13.8846 8.31104 14.2653 8.10603 14.5172 7.80145C14.7691 8.11189 15.1498 8.31104 15.5774 8.31104C16.3154 8.31104 16.907 7.73116 16.9422 7.00484H17.9555C18.1019 7.74873 18.758 8.31104 19.5487 8.31104H20.8139C21.5988 8.31104 22.2607 7.74873 22.4071 7.00484H28.1943C28.3642 7.00484 28.5047 6.86426 28.5047 6.69439C28.5047 6.52453 28.3642 6.38395 28.1943 6.38395ZM8.45475 7.44414C8.45475 7.58472 8.34346 7.69601 8.20288 7.69601H7.21297C7.07239 7.69601 6.9611 7.58472 6.9611 7.44414V5.9505C6.9611 5.80992 7.07239 5.69863 7.21297 5.69863H8.20288C8.34346 5.69863 8.45475 5.80992 8.45475 5.9505V7.44414ZM11.3366 7.69601C10.9266 7.69601 10.5869 7.36214 10.5869 6.94626V6.44838C10.5869 6.03836 10.9207 5.69863 11.3366 5.69863C11.7525 5.69863 12.0864 6.0325 12.0864 6.44838V6.94626C12.0864 7.36214 11.7525 7.69601 11.3366 7.69601ZM13.457 7.69601C13.047 7.69601 12.7072 7.36214 12.7072 6.94626V6.44838C12.7072 6.03836 13.0411 5.69863 13.457 5.69863C13.8729 5.69863 14.2067 6.0325 14.2067 6.44838V6.94626C14.2067 7.36214 13.8729 7.69601 13.457 7.69601ZM16.3271 6.94626C16.3271 7.35628 15.9933 7.69601 15.5774 7.69601C15.1615 7.69601 14.8276 7.36214 14.8276 6.94626V6.44838C14.8276 6.03836 15.1615 5.69863 15.5774 5.69863C15.9933 5.69863 16.3271 6.0325 16.3271 6.44838V6.94626ZM20.8198 7.69601H19.5546C19.004 7.69601 18.5588 7.25085 18.5588 6.70025C18.5588 6.14965 19.004 5.70449 19.5546 5.70449H20.8198C21.3704 5.70449 21.8155 6.14965 21.8155 6.70025V6.71196C21.8097 7.25085 21.3645 7.69601 20.8198 7.69601Z" fill="black"/>
<path d="M8.7769 2.96321C8.7769 3.12136 8.68319 3.27365 8.57775 3.29122C8.40789 3.32051 8.2966 3.48452 8.32588 3.65438C8.35517 3.83011 8.51918 3.93554 8.68904 3.90625C9.15178 3.82425 9.40365 3.36151 9.40951 2.96907C9.41536 2.30718 8.90577 1.82101 8.89405 1.35827C8.8882 1.20012 8.98192 1.03611 9.08149 1.01268C9.25136 0.971681 9.35093 0.801816 9.31579 0.637808C9.27479 0.467942 9.10492 0.368366 8.94091 0.403511C8.48403 0.514802 8.25559 0.971681 8.26145 1.37584C8.27902 2.0143 8.78276 2.50633 8.7769 2.96321Z" fill="black"/>
<path d="M11.2839 2.96321C11.2839 3.12136 11.1902 3.27365 11.0847 3.29122C10.9149 3.32051 10.8036 3.48452 10.8329 3.65438C10.8622 3.83011 11.0262 3.93554 11.196 3.90625C11.6588 3.82425 11.9106 3.36151 11.9165 2.96907C11.9223 2.31303 11.4127 1.82101 11.401 1.35827C11.3952 1.20012 11.4889 1.03611 11.5885 1.01268C11.7583 0.971681 11.8579 0.801816 11.8228 0.637808C11.7818 0.467942 11.6119 0.368366 11.4479 0.403511C10.9852 0.514802 10.7626 0.971681 10.7684 1.37584C10.7801 2.02602 11.2897 2.50047 11.2839 2.96321Z" fill="black"/>
<path d="M13.785 2.96321C13.785 3.12136 13.6913 3.27365 13.5859 3.29122C13.416 3.32051 13.3047 3.48452 13.334 3.65438C13.3633 3.83011 13.5273 3.93554 13.6971 3.90625C14.1599 3.82425 14.4118 3.36151 14.4176 2.96907C14.4235 2.31303 13.9139 1.82101 13.9022 1.35827C13.8963 1.20012 13.99 1.03611 14.0896 1.01268C14.2595 0.971681 14.359 0.801816 14.3239 0.637808C14.2829 0.467942 14.113 0.368366 13.949 0.403511C13.498 0.508944 13.2696 0.971681 13.2813 1.36999C13.2871 2.0143 13.7909 2.50633 13.785 2.96321Z" fill="black"/>
<path d="M16.292 2.96321C16.292 3.12136 16.1983 3.27365 16.0928 3.29122C15.923 3.32051 15.8117 3.48452 15.841 3.65438C15.8703 3.83011 16.0343 3.93554 16.2041 3.90625C16.6669 3.82425 16.9187 3.36151 16.9246 2.96907C16.9304 2.30718 16.4209 1.82101 16.4091 1.35827C16.4033 1.20012 16.497 1.03611 16.5966 1.01268C16.7664 0.971681 16.866 0.801816 16.8309 0.637808C16.7899 0.467942 16.62 0.368366 16.456 0.403511C16.005 0.508944 15.7765 0.971681 15.7883 1.36999C15.7941 2.0143 16.2978 2.50633 16.292 2.96321Z" fill="black"/>
</svg>
