<svg width="26" height="12" viewBox="0 0 26 12" fill="none" xmlns="http://www.w3.org/2000/svg">
<path d="M22.0088 4.372L18.5747 0.937831C18.1069 0.46731 17.4703 0.20356 16.8068 0.205331H5.58634C4.89598 0.205331 4.33634 0.764966 4.33634 1.45533V4.372H1.41968C0.729313 4.372 0.169678 4.93163 0.169678 5.622V9.78866C0.169678 10.479 0.729313 11.0387 1.41968 11.0387H18.9197C22.3699 11.035 25.166 8.23892 25.1697 4.78866V4.372H22.0088ZM5.16968 1.45533C5.16968 1.22523 5.35624 1.03866 5.58634 1.03866H16.8068C17.2491 1.03752 17.6736 1.21335 17.9855 1.527L19.1638 2.70533H5.16968V1.45533ZM5.16968 3.53866H19.9972L20.8305 4.372H5.16968V3.53866ZM18.9197 10.2053H1.41968C1.18957 10.2053 1.00301 10.0188 1.00301 9.78866V5.622C1.00301 5.39189 1.18957 5.20533 1.41968 5.20533H24.3205C24.0995 8.02538 21.7484 10.202 18.9197 10.2053Z" fill="black"/>
<path d="M8.08634 7.70533H4.33634V8.53866H8.08634V7.70533Z" fill="black"/>
<path d="M14.3363 6.872H12.6697V7.70533H14.3363V6.872Z" fill="black"/>
<path d="M17.6697 6.872H16.003V7.70533H17.6697V6.872Z" fill="black"/>
<path d="M21.003 6.872H19.3363V7.70533H21.003V6.872Z" fill="black"/>
</svg>
