<svg width="26" height="27" viewBox="0 0 26 27" fill="none" xmlns="http://www.w3.org/2000/svg">
<path d="M24.9588 15.4392C25.7835 14.5954 25.7757 13.2451 24.9413 12.411C24.1069 11.5768 22.7566 11.5693 21.9131 12.3943L20.3614 13.9477V4.21319C20.3613 3.73514 20.1621 3.27868 19.8116 2.95357C19.4611 2.62846 18.9909 2.46409 18.5142 2.49998C18.2532 2.52027 18.0008 2.60324 17.7787 2.74183V2.54635C17.7786 1.59498 17.0074 0.82373 16.056 0.82373C15.1046 0.82373 14.3333 1.59498 14.3333 2.5464V2.73327C14.0732 2.57887 13.7767 2.49656 13.4742 2.49485C12.5244 2.49485 11.7539 3.26348 11.7515 4.21319V7.37152L10.0228 2.62025C9.86052 2.17623 9.52106 1.81961 9.0856 1.6356C8.65014 1.4516 8.15779 1.45674 7.72625 1.6498C7.49342 1.75622 7.28933 1.91662 7.13085 2.11763L7.06772 1.94581C6.91277 1.52193 6.59652 1.17653 6.18794 0.984826C5.56409 0.692991 4.82582 0.80601 4.31787 1.27107C3.80991 1.73614 3.6323 2.46162 3.86816 3.10872L3.92957 3.27239C3.63799 3.21872 3.33745 3.24319 3.05835 3.34327C2.17459 3.66501 1.71853 4.6419 2.03937 5.52602L2.55487 6.93465C2.2212 6.87384 1.87696 6.91467 1.5668 7.05195C0.744306 7.44462 0.361955 8.40364 0.688728 9.25443L3.50685 16.9978C3.75237 17.6738 4.09757 18.3093 4.53097 18.8832L7.05478 22.2198C6.70002 22.4302 6.54476 22.863 6.68492 23.2508L7.69615 26.0307C7.77368 26.2453 7.93336 26.4202 8.13997 26.5169C8.34657 26.6136 8.58318 26.6241 8.79759 26.5462L10.0954 26.0736C10.2298 26.3926 10.5427 26.5997 10.8888 26.599H19.9317C20.6435 26.599 21.2205 26.022 21.2205 25.3103V23.1537C21.2184 22.6021 20.8637 22.1137 20.3398 21.941V19.9327L24.9588 15.4392ZM15.1934 2.5464C15.1934 2.06951 15.58 1.68293 16.0569 1.68293C16.5338 1.68293 16.9203 2.06951 16.9203 2.5464V8.6036C16.3607 8.38019 15.7322 8.40677 15.1934 8.67665V2.5464ZM12.6116 4.21319C12.6124 3.86512 12.8225 3.55174 13.1443 3.41893C13.466 3.28613 13.836 3.35998 14.0821 3.60616C14.2439 3.7666 14.3348 3.98524 14.3343 4.21319V9.45847C14.2868 9.52729 14.2438 9.59903 14.2054 9.67328L13.3032 11.6331L12.6116 9.73259V4.21319ZM1.49592 8.96058C1.32793 8.53297 1.51002 8.04757 1.91779 7.83593C2.13149 7.74053 2.37525 7.73797 2.59092 7.82894C2.80659 7.91985 2.97488 8.09615 3.05578 8.3158L4.65169 12.7015C4.67057 12.7505 4.69825 12.7956 4.73329 12.8346C4.74321 12.8451 4.75368 12.855 4.76466 12.8643C4.79149 12.8897 4.82154 12.9115 4.85401 12.9292C4.86715 12.9363 4.88059 12.9428 4.89439 12.9485C4.93099 12.9637 4.96965 12.9734 5.00907 12.9773C5.02024 12.9773 5.03056 12.982 5.04214 12.9824C5.04642 12.9824 5.05075 12.9824 5.05548 12.9824C5.19569 12.9824 5.32708 12.9139 5.40743 12.799C5.48777 12.6841 5.50701 12.5372 5.45888 12.4055L2.84741 5.23217C2.68894 4.79469 2.91427 4.31146 3.35134 4.15177C3.78877 3.9937 4.27175 4.21868 4.43219 4.65525L6.6085 10.6347C6.62708 10.6837 6.65461 10.7289 6.6897 10.7678C6.70002 10.7794 6.7116 10.7885 6.72278 10.7992C6.74875 10.8234 6.7776 10.8443 6.80871 10.8615C6.82255 10.8696 6.8369 10.8768 6.85165 10.883C6.88594 10.8967 6.92193 10.9058 6.95863 10.91C6.97237 10.91 6.98486 10.9156 6.9986 10.9161C7.00248 10.9161 7.00635 10.9161 7.01063 10.9161C7.06062 10.9162 7.11026 10.9073 7.15713 10.8899C7.26431 10.8511 7.35165 10.7713 7.40003 10.6681C7.44841 10.5649 7.4537 10.4467 7.41488 10.3396L4.67625 2.81488C4.51773 2.3774 4.74311 1.89416 5.18018 1.73448C5.39011 1.65715 5.62234 1.66752 5.82457 1.76327C6.02684 1.85792 6.18371 2.02848 6.26103 2.23795L8.99881 9.76435C9.06884 9.95616 9.26421 10.0721 9.46614 10.0418C9.66806 10.0115 9.82075 9.84324 9.83137 9.63935C9.83439 9.58191 9.82563 9.52442 9.8056 9.4705L9.33303 8.17484L7.65592 3.55848C7.48783 3.13123 7.66957 2.64603 8.07694 2.43424C8.29079 2.33854 8.5348 2.33592 8.75067 2.42699C8.96654 2.51806 9.13499 2.69461 9.21574 2.91455L12.4956 11.9256C12.6129 12.2506 12.9152 12.4723 13.2603 12.4867C13.6072 12.5074 13.9304 12.3107 14.0714 11.9931L14.9847 10.035C15.1592 9.6542 15.5113 9.38487 15.9245 9.316C16.3377 9.24713 16.7581 9.38774 17.0467 9.6913C17.4111 10.0678 17.5056 10.6301 17.2843 11.1051L14.5022 17.0721C14.497 17.0885 14.493 17.1053 14.4902 17.1223C14.4761 17.1581 14.467 17.1957 14.4631 17.234C14.4604 17.2913 14.4692 17.3485 14.4889 17.4024L15.1625 19.2531L10.7905 20.8426C10.7381 20.6948 10.6844 20.5479 10.6325 20.3992C9.90215 18.311 9.07609 15.9448 6.43326 15.2596C5.56797 15.0384 4.65979 15.0482 3.79944 15.288L1.49592 8.96058ZM5.21834 18.3652C4.83659 17.8594 4.53258 17.2995 4.3162 16.704L4.09711 16.1025C4.79239 15.9193 5.52296 15.9163 6.2197 16.0939C8.41836 16.6644 9.10095 18.6173 9.82352 20.6853C9.87678 20.8378 9.93135 20.986 9.98507 21.1394L7.89384 21.9007L5.21834 18.3652ZM8.50555 25.7399L7.49518 22.9587L15.8511 19.9172C15.898 19.9001 15.9476 19.8913 15.9976 19.8914C16.1785 19.8912 16.3401 20.0042 16.4019 20.1741L17.118 22.1468C17.157 22.254 17.1517 22.3723 17.1033 22.4756C17.055 22.5789 16.9675 22.6588 16.8602 22.6975L8.50555 25.7399ZM20.3614 23.1542L20.3622 25.3103C20.3622 25.5476 20.1699 25.7399 19.9326 25.7399H11.0152L14.5679 24.4468H18.643V24.8764C18.643 25.1137 18.8353 25.306 19.0726 25.306C19.3099 25.306 19.5022 25.1137 19.5022 24.8764V24.4468C19.5005 23.9713 19.1142 23.5869 18.6387 23.5876H16.9285L17.1558 23.5052C17.5152 23.3728 17.7964 23.0864 17.9221 22.7246H19.9317C20.169 22.7246 20.3614 22.9169 20.3614 23.1542ZM19.6096 19.4434V19.446C19.5669 19.4891 19.5336 19.5408 19.5121 19.5976C19.4929 19.6456 19.4828 19.6967 19.482 19.7484V21.865H17.9291C17.9291 21.8611 17.9291 21.8568 17.926 21.8529L17.2078 19.8798C17.0204 19.3735 16.5374 19.0376 15.9976 19.0382L15.3563 17.2769L18.0627 11.4715C18.4106 10.735 18.2998 9.86363 17.7787 9.23762V4.28623C17.7668 3.81714 18.1129 3.41566 18.5786 3.35832C18.8166 3.3404 19.0514 3.42236 19.2266 3.58456C19.4018 3.74671 19.5017 3.97446 19.5022 4.21324V13.9477C19.5013 14.2961 19.7107 14.6105 20.0326 14.7439C20.3544 14.8772 20.7249 14.803 20.9705 14.556L22.5201 13.0026C23.0285 12.5224 23.8265 12.533 24.322 13.0265C24.8176 13.5199 24.8316 14.3178 24.3536 14.8284L19.6096 19.4434Z" fill="black"/>
<path d="M16.044 21.6463C15.8817 21.2042 15.3928 20.9762 14.9498 21.136L14.1839 21.4148C14.177 21.4173 14.1701 21.4195 14.1632 21.4225L8.97037 23.3127C8.82327 23.3631 8.71488 23.4889 8.68689 23.6419C8.6589 23.7948 8.71573 23.9509 8.8355 24.05C8.95526 24.1492 9.11918 24.1759 9.26422 24.1199L14.482 22.2173C14.4942 22.2135 14.5063 22.209 14.5181 22.2039L15.2377 21.9414L15.3828 22.3401C15.4355 22.4843 15.5611 22.5894 15.7122 22.616C15.8634 22.6425 16.0173 22.5863 16.1158 22.4686C16.2144 22.3509 16.2426 22.1896 16.19 22.0454L16.044 21.6463Z" fill="black"/>
</svg>
