<svg width="26" height="26" viewBox="0 0 26 26" fill="none" xmlns="http://www.w3.org/2000/svg">
<path d="M25.8342 5.88221H18.7089V1.48291H23.929V0.0180664H17.2441V5.88221H10.119V10.279H11.6319L11.767 12.3138H7.91946C5.03001 12.3138 2.64316 14.5063 2.33455 17.3149C1.46365 17.6074 0.834229 18.4308 0.834229 19.399C0.834229 20.3718 1.46957 21.1984 2.34695 21.4874C2.64831 23.4832 4.37484 25.0181 6.45328 25.0181H23.3438L24.3213 10.279H25.8342V5.88221ZM7.91946 13.7786H14.351C16.3917 13.7786 18.0923 15.2582 18.4394 17.2004H3.83105C4.17819 15.2582 5.87859 13.7786 7.91946 13.7786ZM3.03264 18.6653H19.2377C19.6422 18.6653 19.9714 18.9945 19.9714 19.3988C19.9714 19.8034 19.6422 20.1324 19.2377 20.1324H3.03264C2.62809 20.1324 2.29907 19.8034 2.29907 19.3988C2.29907 18.9945 2.62809 18.6653 3.03264 18.6653ZM6.45328 23.5532C5.22495 23.5532 4.18716 22.7247 3.86729 21.5974H18.403C18.0833 22.7247 17.0455 23.5532 15.817 23.5532H6.45328ZM21.973 23.5532H18.979C19.469 22.9778 19.8055 22.2682 19.9234 21.4874C20.8007 21.1984 21.4363 20.3718 21.4363 19.399C21.4363 18.4308 20.8068 17.6074 19.9359 17.3149C19.6273 14.5063 17.2407 12.3138 14.351 12.3138H13.235L13.1 10.279H22.8532L21.973 23.5532ZM24.3694 8.81419H11.5839V7.34705H24.3694V8.81419Z" fill="black"/>
</svg>
