<?xml version="1.0" encoding="utf-8"?><svg viewBox="0 0 24 20" xmlns="http://www.w3.org/2000/svg" xmlns:xlink="http://www.w3.org/1999/xlink"><style>:root>svg{display:none}:root>svg:target{display:block}</style><svg viewBox="0 0 24 16" id="arrow--left" xmlns="http://www.w3.org/2000/svg"><path d="M.336 7.293a1 1 0 000 1.414L6.7 15.071a1 1 0 001.414-1.414L2.457 8l5.657-5.657A1 1 0 106.7.93L.336 7.293zM22.956 9a1 1 0 100-2v2zM1.044 9h21.914V7H1.043v2z"/></svg><svg viewBox="0 0 24 16" id="arrow--right" xmlns="http://www.w3.org/2000/svg"><path d="M23.664 7.293a1 1 0 010 1.414L17.3 15.071a1 1 0 01-1.414-1.414L21.543 8l-5.657-5.657A1 1 0 0117.3.93l6.364 6.364zM1.044 9a1 1 0 010-2v2zm21.913 0H1.043V7h21.914v2z"/></svg><svg viewBox="0 0 20 20" id="telegram" xmlns="http://www.w3.org/2000/svg"><path fill-rule="evenodd" clip-rule="evenodd" d="M3.095.379h14.204a2.663 2.663 0 012.664 2.663v14.205a2.663 2.663 0 01-2.664 2.663H3.095a2.663 2.663 0 01-2.663-2.663V3.042A2.663 2.663 0 013.095.38zm12.22 5.122l.202-.073c.425-.152.865.191.772.608l-1.907 8.424c-.09.395-.591.573-.943.333l-1.21-.82a2.512 2.512 0 00-3.135.253.505.505 0 01-.812-.18l-.53-1.554-.016-.048a3 3 0 00-2.047-1.926l-1.303-.357a.367.367 0 01-.033-.71l10.962-3.95zm-6.15 5.845l4.953-4.048c.124-.102-.02-.28-.161-.199l-.97.555-5.153 2.954a.25.25 0 00-.12.297l.416 1.237.389 1.167a.315.315 0 01.006.023c.005.021.01.043.027.056a.055.055 0 00.079-.006c.014-.016.015-.04.016-.062 0-.007 0-.015.002-.022l.138-1.166.052-.43a.252.252 0 01.093-.165l.233-.19z"/></svg><svg viewBox="0 0 20 20" id="vk" xmlns="http://www.w3.org/2000/svg"><path fill-rule="evenodd" clip-rule="evenodd" d="M3.582 19.659c4.268.455 8.572.455 12.84 0a3.644 3.644 0 003.236-3.241 60.522 60.522 0 000-12.84 3.644 3.644 0 00-3.24-3.236 60.518 60.518 0 00-12.84 0 3.644 3.644 0 00-3.236 3.24 60.517 60.517 0 000 12.84 3.644 3.644 0 003.24 3.236zm10.52-6.084c.368.008 1.416.032 1.661-.002.464-.066.617-.435.368-.82a6.278 6.278 0 00-.672-.874 15.523 15.523 0 00-.642-.65c-.144-.14-.287-.28-.426-.423-.22-.229-.232-.382-.08-.656.042-.078.089-.154.14-.227l.413-.559c.27-.362.54-.725.8-1.095.244-.348.473-.71.569-1.136a.295.295 0 00-.204-.38 1.15 1.15 0 00-.34-.046h-1.94c-.34 0-.44.07-.567.39a8.671 8.671 0 01-.91 1.767 7.17 7.17 0 01-.694.856c-.195.207-.392.136-.454-.15a2.77 2.77 0 01-.058-.636c.003-.312.013-.625.023-.937.008-.226.015-.452.02-.678a1.828 1.828 0 00-.028-.377.522.522 0 00-.417-.466 2.717 2.717 0 00-.569-.058H10l-.234-.004a13.73 13.73 0 00-1.082.004c-.294.015-.557.054-.749.3-.092.117-.08.236.064.26.466.09.577.366.595.682.028.492.038.817.028 1.31a2.995 2.995 0 01-.128.733c-.061.172-.202.207-.35.106a1.318 1.318 0 01-.28-.254 9.522 9.522 0 01-1.372-2.407.64.64 0 00-.613-.441l-.066-.001c-.333-.006-1.803-.033-1.89.001-.153.061-.203.24-.153.426.013.056.568 1.235.596 1.29.541 1.096 1.147 2.16 1.905 3.128a5.475 5.475 0 001.719 1.503c.621.322 1.31.492 2.01.497.192.005.386.001.58-.01.314-.018.492-.194.51-.473a5.43 5.43 0 01.18-.912c.11-.277.342-.318.577-.137.1.077.193.162.28.254.118.121.232.245.345.369.169.184.337.367.517.54.264.255.62.395.987.39l.126.003z"/></svg></svg>